<?xml version="1.0" encoding="UTF-8" standalone="no"?>
<!-- Created with Inkscape (http://www.inkscape.org/) -->

<svg
   xmlns:dc="http://purl.org/dc/elements/1.1/"
   xmlns:cc="http://creativecommons.org/ns#"
   xmlns:rdf="http://www.w3.org/1999/02/22-rdf-syntax-ns#"
   xmlns:svg="http://www.w3.org/2000/svg"
   xmlns="http://www.w3.org/2000/svg"
   xmlns:sodipodi="http://sodipodi.sourceforge.net/DTD/sodipodi-0.dtd"
   xmlns:inkscape="http://www.inkscape.org/namespaces/inkscape"
   width="215mm"
   height="215mm"
   viewBox="0 0 215 215"
   version="1.1"
   id="svg8"
   inkscape:version="0.92.1 r15371"
   sodipodi:docname="drawing.svg">
  <defs
     id="defs2">
    <filter
       inkscape:collect="always"
       style="color-interpolation-filters:sRGB"
       id="filter5454"
       x="-0.029999999"
       width="1.0599999"
       y="-0.029999999"
       height="1.0599999">
      <feGaussianBlur
         inkscape:collect="always"
         stdDeviation="1.8615326"
         id="feGaussianBlur5456" />
    </filter>
  </defs>
  <sodipodi:namedview
     id="base"
     pagecolor="#ffffff"
     bordercolor="#666666"
     borderopacity="1.0"
     inkscape:pageopacity="0.0"
     inkscape:pageshadow="2"
     inkscape:zoom="0.7"
     inkscape:cx="266.76441"
     inkscape:cy="331.42857"
     inkscape:document-units="mm"
     inkscape:current-layer="layer1"
     showgrid="false"
     inkscape:window-width="1920"
     inkscape:window-height="986"
     inkscape:window-x="-11"
     inkscape:window-y="-11"
     inkscape:window-maximized="1" />
  <metadata
     id="metadata5">
    <rdf:RDF>
      <cc:Work
         rdf:about="">
        <dc:format>image/svg+xml</dc:format>
        <dc:type
           rdf:resource="http://purl.org/dc/dcmitype/StillImage" />
        <dc:title></dc:title>
      </cc:Work>
    </rdf:RDF>
  </metadata>
  <g
     inkscape:label="Layer 1"
     inkscape:groupmode="layer"
     id="layer1"
     style="display:inline"
     transform="translate(0,-82)">
    <circle
       style="fill:#000000;fill-opacity:0;stroke:#0000ff;stroke-width:3.86500001;stroke-miterlimit:4;stroke-dasharray:none;stroke-opacity:0.98823529;filter:url(#filter5454)"
       r="74.461304"
       cy="189.5"
       cx="107.50001"
       id="circle4487" />
    <rect
       style="opacity:0;fill:#2f11f4;fill-opacity:1;stroke:#762c00;stroke-width:1.39999998;stroke-linecap:round;stroke-linejoin:round;stroke-miterlimit:4;stroke-dasharray:none;stroke-opacity:1;paint-order:stroke fill markers"
       id="rect5053"
       width="30.238094"
       height="29.860117"
       x="7.5595236"
       y="270.91965"
       rx="0.40000001"
       ry="0.80000001" />
    <path
       style="fill:none;stroke:#000000;stroke-width:0.26458332px;stroke-linecap:butt;stroke-linejoin:miter;stroke-opacity:1"
       d="m 128.5119,128.80059 c -2.01587,-0.75595 -4.11443,-1.32022 -6.04762,-2.26785 -4.50539,-2.20853 -8.70263,-5.01669 -13.22916,-7.18155 -1.29595,-0.6198 -2.7641,-0.78552 -4.15774,-1.13393 -2.71158,-0.67789 -4.41236,-0.3956 -7.181548,0 -0.758677,0.10838 -1.530964,0.16744 -2.267857,0.37798 -3.995524,1.14158 -7.520123,3.43287 -10.961309,5.66964 -3.586713,2.33136 -5.33812,3.58828 -9.071428,6.4256 -3.287559,2.49854 -5.430477,4.4624 -8.693454,7.18154 -1.37564,1.14637 -2.857786,2.17025 -4.157736,3.40179 -1.101376,1.04341 -2.015874,2.26786 -3.02381,3.40178 -1.007938,1.13393 -2.015873,2.26786 -3.023811,3.40179 -1.007936,1.13393 -2.102218,2.19663 -3.023809,3.40179 -0.722019,0.94418 -1.25992,2.01587 -1.889879,3.02381 -0.629963,1.00793 -1.307156,1.98785 -1.889882,3.02381 -0.916149,1.6287 -1.940639,3.90665 -2.645833,5.66964 -0.05885,0.14711 -1.796439,4.68429 -1.889882,5.29166 -0.134107,0.87169 0,1.76389 0,2.64584 0,2.00795 -0.144992,2.99614 0.377976,4.91369 0.433115,1.58808 1.71015,3.95497 2.645833,5.29166 0.462637,0.66091 0.91226,1.3502 1.511906,1.88989 1.879716,1.69174 2.556616,1.5944 4.913691,2.26785 0.881943,0.25199 1.746408,0.57607 2.645833,0.75596 3.806759,0.76135 6.886842,0.16816 10.583333,-0.75596 1.39364,-0.34841 2.807695,-0.643 4.157737,-1.13393 2.240936,-0.81488 5.466413,-2.52389 7.559524,-3.77976 1.540325,-0.92419 5.666258,-3.49942 7.181548,-4.91369 0.979112,-0.91384 1.731994,-2.04469 2.645833,-3.02381 0.354352,-0.37966 5.534652,-5.50572 5.669643,-5.66964 0.866349,-1.052 1.527508,-2.25761 2.267857,-3.40179 2.267651,-3.50455 1.699345,-2.53429 3.401784,-6.42559 0.0862,-0.19708 1.7074,-3.92744 1.88988,-4.53572 0.18461,-0.61534 0.26306,-1.2578 0.37798,-1.88988 0.46083,-2.53455 0.37797,-1.65299 0.37797,-3.77976 0,-0.25198 0.0494,-0.50886 0,-0.75595 -0.0781,-0.39069 -0.29983,-0.74325 -0.37797,-1.13393 -0.0494,-0.24709 0.11269,-0.53057 0,-0.75595 -0.17943,-0.35885 -1.05049,-1.06801 -1.51191,-1.13393 -2.860688,-0.40867 -5.861539,1.04089 -8.315473,2.26786 -4.031133,2.01556 -5.032539,2.70604 -8.693451,5.66964 -1.179193,0.95458 -2.274102,2.00889 -3.401785,3.02381 -3.702392,3.33215 -5.052563,4.39998 -8.315476,8.31548 -1.209873,1.45184 -2.286725,3.00984 -3.401788,4.53571 -2.78139,3.80611 -4.315213,5.76895 -6.425594,9.82738 -0.832249,1.60048 -1.656831,3.21639 -2.267857,4.91369 -0.527873,1.46631 -0.713727,3.035 -1.133928,4.53572 -0.46206,1.6502 -1.14787,3.23912 -1.511905,4.91369 -0.268981,1.2373 -0.257929,2.51926 -0.377976,3.77976 -0.503452,5.28623 -0.377976,3.0168 -0.377976,8.31547 0,1.00794 -0.133212,2.02472 0,3.02381 0.121224,0.90919 0.486206,1.76916 0.755952,2.64584 0.53772,1.74759 0.761365,2.70679 1.889881,4.15773 1.181061,1.51851 1.975467,1.89405 3.779761,2.64584 0.73555,0.30648 1.483868,0.61341 2.267857,0.75595 0.6198,0.11269 1.262097,0.0523 1.889882,0 0.88782,-0.074 1.795489,-0.11224 2.645833,-0.37798 4.683842,-1.4637 7.906396,-5.05665 10.961309,-8.69345 1.442824,-1.71765 2.853889,-3.46628 4.157737,-5.29166 3.489134,-4.88479 3.287099,-5.04318 5.669645,-10.20536 0.755952,-1.6379 1.511903,-3.27579 2.267855,-4.91369 0.755954,-1.6379 1.587241,-3.24309 2.267857,-4.91369 1.999756,-4.90849 1.979512,-5.80556 3.401788,-10.96131 2.895262,-10.49534 0.261387,0.20496 2.645832,-11.71726 0.80647,-4.03235 1.5119,-5.09191 1.5119,-9.07143 0,-3.34876 -0.64072,-5.02742 -1.13392,-8.31548 -0.88506,-5.9004 0.4088,-1.05378 -1.51191,-6.04762 -0.64131,-1.66741 -0.66586,-2.78071 -1.88988,-4.15774 -0.836256,-0.94078 -2.679984,-2.03484 -3.779761,-2.64583 -0.492549,-0.27364 -0.961869,-0.63372 -1.511906,-0.75595 -0.614958,-0.13666 -1.259919,0 -1.889879,0 -1.13393,0 -2.294861,-0.24598 -3.401788,0 -2.224264,0.49428 -5.901057,3.07613 -7.559521,4.15774 -1.52201,0.99261 -3.160506,1.83612 -4.535715,3.02381 -1.343065,1.15991 -7.014485,7.98059 -7.9375,9.07142 -1.385914,1.6379 -2.899341,3.17591 -4.157739,4.9137 -3.480631,4.80658 -4.006615,6.53373 -6.425594,11.71726 -2.083507,4.46465 -3.260209,6.70953 -4.913691,11.33928 -0.576371,1.61384 -1.140156,3.24082 -1.511906,4.91369 -0.386524,1.73937 -0.494832,3.52911 -0.755951,5.29167 -0.338799,2.2869 -1.133928,6.62426 -1.133928,9.07143 0,1.14091 0.251984,2.26786 0.377976,3.40178 0.125992,1.13393 0.142936,2.28535 0.377976,3.40179 0.303598,1.4421 1.422585,4.94637 2.267857,6.42559 1.544532,2.70294 1.649648,2.41492 3.779761,4.15774 2.158071,1.7657 2.504855,2.41821 5.291667,3.40179 2.481606,0.87586 4.219032,0.87902 6.803572,0.75595 1.515427,-0.0722 3.043039,-0.10658 4.535715,-0.37798 2.502159,-0.45493 5.748496,-1.88172 7.9375,-3.0238 4.503552,-2.34968 4.683744,-2.58883 8.315476,-6.04763 3.100853,-2.95319 5.361601,-5.25891 7.937499,-8.69345 1.09025,-1.45366 2.071482,-2.98818 3.02381,-4.53571 2.89888,-4.71067 5.86236,-10.21697 7.55952,-15.49702 0.96321,-2.99666 1.414,-6.73411 1.88988,-9.82738 0.25199,-1.6379 0.61834,-3.26225 0.75596,-4.9137 0.17506,-2.10081 -0.0503,-6.24029 -0.37798,-8.31547 -0.16204,-1.02625 -0.51799,-2.01247 -0.75595,-3.02381 -0.4784,-2.0332 -0.82172,-4.55631 -1.88988,-6.4256 -0.48822,-0.85437 -1.26676,-1.50626 -1.88988,-2.26785 -0.51086,-0.62439 -0.97594,-1.28692 -1.51191,-1.88988 -1.70022,-1.91275 -3.53081,-3.43866 -6.047618,-4.15774 -2.11542,-0.60441 -3.886033,-0.39302 -6.047618,0 -1.653831,0.30069 -3.332112,0.56456 -4.913691,1.13393 -3.614251,1.30113 -6.828105,3.76816 -9.827381,6.04762 -4.821132,3.66405 -4.006049,3.26895 -8.315476,7.9375 -1.632672,1.76872 -3.490233,3.35058 -4.913691,5.29166 -1.713161,2.33613 -4.868264,8.93736 -6.047618,11.71726 -2.644159,6.23266 -2.590043,6.37662 -4.157739,12.47322 -0.646856,2.51556 -1.431015,5.00298 -1.889879,7.55952 -0.425244,2.36922 -0.544386,4.78379 -0.755955,7.18155 -0.33751,3.82513 -0.607052,8.69346 -0.377975,12.47321 0.115339,1.90312 0.420788,3.79273 0.755951,5.66964 0.295495,1.65477 0.602369,3.31901 1.13393,4.9137 0.606859,1.82057 1.494981,3.53512 2.267858,5.29166 0.613116,1.39345 1.127119,2.84024 1.889879,4.15774 1.049999,1.81363 3.722428,4.79223 5.291666,6.04762 0.793192,0.63455 1.749558,1.03389 2.645834,1.51191 0.99433,0.5303 1.954733,1.15554 3.023811,1.5119 5.901325,1.96711 12.356955,0.33596 17.764879,-2.26786 1.480108,-0.71264 2.783655,-1.74557 4.157739,-2.64583 2.279881,-1.49372 4.655712,-2.8577 6.80357,-4.53571 1.896835,-1.48191 3.468526,-3.34202 5.291664,-4.9137 13.27652,-10.62121 -0.61765,0.8364 9.44941,-8.31547 1.45624,-1.32386 3.07287,-2.4632 4.53571,-3.77976 4.66349,-4.19715 1.47343,-1.85141 6.04762,-6.4256 0.27916,-0.27916 4.39131,-3.75144 4.91369,-4.15774 0.0794,-0.0617 1.33929,-0.78869 1.51191,-1.13393 0.0563,-0.11269 -0.0891,-0.28888 0,-0.37797 0.0891,-0.0891 0.32163,-0.11269 0.37797,0 0.11269,0.22538 0.0861,0.51914 0,0.75595 -0.42406,1.16617 -0.9919,2.27512 -1.5119,3.40179 -0.99199,2.1493 -2.04427,4.27059 -3.02381,6.42559 -0.91051,2.00313 -1.7402,4.04228 -2.64583,6.04762 -3.83507,8.49194 -1.55071,2.77895 -4.91369,11.33929 -0.64167,1.63334 -1.43367,3.21916 -1.88989,4.91369 -0.43081,1.60018 -0.41796,3.29135 -0.75595,4.91369 -0.29298,1.40633 -0.93983,2.73438 -1.13393,4.15774 -0.18725,1.3732 0,2.77182 0,4.15773 0,2.34431 -0.14254,3.41406 0.37798,5.66964 0.40203,1.74214 1.22125,3.47461 2.26786,4.9137 0.4192,0.5764 1.00793,1.00793 1.5119,1.5119 1.37454,1.37454 1.74603,2.06477 3.77976,2.64583 0.29083,0.0831 6.35543,0.75596 6.4256,0.75596 0.8909,0 1.79251,-0.12198 2.64583,-0.37798 4.16561,-1.24968 5.56873,-2.09906 9.07143,-4.53571 1.55141,-1.07925 3.093,-2.18104 4.53571,-3.40179 1.83753,-1.55483 3.62331,-3.17859 5.29167,-4.91369 3.2145,-3.34308 5.27818,-6.42633 7.9375,-10.20536 1.14645,-1.62916 2.43944,-3.16944 3.40179,-4.91369 1.06294,-1.92658 1.76389,-4.03174 2.64583,-6.04762 3.20303,-7.3212 2.27811,-4.80608 4.91369,-12.47321 1.45841,-4.24266 2.67873,-7.6123 3.40179,-12.09524 0.38354,-2.37799 0.4809,-7.73515 0.37797,-10.20536 -0.0579,-1.39042 -0.18995,-2.77887 -0.37797,-4.15773 -0.32086,-2.35291 -0.74101,-5.02742 -1.88988,-7.18155 -0.51004,-0.95632 -1.25993,-1.76389 -1.88989,-2.64583 -0.62996,-0.88195 -1.16484,-1.84024 -1.88988,-2.64584 -0.88454,-0.98282 -3.05766,-1.99284 -4.15773,-2.26785 -4.07984,-1.01996 -4.42081,-0.10403 -8.69346,1.88988 -6.5799,3.07062 -5.64725,2.43685 -10.96131,7.18154 -1.61298,1.44017 -8.00365,7.39771 -9.82738,9.44941 -1.72561,1.94131 -3.34386,3.9783 -4.91369,6.04762 -1.204,1.58709 -2.40147,3.19093 -3.40178,4.91369 -1.27319,2.19271 -2.26786,4.53571 -3.40179,6.80357 -1.13393,2.26786 -2.41153,4.4694 -3.40178,6.80357 -0.77802,1.8339 -1.31216,3.76315 -1.88989,5.66964 -0.68259,2.25258 -1.40147,4.50108 -1.88988,6.80358 -0.66858,3.1519 -1.01696,7.32064 -0.75595,10.58333 0.12223,1.52787 0.48176,3.02768 0.75595,4.53571 0.22985,1.26415 0.3315,2.56703 0.75596,3.77976 0.46609,1.3317 2.79323,5.54799 3.77976,6.80357 0.6605,0.84064 1.5119,1.51191 2.26785,2.26786 2.51655,2.51654 2.02071,2.56345 5.66965,3.77976 1.54622,0.51541 5.61601,1.202 7.18154,1.13393 4.93132,-0.2144 9.39055,-2.10306 13.60715,-4.53571 2.55475,-1.4739 6.54984,-4.37942 8.69345,-6.4256 2.75428,-2.62909 5.14072,-5.76542 7.55952,-8.69345 1.25342,-1.5173 2.61858,-2.94672 3.77977,-4.53571 3.0161,-4.12731 4.1885,-6.70531 6.42559,-11.33929 1.30457,-2.70232 3.64728,-7.8193 4.53572,-10.58333 0.51438,-1.60031 0.76928,-3.27278 1.13392,-4.91369 0.39133,-1.76098 0.919,-3.50059 1.13393,-5.29167 0.23612,-1.96765 -0.0778,-5.93646 -0.37797,-7.9375 -0.1906,-1.27065 -0.34964,-2.56082 -0.75596,-3.77976 -0.35636,-1.06908 -1.00793,-2.01587 -1.5119,-3.02381 -0.9317,-1.8634 -1.6814,-3.93993 -3.40179,-5.29167 -1.01998,-0.80142 -2.25536,-1.28295 -3.40178,-1.88988 -0.99595,-0.52726 -1.93401,-1.22511 -3.02381,-1.5119 -3.16135,-0.83194 -6.32783,-0.2001 -9.44941,0.37797 -1.65284,0.30609 -3.35698,0.49972 -4.91369,1.13393 -1.88141,0.7665 -3.54393,1.98812 -5.29166,3.02381 -3.4783,2.06121 -6.8226,4.04919 -9.82738,6.80357 -1.51191,1.38592 -2.77481,3.02108 -4.15774,4.53572 -1.26291,1.38319 -2.63777,2.67315 -3.77976,4.15774 -2.10512,2.73665 -4.91957,7.33958 -6.4256,10.58333 -0.85716,1.84618 -1.56714,3.75859 -2.26786,5.66964 -0.68579,1.87034 -1.42245,3.73315 -1.88988,5.66964 -0.41808,1.73206 -0.55918,3.52077 -0.75595,5.29167 -0.45045,4.05406 -0.55572,5.18136 0,9.07143 0.2575,1.80246 1.16114,5.89384 1.88988,7.55952 0.36416,0.83237 0.95796,1.54773 1.51191,2.26786 2.01562,2.62031 4.46645,5.09999 7.55952,6.42559 1.94693,0.8344 4.82287,1.13393 6.80357,1.13393 1.01578,0 2.01587,-0.25198 3.02381,-0.37797 3.95306,-0.49413 3.08329,-0.18465 7.55952,-1.88988 1.15959,-0.44175 2.34297,-0.86485 3.40179,-1.51191 1.22576,-0.74908 2.27428,-1.75569 3.40179,-2.64583 1.26639,-0.99979 2.57382,-1.95187 3.77976,-3.02381 3.56542,-3.16927 6.77587,-7.40762 9.4494,-11.33929 2.48433,-3.65342 4.54916,-6.7656 6.04762,-10.96131 0.56536,-1.58301 0.73951,-3.27967 1.13393,-4.91369 0.48756,-2.0199 1.1703,-3.99797 1.5119,-6.04761 0.29073,-1.74433 0.25631,-3.52748 0.37798,-5.29167 0.13032,-1.88959 0.37798,-3.77557 0.37798,-5.66964 0,-1.89408 -0.24303,-3.78039 -0.37798,-5.66965 -0.11704,-1.63856 -0.12819,-3.29006 -0.37798,-4.91369 -0.42972,-2.7932 -1.60977,-6.80169 -2.64583,-9.4494 -1.94691,-4.97544 -1.58605,-3.65911 -4.91369,-7.9375 -0.77352,-0.99452 -1.41328,-2.09802 -2.26786,-3.02381 -2.09322,-2.26766 -6.06691,-4.3414 -9.07143,-4.91369 -4.38567,-0.83537 -5.77611,-0.38862 -10.20535,1.13393 -2.19053,0.75299 -4.38001,1.55911 -6.4256,2.64583 -3.30829,1.75753 -8.55788,5.94613 -11.33928,8.31548 -5.1514,4.38822 -4.59335,4.04996 -8.69346,9.82738 -2.74231,3.86416 -5.3082,7.34613 -7.18154,11.71726 -1.05166,2.45386 -1.7573,5.042 -2.64584,7.55952 -0.62337,1.76623 -1.47733,3.46466 -1.88988,5.29167 -0.47502,2.10367 -0.50396,4.28373 -0.75595,6.42559 -0.25198,2.14187 -0.6841,4.27016 -0.75595,6.4256 -0.0513,1.54053 0.82887,9.40669 1.13393,10.58333 0.41105,1.58548 1.29303,3.01044 1.88988,4.53572 0.53738,1.3733 0.90674,2.81292 1.5119,4.15774 1.42655,3.17011 2.90857,4.87853 5.29167,7.55952 0.82863,0.93221 1.68304,1.85294 2.64583,2.64583 3.24186,2.66977 7.01268,4.6656 10.96131,6.04762 1.24155,0.43454 2.48558,0.89862 3.77976,1.13393 3.9477,0.71776 4.32505,0.36124 7.9375,0 1.38473,-0.13847 2.80767,-0.0405 4.15774,-0.37798 1.20383,-0.30095 2.3279,-0.89018 3.40179,-1.5119 4.67636,-2.70737 8.22738,-6.7258 10.96131,-11.33929 1.00537,-1.69657 1.79031,-3.51481 2.64583,-5.29166 0.78257,-1.62535 1.57812,-3.24683 2.26786,-4.9137 1.543,-3.72893 3.06422,-8.20719 4.15774,-12.09523 1.02613,-3.64847 2.00515,-7.5301 2.26785,-11.33929 0.13003,-1.8854 0,-3.77976 0,-5.66964 0,-2.83613 0.13465,-8.09061 -0.37797,-10.96131 -0.0982,-0.55013 -2.73278,-9.50688 -3.02381,-10.20536 -0.60719,-1.45724 -1.53534,-2.7593 -2.26786,-4.15774 -0.65362,-1.24781 -1.14844,-2.58205 -1.88988,-3.77976 -2.29075,-3.70044 -3.18198,-4.51033 -6.4256,-7.18154 -0.97257,-0.80095 -1.90773,-1.68325 -3.02381,-2.26786 -1.7905,-0.93788 -7.27655,-2.80653 -9.4494,-3.02381 -2.2566,-0.22566 -4.53682,-0.0708 -6.80357,0 -1.76752,0.0552 -3.55181,0.0616 -5.29167,0.37798 -4.50363,0.81884 -7.71662,1.92232 -11.71726,3.77976 -2.04423,0.9491 -4.09855,1.89209 -6.04762,3.02381 -4.02778,2.33871 -8.0521,5.40626 -11.33929,8.69345 -1.64273,1.64273 -3.12449,3.44623 -4.53571,5.29167 -4.222187,5.52132 -5.444239,7.48669 -8.315476,13.22916 -1.310558,2.62112 -2.583045,5.26249 -3.779761,7.9375 -1.810536,4.04708 -3.616661,8.48568 -4.535715,12.85119 -0.550603,2.61537 -0.830453,5.28209 -1.133927,7.9375 -0.447972,3.91975 -0.559964,6.66358 0,10.58334 0.656092,4.59264 2.138502,9.23381 4.535712,13.22916 0.79126,1.31877 1.723078,2.54942 2.645833,3.77976 0.590418,0.78723 1.166815,1.60041 1.889882,2.26786 0.925796,0.85458 1.975493,1.56898 3.023809,2.26786 2.601693,1.73446 6.312077,3.24492 9.449403,3.40178 1.26463,0.0632 2.52223,-0.23003 3.77976,-0.37797 0.8848,-0.1041 1.78154,-0.1619 2.64584,-0.37798 2.01951,-0.50488 5.19257,-1.68131 6.80357,-3.02381 1.30217,-1.08514 2.29866,-2.49278 3.40178,-3.77976 3.59027,-4.18864 3.56882,-4.1981 6.4256,-9.07143 1.16968,-1.99534 2.42011,-3.95338 3.40179,-6.04762 1.90974,-4.07411 2.52416,-6.71949 3.40178,-10.96131 0.60844,-2.94079 1.67798,-8.64472 1.88988,-11.71726 0.27543,-3.99368 -0.0288,-6.65655 -0.75595,-10.58333 -0.22733,-1.22756 -1.59182,-7.19114 -2.26786,-8.69345 -1.09241,-2.42758 -3.23761,-5.14632 -4.91369,-7.18155 -1.49695,-1.81773 -3.28878,-3.95641 -5.29166,-5.29167 -1.31354,-0.87569 -2.74573,-1.56185 -4.15774,-2.26786 -3.69215,-1.84607 -3.31256,-1.56003 -7.55953,-2.26785 -1.63461,-0.27244 -3.26275,-0.61239 -4.91369,-0.75596 -2.53876,-0.22076 -6.346429,0.0988 -8.69345,0.75596 -1.577234,0.44162 -3.048568,1.2035 -4.535712,1.88988 -3.655626,1.68721 -6.024668,2.79886 -9.07143,5.29166 -1.587389,1.29878 -3.014821,2.7817 -4.535715,4.15774 -1.125016,1.01787 -2.393847,1.88988 -3.401785,3.02381 -2.681779,3.017 -3.016366,4.60151 -4.535715,8.31548 -1.879401,4.59409 -1.425448,3.18986 -2.645833,8.31547 -0.764953,3.21281 -1.103918,4.07986 -0.755952,7.55953 0.237001,2.37001 1.189429,4.56212 1.889882,6.80357 0.777761,2.48884 0.585758,3.10494 2.267857,5.29167 0.651828,0.84737 1.479781,1.54545 2.267858,2.26785 1.388594,1.27288 2.905323,2.45073 4.535712,3.40179 2.030336,1.18436 2.88222,1.43811 5.291667,1.88988 0.998384,0.1872 2.008029,0.37798 3.023809,0.37798 0.766382,0 1.51039,-0.26145 2.267858,-0.37798 2.192699,-0.33734 3.646823,-0.29821 5.669642,-1.5119 1.053306,-0.63199 4.551275,-4.07458 5.291667,-4.91369 4.13716,-4.68879 7.56555,-10.03194 9.82738,-15.875 0.66223,-1.71078 1.09506,-3.50519 1.51191,-5.29167 1.029,-4.41002 1.35925,-6.91237 1.5119,-11.33929 0.0651,-1.88876 0,-3.77976 0,-5.66964 0,-5.32381 0.20609,-6.13739 -0.75595,-11.71726 -0.26479,-1.53578 -0.69757,-3.03962 -1.13393,-4.53572 -0.44623,-1.52994 -0.89094,-3.06798 -1.5119,-4.53571 -1.38872,-3.28242 -2.84183,-5.88163 -4.9137,-8.69345 -0.95711,-1.29895 -1.85078,-2.67191 -3.0238,-3.77976 -0.868775,-0.82051 -5.47797,-3.76826 -6.803577,-4.53572 -1.366226,-0.79097 -2.660073,-1.76864 -4.157737,-2.26786 -1.572127,-0.52404 -3.267445,-0.566 -4.91369,-0.75595 -1.631908,-0.1883 -3.272002,-0.43661 -4.913691,-0.37797 -3.440494,0.12287 -6.904712,0.97935 -10.205358,1.88988 -2.152194,0.5937 -4.400618,0.94971 -6.425594,1.88988 -1.554321,0.72165 -2.767031,2.0225 -4.157739,3.02381 -6.996514,5.03749 -3.677391,2.02974 -9.071427,7.9375 -2.320195,2.54116 -5.797047,6.01646 -7.559524,9.07143 -0.958996,1.66225 -1.578957,3.50052 -2.267858,5.29166 -0.684712,1.78026 -2.694011,8.17839 -3.023809,9.82738 -0.27292,1.36461 -0.271243,2.77021 -0.377976,4.15774 -0.145269,1.8885 -0.377975,3.77557 -0.377975,5.66964 0,1.26621 0.190145,2.52757 0.377975,3.77977 0.424392,2.82928 1.029343,5.32285 2.267858,7.9375 0.767397,1.62006 3.074366,4.6934 4.157736,6.04761 0.725641,0.90705 1.517539,1.75909 2.267858,2.64584 0.635627,0.75119 1.109916,1.66788 1.889882,2.26786 0.893212,0.68708 2.015873,1.00793 3.023809,1.5119 1.007935,0.50397 1.954731,1.15555 3.023809,1.5119 0.84518,0.28173 1.774711,0.19131 2.645833,0.37798 5.143037,1.10208 -0.03753,0.75595 6.425597,0.75595 0.881943,0 1.783463,0.18479 2.645833,0 0.938226,-0.20105 1.776325,-0.72816 2.645833,-1.13393 2.186004,-1.02013 5.121275,-2.47544 6.80357,-4.15773 1.105472,-1.10547 5.145186,-7.7844 5.669643,-8.69346 2.300552,-3.98762 3.388661,-6.16075 4.91369,-10.58333 1.428817,-4.14356 2.00002,-7.32574 2.645834,-11.71726 0.313777,-2.13369 0.625485,-4.27291 0.755951,-6.4256 0.121952,-2.01218 0,-4.03174 0,-6.04762 0,-4.75177 0.25004,-7.40061 -0.755951,-12.09523 -0.349824,-1.63251 -2.830476,-8.07826 -3.401785,-9.44941 -0.585526,-1.40526 -1.180844,-2.81057 -1.889882,-4.15774 -0.852813,-1.62034 -2.983828,-4.6931 -4.157736,-6.04761 -0.81687,-0.94254 -1.731852,-1.79714 -2.645834,-2.64584 -0.851207,-0.7904 -1.668729,-1.63972 -2.645833,-2.26786 -0.807135,-0.51887 -1.754936,-0.77756 -2.645833,-1.13392 -0.999485,-0.3998 -1.963714,-0.94686 -3.023812,-1.13393 -1.116674,-0.19706 -2.274792,-0.12522 -3.401785,0 -3.309657,0.36774 -4.601673,1.19276 -7.559524,3.02381 -3.066711,1.89844 -4.805632,3.29656 -7.181546,6.04762 -3.401533,3.93861 -4.161615,5.29941 -6.425596,9.82738 -0.93268,1.86536 -1.967865,3.69737 -2.645834,5.66964 -0.71529,2.08085 -1.080378,4.26797 -1.511903,6.4256 -0.855213,4.27606 -1.001363,7.20999 -1.13393,11.71726 -0.05926,2.015 -0.129786,4.03592 0,6.04762 0.231267,3.58464 1.260401,8.73704 2.267858,12.09523 0.504256,1.68086 1.227775,3.28853 1.889881,4.91369 0.724054,1.77723 1.409629,3.57522 2.267858,5.29167 1.324885,2.64977 3.996729,6.66662 5.669642,9.07143 2.420506,3.47948 3.20942,4.56365 6.047618,7.55952 1.225421,1.2935 2.416845,2.63205 3.779761,3.77977 1.544788,1.30087 5.005342,3.2113 6.803572,4.15773 1.246527,0.65607 2.471878,1.36673 3.779761,1.88988 3.044397,1.21776 6.919333,1.8578 10.205358,1.51191 1.54955,-0.16311 5.725818,-1.1192 7.181548,-1.88988 2.648254,-1.40202 4.962139,-4.29341 6.803572,-6.4256 1.170424,-1.35523 2.47246,-2.62708 3.401785,-4.15774 1.228514,-2.02343 1.916237,-4.33351 3.023814,-6.42559 1.16268,-2.19617 2.69268,-4.19104 3.77976,-6.4256 2.37657,-4.88516 3.47256,-8.8611 4.91369,-13.98511 0.52956,-1.88288 1.15145,-3.74723 1.5119,-5.66965 0.7238,-3.86024 0.91071,-8.9448 1.13393,-12.85119 0.48859,-8.55024 0.52093,-4.77676 0,-12.85119 -0.20922,-3.2429 -0.42519,-8.14994 -1.13393,-11.33928 -0.34572,-1.55574 -0.93116,-3.05161 -1.5119,-4.53572 -1.2334,-3.15201 -2.51447,-5.57235 -4.53572,-8.31547 -0.79448,-1.07823 -1.73199,-2.0447 -2.64583,-3.02381 -2.528685,-2.70931 -2.631309,-2.92804 -6.04762,-4.53572 -2.160936,-1.01691 -5.23408,-1.88988 -7.559524,-1.88988 -1.532757,0 -3.022203,0.51379 -4.535712,0.75595 -1.636355,0.26182 -3.341566,0.23191 -4.913691,0.75596 -4.63642,1.54547 -5.259795,2.90939 -9.07143,5.29166 -1.72276,1.07673 -3.794093,1.65103 -5.291666,3.02381 -1.597891,1.46474 -2.513193,3.53255 -3.779761,5.29167 -1.483209,2.06001 -5.201356,7.06017 -6.425594,9.07143 -0.732417,1.20325 -1.306986,2.49738 -1.889882,3.77976 -0.677767,1.49109 -1.431271,2.96333 -1.889881,4.53571 -0.497965,1.70732 -1.05913,6.82352 -1.133928,8.69346 -0.161898,4.04746 -0.0999,8.64517 1.511903,12.47321 0.461248,1.09546 1.216502,2.04435 1.889882,3.02381 2.133489,3.10326 2.03526,2.79121 4.535715,5.29167 3.383756,3.38375 1.854695,2.20062 6.047618,4.91368 0.997919,0.64572 1.934858,1.41347 3.023809,1.88989 0.951849,0.41643 2.005029,0.55219 3.023809,0.75595 3.56629,0.71326 4.547593,0.92545 7.9375,0.75595 2.173129,-0.10865 5.806935,-0.46112 7.9375,-1.13393 1.18328,-0.37366 2.291911,-0.95696 3.401788,-1.5119 2.414947,-1.20748 5.168439,-2.64843 7.181545,-4.53572 2.466539,-2.31238 3.754433,-4.42843 5.66964,-7.18154 1.13763,-1.63534 2.35773,-3.2171 3.40179,-4.9137 1.2708,-2.06504 4.02904,-7.52728 4.91369,-9.82737 0.61517,-1.59946 1.12657,-3.2439 1.5119,-4.91369 0.61211,-2.65247 0.90442,-6.31728 1.13393,-9.07143 0.50353,-6.04225 0.50592,-3.63138 0,-9.44941 -0.46338,-5.32889 -0.17167,-3.02308 -1.13393,-8.31547 -0.25198,-1.38592 -0.36896,-2.80331 -0.75595,-4.15774 -0.37279,-1.30477 -0.96078,-2.53974 -1.5119,-3.77976 -1.33709,-3.00845 -1.66118,-3.39939 -3.77976,-6.04762 -0.72564,-0.90705 -1.44649,-1.82447 -2.26786,-2.64584 -0.57045,-0.57045 -1.2655,-1.00104 -1.88988,-1.5119 -0.7616,-0.62313 -1.413481,-1.40167 -2.26786,-1.88988 -0.934644,-0.53409 -2.002573,-0.79352 -3.02381,-1.13393 -0.870167,-0.29006 -1.735679,-0.64218 -2.645833,-0.75595 -2.215166,-0.2769 -5.510125,0.14113 -7.559524,0.75595 -1.188545,0.35656 -2.291911,0.95697 -3.401785,1.5119 -3.430503,1.71525 -5.115975,2.63612 -7.9375,5.29167 -0.975288,0.91792 -1.79442,1.98995 -2.645833,3.02381 -0.913212,1.1089 -1.874594,2.18984 -2.645833,3.40179 -1.851245,2.9091 -3.003863,5.52029 -4.157737,8.69345 -1.11284,3.0603 -1.97327,5.45299 -2.267857,8.69345 -0.125476,1.38022 -0.06921,2.77356 0,4.15774 0.05697,1.13948 0.05605,2.30724 0.377975,3.40178 0.317974,1.08112 1.032071,2.00417 1.511904,3.02381 0.93758,1.99235 1.514268,4.00915 3.023811,5.66965 0.996561,1.09621 4.071943,3.24613 5.291667,3.77976 0.951846,0.41643 2.019932,0.48825 3.023809,0.75595 0.886264,0.23634 1.734206,0.65466 2.645833,0.75595 2.662905,0.29588 5.375786,-0.002 7.9375,-0.75595 0.920536,-0.27075 1.769007,-0.74423 2.645834,-1.13393 4.433284,-1.97035 3.661055,-1.34134 7.181545,-4.15774 0.90705,-0.72563 1.76389,-1.5119 2.645834,-2.26785 0.881946,-0.75596 1.85138,-1.42044 2.64583,-2.26786 1.10353,-1.1771 2.02403,-2.51337 3.02381,-3.77976 1.36002,-1.72269 3.55218,-4.34923 4.53572,-6.4256 1.34789,-2.84555 1.51993,-4.33943 2.26785,-7.18154 0.36559,-1.38924 0.85221,-2.74911 1.13393,-4.15774 0.63222,-3.16111 0.59362,-7.4174 0,-10.58334 -0.16903,-0.90152 -0.51961,-1.75956 -0.75595,-2.64583 -0.2677,-1.00388 -0.31659,-2.08232 -0.75595,-3.02381 -0.45833,-0.98214 -1.22027,-1.7936 -1.88988,-2.64583 -1.4694,-1.87015 -2.94032,-3.54751 -4.91369,-4.91369 -0.6949,-0.48109 -1.50047,-0.77975 -2.26786,-1.13393 -2.267705,-1.04663 -3.459415,-1.58539 -6.04762,-1.88988 -3.336967,-0.39259 -7.63066,0.86922 -10.583333,2.26785 -2.528223,1.19758 -4.410146,3.01022 -6.425594,4.9137 -2.752108,2.59921 -4.148172,3.90068 -6.047618,7.18154 -0.621726,1.07389 -1.023101,2.26124 -1.511906,3.40179 -0.6452,1.50546 -1.393264,2.97492 -1.889882,4.53571 -0.705405,2.21699 -1.133927,6.5562 -1.133927,8.69346 0,1.39162 0.239503,2.77301 0.377976,4.15773 0.113525,1.13525 0.101266,2.29495 0.377976,3.40179 0.867637,3.47054 1.57699,4.36141 3.401785,7.18155 1.366234,2.11145 2.986624,4.73941 4.91369,6.42559 1.025623,0.89742 2.238923,1.55722 3.401788,2.26786 4.72309,2.88633 9.56801,4.76299 15.119045,5.29167 2.116582,0.20157 7.03287,-0.23358 8.69345,-0.37798 2.64967,-0.23041 4.68344,-0.38776 7.18155,-1.51191 3.22452,-1.45103 5.93819,-3.86544 8.31548,-6.42559 0.91133,-0.98144 1.87347,-1.92964 2.64583,-3.02381 1.52308,-2.15769 2.85849,-5.58315 3.77976,-7.9375 0.53738,-1.3733 1.17034,-2.72314 1.51191,-4.15774 0.0682,-0.28658 0.75595,-7.87984 0.75595,-7.9375 0,-2.14686 -0.64072,-6.244 -1.13393,-8.31547 -0.30467,-1.27963 -0.75595,-2.51984 -1.13393,-3.77977 -0.37797,-1.25992 -0.69938,-2.53821 -1.13393,-3.77976 -0.8925,-2.55001 -2.09109,-5.20028 -3.40178,-7.55952 -0.57724,-1.03903 -1.24417,-2.02589 -1.88988,-3.02381 -1.94572,-3.00701 -2.23222,-3.74922 -4.91369,-6.04762 -2.08516,-1.78728 -3.4534,-2.39292 -6.04762,-3.40179 -3.12888,-1.21678 -3.24301,-1.33284 -6.4256,-1.13392 -2.19514,0.13719 -4.43085,0.51453 -6.425594,1.5119 -0.969401,0.4847 -1.7936,1.22027 -2.645833,1.88988 -0.913379,0.71766 -1.913342,1.36633 -2.645833,2.26786 -0.786641,0.96817 -4.028427,6.9652 -4.535713,7.9375 -0.781904,1.49865 -1.695299,2.94527 -2.267857,4.53571 -0.569368,1.58158 -0.816488,3.263 -1.13393,4.91369 -1.005004,5.22604 -0.755952,4.54784 -0.755952,9.82738 0,1.38592 -0.165124,2.7817 0,4.15774 0.214929,1.79108 0.728297,3.53393 1.13393,5.29167 0.350428,1.51852 0.641107,3.05725 1.133928,4.53571 1.025451,3.07636 2.174173,5.208 3.77976,7.9375 0.60265,1.0245 1.167863,2.07963 1.889882,3.02381 0.921591,1.20516 1.986172,2.29497 3.023809,3.40179 1.697808,1.81099 3.505623,3.64073 5.669643,4.91369 2.03624,1.19779 4.935,2.05463 7.18155,2.64583 1.12334,0.29562 2.24596,0.64037 3.40178,0.75595 1.37904,0.13791 2.77183,0 4.15774,0 1.25992,0 2.5261,0.12537 3.77976,0 2.4769,-0.24769 6.11517,-1.36773 8.31548,-2.26785 3.40817,-1.39426 4.53329,-2.37412 7.55952,-4.53572 1.39448,-0.99605 2.87276,-1.89 4.15774,-3.02381 0.871,-0.76853 1.52943,-1.74916 2.26786,-2.64583 3.1497,-3.82464 2.91488,-3.40016 5.29167,-7.55952 0.78324,-1.37068 1.64598,-2.70671 2.26785,-4.15774 0.99769,-2.32795 1.21356,-4.03883 1.51191,-6.4256 0.23323,-1.86586 0.60418,-4.50281 0.37797,-6.42559 -0.13572,-1.15364 -0.47422,-2.27488 -0.75595,-3.40179 -0.22246,-0.88985 -0.39463,-1.80276 -0.75595,-2.64583 -0.37039,-0.86424 -2.37263,-4.09972 -3.02381,-4.91369 -0.44523,-0.55654 -1.00794,-1.00794 -1.51191,-1.51191 -0.62996,-0.62996 -1.14861,-1.3957 -1.88988,-1.88988 -0.79837,-0.53225 -1.7876,-0.70481 -2.64583,-1.13393 -0.65709,-0.32854 -1.22108,-0.82992 -1.88988,-1.13392 -0.72542,-0.32974 -1.51191,-0.50397 -2.26786,-0.75596 -0.75595,-0.25198 -1.48387,-0.61341 -2.26786,-0.75595 -0.61979,-0.11269 -1.25991,0 -1.88988,0 -0.75595,0 -1.51501,-0.0684 -2.26785,0 -0.98066,0.0891 -2.95629,0.58495 -3.77976,1.13393 -1.31887,0.87924 -1.87967,2.08835 -2.64584,3.40178 -0.63503,1.08864 -2.6507,4.55033 -3.02381,5.66965 -1.02775,3.08325 -0.75595,4.71203 -0.75595,7.9375 0,1.00793 -0.0912,2.02001 0,3.02381 0.16132,1.77448 0.39255,3.54732 0.75595,5.29166 0.40881,1.96225 1.7957,5.77425 2.64584,7.55953 0.67872,1.42532 1.48461,2.78706 2.26785,4.15774 1.98582,3.47517 2.36415,4.12209 4.91369,7.18154 0.97126,1.16551 1.917,2.36415 3.02381,3.40179 0.91916,0.86171 1.9945,1.54128 3.02381,2.26786 2.22157,1.56816 3.93411,2.75385 6.4256,3.77976 2.20083,0.90622 4.47303,1.4529 6.80357,1.88988 2.27999,0.4275 3.64933,0.51905 6.04762,0.37797 1.01403,-0.0597 2.01694,-0.24372 3.02381,-0.37797 0.88308,-0.11775 1.81431,-0.0582 2.64583,-0.37798 1.69901,-0.65346 3.83102,-2.99773 4.91369,-4.15774 1.97752,-2.11877 3.49612,-3.87396 4.91369,-6.42559 1.35926,-2.44667 2.31896,-5.69746 3.02381,-8.31548 0.437,-1.62314 0.86835,-3.25385 1.13393,-4.91369 0.23969,-1.49809 0.24062,-3.0248 0.37798,-4.53571 0.11463,-1.26101 0.43547,-2.51487 0.37797,-3.77976 -0.0256,-0.56396 -1.24463,-7.42456 -1.5119,-8.31548 -1.11756,-3.72518 -3.16763,-7.24843 -5.66965,-10.20536 -0.57547,-0.6801 -1.25992,-1.25992 -1.88988,-1.88988 -0.75595,-0.75595 -1.44657,-1.58345 -2.26785,-2.26785 -2.3115,-1.92625 -2.3251,-1.47678 -5.29167,-2.26786 -3.38313,-0.90217 -2.16499,-0.9603 -6.04762,-0.75595 -1.26445,0.0666 -2.54371,0.10329 -3.77976,0.37797 -2.38049,0.529 -4.05015,1.69216 -6.04762,3.02381 -3.16893,2.11262 -4.58669,2.88065 -6.80357,6.04762 -0.90531,1.2933 -1.51596,2.76962 -2.26786,4.15774 -0.886,1.6357 -1.86628,3.22466 -2.64583,4.91369 -0.73539,1.59335 -1.29966,3.26106 -1.88988,4.91369 -0.67002,1.87605 -1.36012,3.74926 -1.88988,5.66964 -0.95506,3.46209 -1.67723,8.20846 -1.88988,11.71726 -0.32354,5.33835 0.0396,6.52352 0.75595,11.71727 0.24346,1.76508 0.38261,3.54942 0.75595,5.29166 0.38437,1.79375 0.96817,3.53963 1.5119,5.29167 0.45855,1.47753 2.61389,7.93642 3.40179,9.82738 0.97332,2.33597 3.11588,6.84025 4.53571,9.07143 0.24424,0.38379 4.58402,6.31059 5.29167,7.18154 0.84456,1.03947 1.66672,2.10998 2.64583,3.02382 2.05177,1.91498 3.57268,2.62478 6.04762,3.77976 2.99298,1.39672 5.29073,2.31522 8.69346,1.88988 2.16661,-0.27083 4.28563,-1.50055 6.04761,-2.64583 1.43683,-0.93394 2.88699,-1.87409 4.15774,-3.02381 3.1926,-2.88855 5.63482,-6.6362 7.9375,-10.20536 2.42117,-3.75281 4.41304,-7.17854 6.04762,-11.33929 1.51617,-3.85934 1.80995,-6.08419 2.26786,-10.20535 0.18141,-1.63269 0.31232,-3.27227 0.37798,-4.91369 0.19108,-4.77713 -0.0169,-10.53483 -2.64584,-14.74108 -0.61564,-0.98502 -1.44649,-1.82446 -2.26786,-2.64583 -2.26873,-2.26873 -5.18462,-3.83997 -8.31547,-4.53571 -1.11374,-0.2475 -2.26088,-0.37798 -3.40179,-0.37798 -1.81076,0 -6.27197,1.00808 -7.55952,1.51191 -3.09426,1.21079 -5.45963,3.15169 -7.9375,5.29166 -1.55225,1.34058 -3.21089,2.59203 -4.53572,4.15774 -1.46716,1.73392 -2.5515,3.75903 -3.77976,5.66964 -1.03998,1.61775 -2.09476,3.22979 -3.02381,4.91369 -2.1129,3.82963 -3.83152,7.60231 -5.29166,11.71726 -0.70628,1.99042 -1.39229,3.99506 -1.88988,6.04762 -1.43565,5.92204 -1.71413,12.07632 -1.51191,18.14286 0.10732,3.21957 0.47336,7.03462 1.13393,10.20536 0.29299,1.40633 0.61046,2.81998 1.13393,4.15773 0.61596,1.57414 1.48352,3.03834 2.26786,4.53572 1.57393,3.00479 1.66165,3.35898 3.77976,5.66964 0.7224,0.78808 1.42048,1.61603 2.26785,2.26786 0.80514,0.61933 1.78074,0.97954 2.64584,1.51191 0.77377,0.47616 1.44075,1.13594 2.26785,1.5119 0.58486,0.26584 1.25619,0.27236 1.88989,0.37797 2.63441,0.43907 2.23908,0.57416 4.53571,0 0.88985,-0.22246 1.83823,-0.32109 2.64583,-0.75595 0.86641,-0.46653 1.51667,-1.25425 2.26786,-1.88988 0.88674,-0.75032 1.9074,-1.37119 2.64583,-2.26785 1.7637,-2.14163 4.24122,-7.1061 5.29167,-9.44941 1.04019,-2.32042 3.90168,-9.84089 4.53571,-12.09524 1.30137,-4.62706 1.35467,-7.59883 1.51191,-12.47321 0.0705,-2.18681 0.0549,-7.66315 -0.37798,-9.82738 -0.40294,-2.01474 -2.1731,-6.51971 -3.40178,-8.31548 -0.85671,-1.25211 -2.02476,-2.26002 -3.02381,-3.40178 -0.76492,-0.87419 -1.39006,-1.88508 -2.26786,-2.64584 -1.02986,-0.89254 -2.20767,-1.61109 -3.40178,-2.26785 -3.26928,-1.79811 -5.26242,-2.50476 -9.07143,-2.64584 -1.76718,-0.0654 -3.53987,0.13635 -5.29167,0.37798 -6.62029,0.91314 -12.3207,3.21337 -18.14286,6.42559 -3.06698,1.69213 -7.26453,4.44576 -9.82738,6.80357 -1.64041,1.50918 -2.99343,3.30436 -4.53571,4.9137 -1.35612,1.41507 -2.91968,2.63829 -4.15774,4.15773 -1.54528,1.89648 -2.78412,4.02335 -4.15774,6.04762 -1.02029,1.50359 -2.18737,2.92259 -3.02381,4.53572 -0.93696,1.80699 -1.56091,3.76089 -2.26785,5.66964 -0.553516,1.49448 -1.111953,2.99303 -1.51191,4.53571 -0.815925,3.14714 -1.386118,6.55697 -1.511904,9.82738 -0.07263,1.88849 -0.144946,3.78533 0,5.66965 0.154874,2.01338 1.260362,6.42691 1.889882,8.31547 0.429112,1.28734 0.832012,2.6054 1.511902,3.77977 1.83807,3.17483 3.40896,3.95185 6.04762,6.42559 0.90992,0.85305 1.64803,1.89748 2.64583,2.64583 1.97094,1.47821 4.93512,2.52818 7.18155,3.40179 1.00328,0.39016 1.97042,0.91216 3.02381,1.13393 1.36178,0.28669 2.76755,0.31478 4.15774,0.37797 3.83401,0.17428 8.09425,-0.13171 11.71726,-1.5119 1.21219,-0.46179 2.33123,-1.15739 3.40179,-1.88988 3.38738,-2.31768 4.50313,-3.67876 7.18154,-6.80357 1.8737,-2.18598 5.12673,-6.09571 6.4256,-8.69345 0.83763,-1.67528 1.2772,-3.52171 1.88988,-5.29167 1.09077,-3.15111 2.37723,-6.97246 3.02381,-10.20536 1.05172,-5.2586 0.96734,-10.57071 0.37798,-15.875 -0.36063,-3.24563 -0.76965,-6.36875 -1.88989,-9.4494 -0.52025,-1.43072 -1.26515,-2.76946 -1.88988,-4.15774 -0.50921,-1.13158 -0.71037,-2.45452 -1.5119,-3.40179 -2.01496,-2.38132 -4.39312,-4.44558 -6.80357,-6.42559 -2.5759,-2.11592 -5.49338,-3.04128 -8.69345,-3.77976 -1.61473,-0.37263 -3.25653,-0.75596 -4.9137,-0.75596 -2.03156,0 -4.03511,0.47837 -6.04761,0.75596 -1.64163,0.22643 -3.3162,0.31526 -4.91369,0.75595 -2.07544,0.57253 -4.04866,1.46827 -6.04762,2.26786 -1.7818,0.71271 -3.59692,1.36752 -5.29167,2.26785 -2.34715,1.24693 -4.61563,2.64882 -6.80357,4.15774 -2.93924,2.02706 -7.278459,6.25114 -9.449407,8.69345 -2.921318,3.28649 -4.586999,6.08692 -6.80357,9.82738 -2.057995,3.47287 -4.24879,6.99838 -5.291667,10.96131 -0.748545,2.84447 -1.195768,5.76918 -1.511905,8.69346 -0.374968,3.46845 -0.206944,5.2663 0.755954,8.31547 0.444077,1.40625 0.825069,2.85275 1.511903,4.15774 0.586804,1.11493 1.466916,2.05124 2.267858,3.02381 2.883307,3.50116 4.978283,5.51295 9.071427,7.55952 0.962832,0.48142 1.9973,0.80977 3.023812,1.13393 4.375845,1.38185 4.556565,1.29917 9.449405,1.5119 3.12677,0.13595 5.10481,-0.0262 8.31547,-0.75595 1.16555,-0.26489 2.26786,-0.75595 3.40179,-1.13392 1.13393,-0.37798 2.3118,-0.64344 3.40179,-1.13393 1.43962,-0.64784 2.80403,-1.45564 4.15773,-2.26786 3.43747,-2.06248 6.70436,-4.66002 9.07143,-7.9375 1.12521,-1.55798 3.92585,-6.68916 4.53572,-8.31548 0.5472,-1.45921 0.78349,-3.01719 1.13392,-4.53571 0.71405,-3.0942 1.66231,-7.39724 1.88989,-10.58334 0.30447,-4.26266 -0.0178,-6.07193 -0.75596,-10.20535 -0.3388,-1.8973 -0.5864,-3.82175 -1.13393,-5.66965 -1.04037,-3.51124 -2.49624,-5.70222 -4.53571,-8.69345 -0.96538,-1.41588 -1.87742,-2.88397 -3.02381,-4.15773 -1.13393,-1.25993 -2.48824,-2.304 -3.77976,-3.40179 -2.08758,-1.77445 -5.4474,-4.47439 -7.9375,-5.66964 -1.68856,-0.81051 -3.50149,-1.33906 -5.29167,-1.88989 -3.82279,-1.17624 -6.86987,-1.61711 -10.96131,-1.88987 -3.4911,-0.23274 -6.778163,0.0216 -10.205353,0.75595 -1.793753,0.38437 -3.596584,0.81049 -5.291666,1.5119 -1.979121,0.81895 -3.797316,1.98363 -5.669643,3.02381 -4.224798,2.34711 -5.852427,3.2066 -9.449406,6.80357 -1.266205,1.26621 -2.267857,2.77183 -3.401785,4.15774 -1.13393,1.38591 -2.421837,2.65899 -3.401787,4.15774 -1.429716,2.18662 -4.417491,8.33879 -5.291667,10.96131 -1.386514,4.15954 -1.217403,6.16581 -1.511903,10.58333 -0.125992,1.88988 -0.44808,3.77687 -0.377976,5.66965 0.09806,2.64778 1.227704,6.67907 2.267858,9.07142 0.629457,1.44776 1.561851,2.74573 2.267855,4.15774 2.102643,4.20529 1.187788,4.04287 4.535715,7.18155 1.159899,1.0874 4.814887,3.77773 6.425596,4.53571 1.081498,0.50894 2.252509,0.80557 3.401785,1.13393 2.307392,0.65926 5.428433,1.51191 7.9375,1.51191 1.01578,0 2.017342,-0.24074 3.023809,-0.37798 1.278988,-0.17441 6.502564,-0.74858 8.315476,-1.51191 1.454965,-0.61261 2.809232,-1.44702 4.157742,-2.26785 2.91958,-1.77714 5.58094,-3.56014 7.9375,-6.04762 2.65487,-2.80237 4.86305,-6.1391 6.80357,-9.4494 1.08318,-1.84779 2.19549,-3.69443 3.02381,-5.66965 0.81677,-1.94769 1.30103,-4.01935 1.88988,-6.04762 1.41989,-4.89073 1.82197,-6.28593 2.26786,-11.33928 0.32755,-3.7123 0.65555,-8.29305 0,-12.09524 -0.45857,-2.65967 -2.1123,-8.22676 -3.02381,-10.96131 -0.5923,-1.77689 -1.02577,-3.6299 -1.88989,-5.29167 -0.79061,-1.5204 -2.01587,-2.77182 -3.0238,-4.15773 -1.00794,-1.38592 -1.87742,-2.88398 -3.02381,-4.15774 -1.92875,-2.14305 -5.80154,-5.11398 -8.31548,-6.4256 -1.30745,-0.68214 -2.73766,-1.11428 -4.15774,-1.5119 -3.129832,-0.87636 -7.306602,-1.62113 -10.583332,-1.51191 -2.030434,0.0677 -4.043698,0.42197 -6.047618,0.75596 -1.779389,0.29656 -3.586279,0.54586 -5.291667,1.13392 -3.636663,1.25402 -7.869983,3.80908 -10.961309,6.04762 -1.960245,1.41949 -3.958283,2.82436 -5.669642,4.53572 -1.33635,1.33635 -2.249506,3.03775 -3.401788,4.53571 -1.367718,1.77804 -2.941624,3.40669 -4.157736,5.29167 -2.176545,3.37364 -3.738989,6.79818 -4.913691,10.58333 -0.697643,2.24796 -1.442622,4.49273 -1.889882,6.80357 -0.350337,1.81008 -0.530783,7.99369 -0.377976,9.82738 0.188868,2.26641 1.534854,7.6169 2.267858,9.44941 0.586306,1.46576 1.464738,2.79861 2.267857,4.15773 1.825279,3.08894 3.064529,5.09914 5.669643,7.55953 3.812667,3.60085 3.537238,2.65151 7.9375,5.29167 1.168601,0.70116 2.172345,1.67986 3.401785,2.26785 1.689703,0.80812 3.543503,1.21751 5.291666,1.88988 1.528726,0.58797 2.958478,1.44826 4.535715,1.88989 1.595792,0.44682 3.269321,0.5504 4.913691,0.75595 1.380882,0.17261 2.76611,0.37797 4.157737,0.37797 2.810806,0 5.218175,-0.56144 7.937499,-1.13392 1.136674,-0.2393 2.30541,-0.37223 3.401788,-0.75596 1.436902,-0.50291 2.796092,-1.20905 4.157732,-1.88988 1.79047,-0.89523 4.28017,-2.17652 5.66965,-3.77976 1.00723,-1.1622 1.76389,-2.51984 2.64583,-3.77976 0.88195,-1.25992 1.91335,-2.42748 2.64583,-3.77976 0.91402,-1.68741 1.60135,-3.49208 2.26786,-5.29167 1.45147,-3.91896 1.99033,-6.76607 2.64583,-10.96131 0.89719,-5.74197 0.93941,-7.17517 0.75596,-13.22917 -0.0536,-1.76757 -0.10498,-3.54448 -0.37798,-5.29166 -0.35865,-2.29533 -0.96456,-4.54579 -1.5119,-6.80357 -0.46082,-1.90087 -0.85406,-3.82767 -1.51191,-5.66965 -0.60673,-1.69884 -1.5119,-3.27579 -2.26786,-4.91369 -0.75595,-1.63789 -1.38021,-3.34325 -2.26785,-4.91369 -1.88921,-3.34244 -4.31498,-5.73556 -7.18155,-8.31547 -1.66385,-1.49747 -5.204213,-3.81669 -7.181548,-4.53572 -1.323824,-0.48139 -2.766795,-0.5334 -4.157739,-0.75595 -1.759418,-0.28151 -3.50987,-0.75595 -5.291667,-0.75595 -3.398268,0 -8.313533,1.47457 -11.339284,2.64583 -3.497424,1.35384 -8.832591,4.15907 -11.717261,6.4256 -2.875116,2.25901 -7.016819,7.38026 -9.07143,10.20535 -1.603134,2.20431 -3.263506,4.39307 -4.535712,6.80357 -1.135769,2.15199 -1.753966,4.5396 -2.645834,6.80358 -0.746048,1.89381 -1.657572,3.72782 -2.267857,5.66964 -1.012407,3.22129 -2.530144,9.52713 -2.645834,13.22916 -0.06702,2.14452 0.127286,4.29473 0.377976,6.4256 0.504476,4.28806 1.224905,7.36069 2.645834,11.33929 2.225762,6.23213 1.641922,4.88949 5.291666,9.82738 1.123328,1.51979 2.10203,3.16374 3.401785,4.53571 2.317975,2.44675 5.741805,3.93883 8.693452,5.29167 1.23358,0.56539 2.487345,1.09833 3.779763,1.5119 5.10146,1.63247 11.261958,2.83758 16.630951,2.64584 1.632797,-0.0583 10.112264,-2.13791 10.583334,-2.26786 3.649935,-1.00688 8.125125,-2.87322 11.339285,-4.53572 2.75325,-1.42409 8.25892,-5.60942 10.20536,-7.18154 1.31865,-1.06507 2.63684,-2.15002 3.77976,-3.40179 1.51254,-1.65659 2.80196,-3.50451 4.15774,-5.29167 3.22977,-4.25742 5.27445,-6.86148 7.55952,-11.71726 1.0361,-2.2017 1.80463,-4.52029 2.64583,-6.80357 2.57644,-6.99318 2.79492,-7.35432 4.15774,-14.36309 0.43884,-2.25688 0.95298,-4.51157 1.13393,-6.80358 0.19832,-2.51202 0.0741,-5.04077 0,-7.55952 -0.052,-1.76762 -0.0521,-3.55357 -0.37798,-5.29167 -0.84264,-4.4941 -2.01839,-7.33618 -3.77976,-11.33928 -0.75631,-1.7189 -3.30578,-7.38028 -4.53571,-9.07143 -0.5473,-0.75254 -5.64511,-6.22752 -6.80357,-7.18155 -3.5097,-2.89034 -8.03908,-4.52716 -12.47322,-5.29166 -4.86076,-0.83807 -6.4372,-1.002 -10.96131,-0.37798 -4.026908,0.55543 -8.03144,1.1809 -11.717258,3.02381 -2.126244,1.06312 -4.080531,2.44495 -6.047618,3.77976 -3.742862,2.5398 -7.548335,5.79363 -10.583333,9.07143 -1.284002,1.38672 -2.293353,3.00502 -3.401788,4.53571 -1.729692,2.38863 -6.317186,8.56364 -7.559521,11.71727 -0.907278,2.30308 -1.366758,4.7621 -1.889882,7.18154 -0.868299,4.01588 -1.39804,7.99608 -1.511906,12.09524 -0.07696,2.77076 -0.250949,5.55503 0,8.31548 0.130059,1.43063 0.694338,2.79012 1.13393,4.15774 0.695055,2.16239 1.338747,4.35296 2.267858,6.42559 0.715983,1.5972 1.702305,3.06145 2.645833,4.53571 1.073854,1.6779 2.140305,3.37189 3.401785,4.9137 1.987304,2.42892 5.836303,5.56054 8.315476,7.18154 3.75617,2.45596 6.705414,3.39373 10.961309,4.91369 1.500843,0.53602 2.979978,1.16619 4.535715,1.51191 1.861203,0.4136 3.770003,0.59312 5.669642,0.75595 2.513768,0.21547 5.036538,0.37798 7.559528,0.37798 1.51714,0 3.03279,-0.17068 4.53571,-0.37798 5.2344,-0.72199 6.38508,-0.95093 10.96131,-2.64583 5.20395,-1.9274 5.24517,-1.8603 9.4494,-4.53572 1.64009,-1.04369 7.72916,-5.08332 9.07143,-6.42559 1.33635,-1.33635 2.26786,-3.02381 3.40179,-4.53572 2.53621,-3.38161 4.98102,-6.31725 6.80357,-10.20536 0.96404,-2.05661 1.5119,-4.28372 2.26786,-6.42559 0.75595,-2.14187 1.65994,-4.2371 2.26785,-6.42559 0.7825,-2.817 2.2404,-10.98493 2.64584,-13.98512 0.3611,-2.67213 1.21939,-11.16485 1.13393,-13.98512 -0.0577,-1.90573 -0.46162,-3.7859 -0.75596,-5.66964 -0.33576,-2.14889 -0.66914,-4.30088 -1.13393,-6.4256 -0.63587,-2.90688 -1.94175,-7.31989 -3.0238,-10.20536 -0.57511,-1.53361 -1.04719,-3.13123 -1.88989,-4.53571 -1.06316,-1.77194 -2.52742,-3.26999 -3.77976,-4.91369 -1.36468,-1.79115 -3.6145,-5.02796 -5.29166,-6.4256 -1.12876,-0.94062 -2.52603,-1.50168 -3.77977,-2.26785 -2.39498,-1.4636 -3.69266,-2.53876 -6.42559,-3.40179 -2.59564,-0.81968 -4.52119,-0.89597 -7.18155,-0.75595 -1.26445,0.0665 -2.55817,0.0448 -3.77976,0.37797 -1.58018,0.43096 -3.09552,1.10978 -4.53571,1.88988 -3.57632,1.93718 -6.65254,4.64106 -9.44941,7.55953 -1.36171,1.42091 -2.65952,2.91759 -3.77976,4.53571 -1.37243,1.9824 -4.66809,8.3491 -5.669644,10.58334 -0.83262,1.85737 -1.664546,3.72564 -2.267857,5.66964 -0.987774,3.18282 -1.511906,7.25465 -1.511906,10.58333 0,1.76839 -0.0056,3.5654 0.377978,5.29167 0.380683,1.71308 1.295472,3.26256 1.889879,4.91369 0.539814,1.49948 0.824302,3.09799 1.511906,4.53571 0.708766,1.48197 1.669405,2.83669 2.645834,4.15774 1.80957,2.44825 4.57632,5.73587 7.18155,7.55953 2.94844,2.0639 5.29327,2.74492 8.69345,3.77976 3.53191,1.07493 5.64406,1.58545 9.4494,1.88988 2.95179,0.23614 5.38581,-0.11165 8.31548,-0.37798 1.38591,-0.12599 2.79314,-0.10505 4.15774,-0.37797 1.17205,-0.23442 2.28262,-0.71425 3.40178,-1.13393 2.53667,-0.95125 5.23648,-2.21267 7.18155,-4.15774 2.17455,-2.17455 3.05212,-5.02694 3.77976,-7.9375 0.37968,-1.51873 1.46504,-7.52184 1.51191,-8.69345 0.0606,-1.51594 -0.25199,-3.02381 -0.37798,-4.53572 -0.73274,-8.79283 0.20157,-0.19667 -1.5119,-9.4494 -0.32445,-1.75201 -0.33787,-3.55962 -0.75596,-5.29167 -0.63391,-2.62624 -2.58218,-7.6106 -3.77976,-10.20536 -0.82642,-1.79057 -1.79245,-3.51378 -2.64583,-5.29166 -0.65878,-1.37245 -1.14079,-2.83242 -1.88988,-4.15774 -1.43217,-2.53384 -4.42054,-6.57046 -6.4256,-8.69345 -0.9196,-0.9737 -2.01954,-1.75972 -3.02381,-2.64584 -3.87648,-3.42042 -2.70466,-2.8045 -7.18154,-5.29166 -0.9851,-0.54728 -1.94443,-1.18809 -3.02381,-1.51191 -1.46812,-0.44043 -3.02562,-0.49333 -4.53572,-0.75595 -1.3878,-0.24136 -2.7491,-0.75595 -4.15774,-0.75595 -1.78179,0 -3.54942,0.38261 -5.29166,0.75595 -3.94576,0.84552 -7.43915,2.14507 -10.961312,4.15774 -2.79341,1.59623 -8.351594,6.02458 -10.583333,7.9375 -5.041906,4.32163 -5.312953,4.80998 -9.449403,10.20536 -1.870192,2.43937 -5.739956,7.59717 -7.181549,10.58333 -0.935995,1.93884 -1.532101,4.02428 -2.267857,6.04762 -2.184588,6.00761 -4.091657,11.32604 -4.535715,17.76488 -0.360545,5.22792 0.483095,10.47278 1.889882,15.49702 1.01297,3.61775 1.477922,4.89139 3.401784,7.9375 0.821243,1.3003 1.589855,2.66167 2.645834,3.77976 1.107858,1.17303 2.471742,2.07913 3.779763,3.02381 2.632345,1.90114 5.546447,3.27658 8.693452,4.15774 1.219308,0.34141 2.514655,0.32526 3.77976,0.37798 1.956787,0.0815 7.707167,0.0764 9.827382,-0.37798 3.743962,-0.80228 7.568272,-2.39336 10.961312,-4.15774 2.42578,-1.2614 6.63513,-3.81715 8.69345,-5.66964 1.25992,-1.13393 2.27154,-2.51654 3.40179,-3.77976 2.42538,-2.71073 4.423,-4.80845 6.42559,-7.9375 1.00278,-1.56684 1.8139,-3.24983 2.64583,-4.91369 1.51253,-3.02506 2.95472,-6.14921 3.77977,-9.44941 0.37174,-1.48699 0.48176,-3.02767 0.75595,-4.53571 0.22984,-1.26415 0.64925,-2.49933 0.75595,-3.77976 0.22432,-2.69185 -0.0173,-6.6841 -0.37798,-9.44941 -0.52966,-4.06074 -0.78607,-4.83014 -1.88988,-8.69345 -0.36136,-1.26479 -0.62348,-2.56745 -1.13392,-3.77976 -0.57669,-1.36964 -3.86681,-6.6995 -4.53572,-7.55953 -0.76574,-0.98452 -1.76389,-1.76389 -2.64583,-2.64583 -0.88195,-0.88194 -1.67189,-1.86668 -2.64584,-2.64583 -2.28192,-1.82554 -4.0809,-2.34297 -6.80357,-3.40179 -1.00328,-0.39016 -1.96469,-0.94136 -3.02381,-1.13393 -4.33134,-0.78751 -10.57461,-0.25489 -14.741068,1.13393 -2.415543,0.80518 -9.236964,4.50154 -10.961309,5.66965 -3.65157,2.47364 -8.212111,6.81189 -11.339285,9.82738 -1.667401,1.60785 -3.425184,3.13893 -4.913691,4.91369 -4.843187,5.77456 -8.675478,12.6147 -11.339287,19.65476 -1.526955,4.03552 -3.623884,10.78786 -4.535712,15.11905 -0.499269,2.37152 -0.800532,4.78108 -1.13393,7.18154 -0.296686,2.13613 -0.697685,4.26975 -0.755952,6.4256 -0.06817,2.52207 0.238027,5.04042 0.377976,7.55952 0.263604,4.74488 0.205711,7.14558 1.511906,11.71726 0.482097,1.68735 1.334942,3.24888 1.889879,4.91369 0.580112,1.74034 0.806339,3.59831 1.511906,5.29167 0.565118,1.35628 1.452832,2.55723 2.267857,3.77976 1.771253,2.65688 3.551317,5.1533 6.047618,7.18155 1.547995,1.25774 6.098022,3.53138 7.559524,4.15774 2.404584,1.03053 4.975916,1.56693 7.559524,1.88988 2.657909,0.33224 5.304751,0.65819 7.9375,0 1.242658,-0.31066 6.560019,-2.10549 7.9375,-3.02381 1.637525,-1.09168 3.058264,-2.47961 4.535714,-3.77976 1.67336,-1.47256 3.46824,-2.83889 4.91369,-4.53572 2.31972,-2.72315 5.98806,-9.51516 7.55952,-12.47321 1.47227,-2.77132 4.06425,-7.94105 4.91369,-10.96131 0.58887,-2.09373 0.83473,-4.27131 1.13393,-6.42559 0.98018,-7.05725 0.75596,-6.78049 0.75596,-13.60715 0,-7.82962 0.25004,-4.29881 -0.75596,-12.09524 -0.24399,-1.89093 -0.32271,-3.81291 -0.75595,-5.66964 -0.89439,-3.83308 -2.4731,-7.07366 -4.15774,-10.58333 -0.73147,-1.5239 -1.38896,-3.09181 -2.26785,-4.53572 -2.57704,-4.2337 -6.16418,-7.7545 -10.20536,-10.58333 -1.34578,-0.94205 -2.71559,-1.85921 -4.15774,-2.64583 -4.749173,-2.59046 -8.556104,-3.40179 -13.985119,-3.40179 -1.391626,0 -2.787779,0.13334 -4.157736,0.37798 -2.166094,0.3868 -4.365339,0.7393 -6.425597,1.5119 -2.005491,0.75206 -3.779761,2.01587 -5.669642,3.02381 -1.889882,1.00794 -3.926737,1.77888 -5.669643,3.02381 -1.813835,1.2956 -3.306934,2.99076 -4.91369,4.53572 -1.669693,1.60547 -3.383455,3.17478 -4.913691,4.91369 -2.933983,3.33407 -4.277334,5.93365 -6.425594,9.82738 -1.034688,1.87537 -2.17219,3.70436 -3.023809,5.66964 -1.033383,2.38473 -2.985511,9.2196 -3.401788,11.71726 -0.290719,1.74432 -0.319061,3.52427 -0.377976,5.29167 -0.168965,5.06894 -0.07976,7.08097 0.755952,12.09524 0.296566,1.77938 0.630976,3.55926 1.13393,5.29166 2.168557,7.46948 1.614413,4.74074 4.535715,10.58334 0.93268,1.86536 1.687687,3.81723 2.645833,5.66964 1.360906,2.63109 4.715473,8.20816 6.425594,10.58333 2.101763,2.91911 5.168371,6.07457 7.559524,8.69346 2.737327,2.99802 4.362839,5.08935 7.559524,7.55952 1.437831,1.11105 3.03439,2.00018 4.535713,3.02381 1.27068,0.86637 2.444467,1.8828 3.779763,2.64583 2.969477,1.69685 4.760973,2.08954 7.9375,3.02381 3.348247,0.98478 2.696803,0.90578 6.80357,1.13393 0.880589,0.0489 1.774145,0.1341 2.645833,0 2.19555,-0.33778 3.116302,-1.32775 4.913694,-2.64584 1.016,-0.74507 2.15872,-1.35187 3.02381,-2.26785 2.57613,-2.72768 4.90463,-6.85924 6.42559,-10.20536 1.00691,-2.2152 1.76389,-4.53571 2.64584,-6.80357 1.69595,-4.36102 3.83174,-9.41689 4.91369,-13.98512 0.55853,-2.35826 0.77442,-4.78485 1.13392,-7.18155 0.39647,-2.64312 0.86799,-5.27807 1.13393,-7.9375 0.51042,-5.10416 0.37798,-9.61322 0.37798,-14.74107 0,-2.51984 0.13601,-5.04335 0,-7.55952 -0.26474,-4.89774 -1.10966,-8.4516 -2.26786,-13.22917 -0.46081,-1.90086 -0.85782,-3.82632 -1.5119,-5.66964 -0.73582,-2.07368 -1.77907,-4.02517 -2.64584,-6.04762 -0.6452,-1.50546 -1.0896,-3.10664 -1.88988,-4.53571 -2.05956,-3.6778 -4.10081,-5.92079 -7.18154,-8.69346 -2.72457,-2.45211 -4.60187,-3.77546 -7.937504,-5.29166 -1.342517,-0.61024 -2.714037,-1.21114 -4.157739,-1.51191 -3.229766,-0.67287 -7.040872,-0.43866 -10.205357,0.37798 -5.387219,1.39025 -7.299143,2.49412 -11.717261,5.66964 -2.332969,1.67682 -4.700796,3.33391 -6.803572,5.29167 -2.763809,2.5732 -7.363471,9.3004 -9.071428,12.09524 -2.546765,4.16743 -4.720534,8.90202 -6.047618,13.60714 -0.697584,2.47325 -1.068932,5.02825 -1.511906,7.55952 -0.439229,2.50989 -0.909971,5.02136 -1.133927,7.55953 -0.401897,4.55482 0.359513,8.71174 1.133927,13.22916 0.721336,4.2078 1.652275,7.75171 3.401785,11.71727 0.978226,2.2173 2.176172,4.33484 3.401788,6.42559 0.918935,1.56759 1.908228,3.10139 3.023809,4.53571 3.306892,4.25172 5.489551,6.41372 9.449403,9.82739 2.596414,2.23828 7.997518,6.8137 11.339287,8.69345 2.026934,1.14015 9.737858,4.59207 12.473213,5.66964 4.703296,1.85281 8.616497,3.40158 13.60714,4.15774 2.80747,0.42537 9.73065,0.46939 12.47322,0.37797 4.0685,-0.13561 7.00972,-0.4877 10.96131,-1.88988 2.18603,-0.77569 9.04565,-4.26973 10.96131,-5.66964 1.65596,-1.21012 3.02631,-2.76909 4.53571,-4.15774 1.64041,-1.50918 3.49253,-2.81848 4.91369,-4.53571 1.62653,-1.96539 2.75804,-4.29272 4.15774,-6.4256 4.27543,-6.51493 4.43309,-6.00286 7.9375,-13.98512 1.88873,-4.3021 3.63138,-10.25298 4.91369,-14.74107 0.78929,-2.76252 1.63112,-5.51386 2.26786,-8.31547 1.79,-7.87601 2.83275,-17.28671 2.64583,-25.32441 -0.0472,-2.03101 -0.45459,-4.03853 -0.75595,-6.04762 -0.45474,-3.0316 -0.91071,-6.06544 -1.51191,-9.07142 -0.60467,-3.02335 -2.48214,-9.63068 -3.40178,-12.47322 -2.28771,-7.07109 -1.6026,-5.48018 -5.29167,-11.33928 -1.7951,-2.85105 -4.27288,-7.03923 -6.80357,-9.44941 -1.37987,-1.31416 -6.28256,-4.73789 -8.31548,-5.66964 -1.70268,-0.7804 -3.50777,-1.31904 -5.29166,-1.88988 -1.36819,-0.43782 -2.73068,-0.96927 -4.15774,-1.13393 -6.28951,-0.72571 -11.47967,0.9198 -17.00893,3.77976 -1.70821,0.88356 -3.35602,1.89584 -4.91369,3.02381 -2.10374,1.52339 -4.17905,3.10956 -6.04762,4.91369 -1.79913,1.73709 -3.31267,3.74842 -4.91369,5.66964 -3.56546,4.27856 -6.162483,7.41128 -8.693453,12.47322 -0.818779,1.63756 -5.324546,14.1103 -5.669642,15.11904 -2.021544,5.90913 -2.334657,7.06019 -3.023809,13.60715 -0.237776,2.25887 -0.511355,4.53613 -0.377976,6.80357 0.120438,2.04746 0.767035,4.0297 1.133927,6.04762 1.45896,8.02428 0.336979,4.50007 3.023809,11.33928 0.460928,1.17327 2.970096,7.86588 4.15774,9.44941 1.069078,1.42544 2.519841,2.51984 3.77976,3.77976 2.812513,2.81251 3.745024,4.14037 7.559524,6.04762 1.32196,0.66098 6.09281,1.69857 7.55952,1.88988 1.62894,0.21247 3.27265,0.45257 4.9137,0.37797 1.66781,-0.0758 6.33913,-1.6286 7.55952,-2.26785 3.29327,-1.72504 4.81765,-3.58892 7.18155,-6.4256 1.43607,-1.72329 2.84206,-3.47478 4.15773,-5.29166 4.20086,-5.80118 3.95141,-5.58082 6.4256,-12.47322 0.94229,-2.62495 1.93606,-5.24037 2.64583,-7.9375 0.55997,-2.12788 1.82056,-10.63296 1.88988,-12.85119 0.0615,-1.96703 -0.94164,-11.54366 -1.13392,-12.85119 -0.71764,-4.87992 -1.35858,-6.67662 -3.02381,-11.33928 -0.59023,-1.65263 -1.0612,-3.36681 -1.88989,-4.91369 -1.07258,-2.00216 -2.48688,-3.80216 -3.77976,-5.66965 -0.97544,-1.40897 -1.89534,-2.86806 -3.02381,-4.15773 -3.04298,-3.4777 -4.98016,-5.26083 -8.69345,-7.55953 -1.34229,-0.83094 -2.74573,-1.56185 -4.15774,-2.26786 -3.21776,-1.60887 -6.27871,-3.04555 -9.82738,-3.77976 -1.98943,-0.4116 -4.02161,-0.60587 -6.04762,-0.75595 -3.23385,-0.23954 -6.677896,0.14637 -9.827377,0.75595 -2.040054,0.39485 -4.082563,0.83642 -6.047618,1.51191 -2.08085,0.71529 -4.066948,1.68744 -6.047621,2.64583 -5.479963,2.6516 -6.054355,3.18792 -10.961309,6.80357 -1.285386,0.94713 -4.651621,3.82037 -5.291667,4.53572 -1.142672,1.2771 -1.975985,2.80173 -3.023809,4.15773 -1.094909,1.41695 -2.337419,2.71772 -3.401785,4.15774 -3.047439,4.12301 -5.251085,8.34992 -6.803572,13.22917 -2.071328,6.50988 -1.83892,9.18617 -2.267858,17.76488 -0.02593,0.51883 0.145659,1.04727 0.377976,1.5119 0.531561,1.06313 1.270082,2.0096 1.889882,3.02381 0.76617,1.25374 1.386274,2.60432 2.267857,3.77977 0.641448,0.85526 1.463294,1.56386 2.267858,2.26785 1.214271,1.06249 2.426943,2.14448 3.779761,3.02381 1.18106,0.76769 2.506725,1.28687 3.779763,1.88988 3.59895,1.70477 4.006413,1.89644 8.315476,2.64584 2.074047,0.3607 6.828165,0.61113 8.693451,0.37797 2.450886,-0.30636 5.672942,-1.71942 7.9375,-2.64583 1.515951,-0.62016 3.136625,-1.03826 4.535715,-1.88988 1.529599,-0.93106 2.771825,-2.26786 4.157737,-3.40179 1.38591,-1.13393 2.91876,-2.10893 4.15774,-3.40178 2.45926,-2.56618 6.16099,-7.74138 7.9375,-10.96131 1.95023,-3.5348 3.57152,-7.93478 4.91369,-11.71726 0.66618,-1.87742 1.43721,-3.72965 1.88988,-5.66965 1.00573,-4.31025 0.75595,-6.96737 0.75595,-11.33928 0,-4.19557 0.26727,-6.86842 -0.75595,-10.96131 -0.45427,-1.81709 -1.2772,-3.5217 -1.88988,-5.29167 -0.52131,-1.50601 -0.88412,-3.07088 -1.51191,-4.53571 -0.60958,-1.42236 -3.21076,-5.65368 -4.15773,-6.80357 -2.31521,-2.81133 -3.43656,-3.35759 -6.4256,-5.29167 -3.15563,-2.04188 -3.53148,-2.44273 -7.559524,-3.40179 -1.109879,-0.26425 -2.261954,-0.32841 -3.401785,-0.37797 -5.040537,-0.21916 -5.414166,-0.18778 -10.205357,1.13393 -2.035964,0.56164 -4.133749,0.99674 -6.047618,1.88988 -1.900198,0.88676 -3.527777,2.26785 -5.291667,3.40178 -3.890912,2.5013 -6.549186,3.90335 -9.827381,7.18155 -1.391627,1.39163 -2.483784,3.0546 -3.779761,4.53571 -1.350595,1.54354 -2.990287,2.8494 -4.157739,4.53572 -1.122532,1.62143 -1.78847,3.5157 -2.645834,5.29167 -2.937825,6.08549 -2.388049,4.61063 -4.157736,10.58333 -0.803452,2.71164 -2.154084,6.86924 -2.267858,9.82738 -0.09214,2.3956 0.516059,6.97793 1.133928,9.4494 0.289896,1.15958 0.739074,2.27363 1.13393,3.40179 1.160182,3.31481 1.341196,4.48693 3.401785,7.18155 2.368902,3.09779 2.70711,3.10473 5.291666,5.29166 0.886741,0.75032 1.670598,1.63683 2.645834,2.26786 1.709978,1.10646 5.106826,2.56276 7.181548,3.02381 1.113737,0.2475 2.262169,0.32371 3.401785,0.37798 1.998697,0.0952 5.808474,0.0951 7.9375,-0.37798 1.166802,-0.25929 2.273625,-0.73907 3.401785,-1.13393 1.391906,-0.48717 2.865583,-0.80122 4.157739,-1.5119 3.216,-1.7688 4.485658,-3.99768 6.80357,-6.80357 2.288153,-2.76987 4.846018,-5.40267 6.425596,-8.69346 0.810509,-1.68855 1.2772,-3.5217 1.889882,-5.29166 2.072462,-5.98713 1.289752,-3.2252 2.267852,-9.82738 0.24286,-1.63928 0.63354,-3.26106 0.75596,-4.91369 0.28096,-3.79299 -0.062,-5.81535 -0.37798,-9.44941 -0.13143,-1.51144 -0.10658,-3.04304 -0.37798,-4.53571 -0.26464,-1.45554 -1.944412,-6.29698 -2.64583,-7.55953 -0.611871,-1.10137 -1.480791,-2.03997 -2.267855,-3.02381 -1.196269,-1.49533 -2.825795,-3.50976 -4.535715,-4.53571 -2.725558,-1.63534 -4.100968,-1.68108 -7.181549,-2.26786 -1.383755,-0.26357 -2.75023,-0.81225 -4.157736,-0.75595 -2.516913,0.10067 -7.043478,1.61472 -9.449406,2.64583 -2.175777,0.93248 -4.414348,1.77545 -6.425594,3.02381 -1.672143,1.03788 -3.061647,2.47578 -4.535715,3.77976 -3.752487,3.31951 -6.853772,6.15044 -9.827381,10.20536 -1.405798,1.917 -2.46112,4.06966 -3.779761,6.04762 -3.774842,5.66226 -5.304317,6.6444 -7.9375,12.85119 -0.824847,1.94428 -1.239761,4.03816 -1.889882,6.04762 -0.735854,2.27446 -1.628047,4.50025 -2.267857,6.80357 -0.944674,3.40082 -1.914856,8.44756 -2.267858,12.09524 -0.206668,2.13559 -0.444992,4.28107 -0.377976,6.42559 0.130242,4.16769 0.868781,6.03473 1.889882,9.82739 0.508487,1.88867 1.003416,3.78097 1.511903,5.66964 0.373462,1.38713 0.622533,2.81532 1.13393,4.15773 1.968405,5.16707 6.286495,10.27666 10.961309,13.22917 1.334755,0.843 2.745727,1.56186 4.15774,2.26786 1.109874,0.55494 2.218504,1.13824 3.401784,1.5119 1.225233,0.38692 2.505681,0.58977 3.779761,0.75596 4.089747,0.53344 4.887301,0.49645 8.693454,0 1.643245,-0.21434 3.306001,-0.35403 4.913689,-0.75596 1.43067,-0.35766 2.784435,-0.97452 4.157739,-1.5119 3.90108,-1.52651 5.73777,-2.1598 9.071427,-4.91369 3.544599,-2.92815 6.831206,-7.39104 9.449406,-10.96131 2.875462,-3.92108 4.164438,-6.439 6.425591,-10.96131 2.18799,-4.37597 3.06694,-6.39176 4.53572,-10.96131 0.56136,-1.74647 1.16547,-3.4902 1.5119,-5.29167 0.70072,-3.64369 0.32531,-5.1151 0,-8.69345 -0.12599,-1.38591 0.004,-2.81965 -0.37797,-4.15774 -0.42353,-1.48236 -2.82915,-5.42085 -3.77977,-6.80357 -2.24629,-3.26733 -4.323769,-5.69476 -8.315471,-6.80357 -1.099283,-0.30535 -2.261868,-0.33048 -3.401785,-0.37797 -3.506825,-0.14612 -7.151344,-0.15925 -10.583333,0.75595 -4.299286,1.14647 -7.854826,2.79558 -11.717264,4.91369 -9.030776,4.95236 -3.840093,1.94016 -10.583333,7.55952 -1.587471,1.32289 -3.390416,2.38343 -4.913691,3.77976 -2.725679,2.49855 -5.423413,6.05575 -7.559521,9.07143 -2.686296,3.79242 -3.764724,5.49802 -5.669645,9.82738 -0.593918,1.34982 -1.167749,2.72376 -1.511903,4.15774 -0.591548,2.46478 -1.040376,8.05744 -1.13393,10.58333 -0.136422,3.68345 -0.08322,6.56893 0.755954,10.20536 0.610997,2.64765 2.509522,7.16298 3.779761,9.4494 1.018357,1.83305 2.290418,3.51348 3.401785,5.29167 0.778732,1.24597 1.378804,2.60996 2.267857,3.77976 1.496385,1.96893 5.6252,6.62456 7.9375,8.69346 1.721739,1.5405 7.97624,6.40661 9.449406,7.55952 5.089435,3.98304 2.138785,1.93668 9.071427,5.66964 1.389981,0.74845 2.724364,1.6063 4.157739,2.26786 4.034182,1.86193 5.80145,2.3953 9.827382,3.40178 5.782254,1.44557 3.630028,1.13393 9.071427,1.13393 3.679708,0 5.574938,0.293 9.071428,-0.75595 1.18854,-0.35656 2.2702,-1.00269 3.40179,-1.5119 3.23269,-1.45472 4.82976,-1.93982 7.55952,-4.15774 1.94027,-1.57647 4.54653,-4.77128 5.66964,-6.80357 1.82619,-3.30453 3.49713,-6.70562 4.91369,-10.20536 1.46844,-3.6279 1.77465,-7.51691 2.26786,-11.33928 0.34638,-2.68442 1.2217,-8.90842 1.13393,-11.71727 -0.0674,-2.15558 -0.47997,-4.28669 -0.75595,-6.42559 -0.35702,-2.76687 -0.95592,-7.50725 -1.88988,-10.20536 -0.8099,-2.33969 -3.2589,-6.837 -4.53572,-9.07143 -0.72898,-1.27571 -1.37532,-2.6126 -2.26786,-3.77976 -1.58733,-2.07574 -4.27013,-3.97444 -6.42559,-5.29167 -3.11401,-1.903 -7.69341,-3.18953 -11.33929,-3.0238 -1.40718,0.064 -2.81541,0.32884 -4.15773,0.75595 -1.450707,0.46158 -2.783257,1.23536 -4.157744,1.88988 -1.271799,0.60562 -2.571866,1.16514 -3.779761,1.88988 -2.85878,1.71527 -5.450472,3.82029 -7.559524,6.42559 -2.128694,2.62957 -4.262384,7.18613 -5.291666,10.20536 -1.927643,5.65443 -3.587721,11.05569 -3.779761,17.00893 -0.05701,1.76746 0.207637,3.53151 0.377976,5.29167 0.590436,6.10117 0.410554,5.51136 1.889882,10.58333 0.479829,1.64513 0.828616,3.34213 1.511903,4.91369 1.754494,4.03534 5.105635,7.05753 8.693451,9.44941 2.18567,1.45711 5.766118,3.54589 8.315479,4.15773 1.597374,0.38337 3.271925,0.32137 4.913685,0.37798 2.01468,0.0695 4.04732,0.25004 6.04762,0 3.18796,-0.3985 9.62272,-2.63956 12.47322,-3.77976 12.28006,-4.91203 5.59355,-2.32426 17.3869,-9.44941 3.08991,-1.86682 6.45509,-3.27508 9.44941,-5.29167 9.42759,-7.46351 5.86248,-5.04224 10.20535,-7.9375"
       id="path5055"
       inkscape:connector-curvature="0" />
  </g>
  <g
     inkscape:groupmode="layer"
     id="layer2"
     inkscape:label="Layer 2"
     transform="translate(0,-82)">
    <rect
       style="opacity:0;fill:#2f11f4;fill-opacity:1;stroke:#762c00;stroke-width:1.39999998;stroke-linecap:round;stroke-linejoin:round;stroke-miterlimit:4;stroke-dasharray:none;stroke-opacity:1;paint-order:stroke fill markers"
       id="rect5086"
       width="74.839287"
       height="108.47916"
       x="38.55357"
       y="103.09821"
       rx="0.39999971"
       ry="0.79999942" />
  </g>
</svg>
