<?xml version="1.0" encoding="UTF-8" standalone="no"?>
<svg
   xmlns:dc="http://purl.org/dc/elements/1.1/"
   xmlns:cc="http://creativecommons.org/ns#"
   xmlns:rdf="http://www.w3.org/1999/02/22-rdf-syntax-ns#"
   xmlns:svg="http://www.w3.org/2000/svg"
   xmlns="http://www.w3.org/2000/svg"
   xmlns:sodipodi="http://sodipodi.sourceforge.net/DTD/sodipodi-0.dtd"
   xmlns:inkscape="http://www.inkscape.org/namespaces/inkscape"
   width="215mm"
   height="215mm"
   viewBox="0 0 215 215"
   version="1.1"
   id="svg8"
   sodipodi:docname="homepage-icon-media.svg"
   inkscape:version="0.92.1 r15371">
  <sodipodi:namedview
     pagecolor="#ffffff"
     bordercolor="#666666"
     borderopacity="1"
     objecttolerance="10"
     gridtolerance="10"
     guidetolerance="10"
     inkscape:pageopacity="0"
     inkscape:pageshadow="2"
     inkscape:window-width="1920"
     inkscape:window-height="986"
     id="namedview9093"
     showgrid="false"
     inkscape:zoom="0.82144978"
     inkscape:cx="468.68337"
     inkscape:cy="406.29921"
     inkscape:window-x="-11"
     inkscape:window-y="-11"
     inkscape:window-maximized="1"
     inkscape:current-layer="svg8" />
  <defs
     id="defs2" />
  <metadata
     id="metadata5">
    <rdf:RDF>
      <cc:Work
         rdf:about="">
        <dc:format>image/svg+xml</dc:format>
        <dc:type
           rdf:resource="http://purl.org/dc/dcmitype/StillImage" />
        <dc:title />
      </cc:Work>
    </rdf:RDF>
  </metadata>
  <g
     id="g4858">
    <path
       id="circle4487-24"
       transform="scale(0.26458333)"
       d="M 254.63672 290.04688 C 200.66996 289.74614 145.74708 299.06805 92.222656 319.08984 L 100.3125 340.72656 C 324.868 256.72743 574.68638 370.52066 658.68555 595.07617 L 680.31445 586.98633 C 614.03541 409.80211 449.26202 297.99506 271.35156 290.44727 C 265.79186 290.2114 260.21949 290.07799 254.63672 290.04688 z M 254.19531 376.88281 C 210.4827 376.63943 165.99749 384.19048 122.64258 400.4082 L 129.19727 417.93359 C 311.08783 349.89408 513.439 442.07037 581.47852 623.96094 L 598.99609 617.40625 C 545.30991 473.88659 411.84228 383.32075 267.73438 377.20703 C 263.23101 377.01598 258.71731 376.90799 254.19531 376.88281 z M 250.12695 441.18555 C 215.21161 441.42083 179.75225 447.6847 145.16406 460.62305 L 150.90039 475.95508 C 300.7324 419.90763 467.40181 495.8321 523.44922 645.66406 L 538.78125 639.92773 C 494.4212 521.33969 384.1323 446.50448 265.05469 441.45117 C 260.09312 441.24062 255.11486 441.15193 250.12695 441.18555 z "
       style="color:#000000;font-style:normal;font-variant:normal;font-weight:normal;font-stretch:normal;font-size:medium;line-height:normal;font-family:sans-serif;font-variant-ligatures:normal;font-variant-position:normal;font-variant-caps:normal;font-variant-numeric:normal;font-variant-alternates:normal;font-feature-settings:normal;text-indent:0;text-align:start;text-decoration:none;text-decoration-line:none;text-decoration-style:solid;text-decoration-color:#000000;letter-spacing:normal;word-spacing:normal;text-transform:none;writing-mode:lr-tb;direction:ltr;text-orientation:mixed;dominant-baseline:auto;baseline-shift:baseline;text-anchor:start;white-space:normal;shape-padding:0;clip-rule:nonzero;display:inline;overflow:visible;visibility:visible;opacity:1;isolation:auto;mix-blend-mode:normal;color-interpolation:sRGB;color-interpolation-filters:linearRGB;solid-color:#000000;solid-opacity:1;vector-effect:none;fill:#000005;fill-opacity:0.98823529;fill-rule:nonzero;stroke:none;stroke-width:16.36833;stroke-linecap:butt;stroke-linejoin:miter;stroke-miterlimit:4;stroke-dasharray:none;stroke-dashoffset:0;stroke-opacity:1;color-rendering:auto;image-rendering:auto;shape-rendering:auto;text-rendering:auto;enable-background:accumulate" />
    <path
       id="circle4487-5-3"
       transform="scale(0.26458333)"
       d="M 313.10352 166.93359 L 297.4082 171.57812 C 345.32471 333.45294 515.61349 425.94971 677.48828 378.0332 L 672.83789 362.33984 C 519.44534 407.74551 358.50917 320.32613 313.10352 166.93359 z M 253.70117 184.51758 L 235.76367 189.82617 C 293.75399 385.73312 499.82157 497.67004 695.72852 439.67969 L 690.41992 421.74219 C 504.20702 476.86301 308.82199 370.73048 253.70117 184.51758 z M 174.65625 207.91016 L 152.50977 214.4668 C 224.10256 456.32649 478.51727 594.52639 720.37695 522.93359 L 713.82227 500.78711 C 483.93049 568.83728 242.70642 437.80191 174.65625 207.91016 z "
       style="color:#000000;font-style:normal;font-variant:normal;font-weight:normal;font-stretch:normal;font-size:medium;line-height:normal;font-family:sans-serif;font-variant-ligatures:normal;font-variant-position:normal;font-variant-caps:normal;font-variant-numeric:normal;font-variant-alternates:normal;font-feature-settings:normal;text-indent:0;text-align:start;text-decoration:none;text-decoration-line:none;text-decoration-style:solid;text-decoration-color:#000000;letter-spacing:normal;word-spacing:normal;text-transform:none;writing-mode:lr-tb;direction:ltr;text-orientation:mixed;dominant-baseline:auto;baseline-shift:baseline;text-anchor:start;white-space:normal;shape-padding:0;clip-rule:nonzero;display:inline;overflow:visible;visibility:visible;opacity:1;isolation:auto;mix-blend-mode:normal;color-interpolation:sRGB;color-interpolation-filters:linearRGB;solid-color:#000000;solid-opacity:1;vector-effect:none;fill:#000005;fill-opacity:0.98823529;fill-rule:nonzero;stroke:none;stroke-width:16.36833;stroke-linecap:butt;stroke-linejoin:miter;stroke-miterlimit:4;stroke-dasharray:none;stroke-dashoffset:0;stroke-opacity:1;color-rendering:auto;image-rendering:auto;shape-rendering:auto;text-rendering:auto;enable-background:accumulate" />
  </g>
  <path
     style="color:#000000;font-style:normal;font-variant:normal;font-weight:normal;font-stretch:normal;font-size:medium;line-height:normal;font-family:sans-serif;font-variant-ligatures:normal;font-variant-position:normal;font-variant-caps:normal;font-variant-numeric:normal;font-variant-alternates:normal;font-feature-settings:normal;text-indent:0;text-align:start;text-decoration:none;text-decoration-line:none;text-decoration-style:solid;text-decoration-color:#000000;letter-spacing:normal;word-spacing:normal;text-transform:none;writing-mode:lr-tb;direction:ltr;text-orientation:mixed;dominant-baseline:auto;baseline-shift:baseline;text-anchor:start;white-space:normal;shape-padding:0;clip-rule:nonzero;display:inline;overflow:visible;visibility:visible;opacity:1;isolation:auto;mix-blend-mode:normal;color-interpolation:sRGB;color-interpolation-filters:linearRGB;solid-color:#000000;solid-opacity:1;vector-effect:none;fill:#d8eb4c;fill-opacity:0.98823529;fill-rule:nonzero;stroke:none;stroke-width:4.33078718;stroke-linecap:butt;stroke-linejoin:miter;stroke-miterlimit:4;stroke-dasharray:none;stroke-dashoffset:0;stroke-opacity:1;color-rendering:auto;image-rendering:auto;shape-rendering:auto;text-rendering:auto;enable-background:accumulate"
     d="m 74.960792,77.028372 c 1.5161,2.25806 3.11957,4.441873 4.80488,6.547919 2.48248,0.284258 4.95024,0.649965 7.39955,1.093992 -2.01467,-2.235497 -3.92761,-4.577001 -5.72885,-7.019727 -2.14857,-0.265176 -4.30777,-0.472853 -6.47558,-0.622184 z m -19.549709,0.244946 c -2.162389,0.204481 -4.326681,0.468908 -6.49056,0.793234 1.004994,1.943349 2.060327,3.849818 3.161049,5.721096 2.242629,-0.291703 4.484423,-0.516223 6.723104,-0.673343 -1.183923,-1.905415 -2.315844,-3.852799 -3.393593,-5.840987 z m 45.922777,4.55476 c 10.91685,10.074256 24.45889,17.005834 39.06222,19.947102 -3.69519,-2.830664 -7.54589,-5.437857 -11.52644,-7.81761 -5.0696,-1.946158 -9.91862,-4.42337 -14.46216,-7.387145 -4.25983,-1.827792 -8.62557,-3.410424 -13.07362,-4.742347 z M 67.255842,99.716913 c -1.30385,-0.007 -2.61082,0.0155 -3.91914,0.061 1.39026,1.667877 2.8214,3.295767 4.29379,4.879797 3.03711,0.0281 6.0584,0.2057 9.05423,0.52866 -1.79381,-1.72304 -3.53493,-3.50704 -5.21932,-5.351097 -0.20923,-0.0102 -0.41795,-0.0237 -0.62735,-0.0326 -1.19151,-0.0506 -2.38576,-0.0791 -3.58221,-0.0858 z M 146.3709,114.91185 c 1.79195,1.72244 3.53089,3.50832 5.21518,5.35419 2.69417,0.13007 5.40491,0.14925 8.12665,0.0527 -1.39131,-1.67102 -2.82408,-3.29934 -4.29638,-4.88445 -3.03713,-0.0262 -6.0555,-0.20179 -9.04545,-0.52245 z m -63.699468,3.41529 c 3.69262,2.82865 7.54243,5.43894 11.52591,7.82175 5.06471,1.94482 9.917248,4.42177 14.468888,7.39231 4.26094,1.82928 8.63033,3.41683 13.08705,4.75061 -10.95817,-10.12759 -24.527378,-17.02759 -39.081848,-19.96467 z m 53.215358,17.10387 c 2.01226,2.23529 3.92454,4.57877 5.72677,7.02644 2.14509,0.26394 4.30186,0.46929 6.46835,0.61754 -1.51654,-2.26188 -3.11878,-4.4474 -4.80176,-6.55309 -2.48195,-0.28321 -4.94747,-0.64817 -7.39336,-1.09089 z m 35.06039,0.86661 c -2.24431,0.29233 -4.48607,0.51758 -6.72309,0.67541 1.18303,1.90541 2.31672,3.85317 3.39563,5.84409 2.15932,-0.20516 4.3216,-0.46793 6.48542,-0.79272 -1.00592,-1.94568 -2.0582,-3.85565 -3.15796,-5.72678 z"
     id="circle4487-24-6"
     inkscape:connector-curvature="0" />
</svg>
