<?xml version="1.0" encoding="UTF-8" standalone="no"?>
<svg
   xmlns:dc="http://purl.org/dc/elements/1.1/"
   xmlns:cc="http://creativecommons.org/ns#"
   xmlns:rdf="http://www.w3.org/1999/02/22-rdf-syntax-ns#"
   xmlns:svg="http://www.w3.org/2000/svg"
   xmlns="http://www.w3.org/2000/svg"
   xmlns:sodipodi="http://sodipodi.sourceforge.net/DTD/sodipodi-0.dtd"
   xmlns:inkscape="http://www.inkscape.org/namespaces/inkscape"
   width="215mm"
   height="215mm"
   viewBox="0 0 215 215"
   version="1.1"
   id="svg8"
   sodipodi:docname="homepage-icon-lmhtf.svg"
   inkscape:version="0.92.1 r15371">
  <sodipodi:namedview
     pagecolor="#ffffff"
     bordercolor="#666666"
     borderopacity="1"
     objecttolerance="10"
     gridtolerance="10"
     guidetolerance="10"
     inkscape:pageopacity="0"
     inkscape:pageshadow="2"
     inkscape:window-width="1920"
     inkscape:window-height="986"
     id="namedview4602"
     showgrid="false"
     inkscape:zoom="0.82144978"
     inkscape:cx="406.29921"
     inkscape:cy="406.29921"
     inkscape:window-x="-11"
     inkscape:window-y="-11"
     inkscape:window-maximized="1"
     inkscape:current-layer="svg8" />
  <defs
     id="defs2" />
  <metadata
     id="metadata5">
    <rdf:RDF>
      <cc:Work
         rdf:about="">
        <dc:format>image/svg+xml</dc:format>
        <dc:type
           rdf:resource="http://purl.org/dc/dcmitype/StillImage" />
        <dc:title></dc:title>
      </cc:Work>
    </rdf:RDF>
  </metadata>
  <circle
     id="circle4487-2"
     cx="107.5"
     cy="107.5"
     r="81.645393"
     style="display:inline;fill:none;fill-opacity:1;stroke:#000005;stroke-width:4.23789835;stroke-miterlimit:4;stroke-dasharray:none;stroke-dashoffset:0;stroke-opacity:0.98823529" />
  <g
     id="layer2"
     transform="translate(0,-82)">
    <rect
       style="opacity:0;fill:#2f11f4;fill-opacity:1;stroke:#762c00;stroke-width:1.39999998;stroke-linecap:round;stroke-linejoin:round;stroke-miterlimit:4;stroke-dasharray:none;stroke-opacity:1;paint-order:stroke fill markers"
       id="rect5086"
       width="74.839287"
       height="108.47916"
       x="38.55357"
       y="103.09821"
       rx="0.39999971"
       ry="0.79999942" />
  </g>
  <path
     sodipodi:type="spiral"
     style="fill:none;fill-rule:evenodd;stroke:#000000;stroke-width:0.26458332"
     id="path5831"
     sodipodi:cx="107.9012"
     sodipodi:cy="106.45461"
     sodipodi:expansion="0.5"
     sodipodi:revolution="19.200001"
     sodipodi:radius="60.541515"
     sodipodi:argument="-18.307312"
     sodipodi:t0="0"
     d="m 107.9012,106.45461 c 4.62481,2.78638 0.19009,6.81276 -3.56511,5.91735 -4.747553,-1.13204 -6.492768,-6.78283 -4.803279,-10.95917 2.287139,-5.653698 9.211989,-7.694687 14.543329,-5.207318 6.47822,3.022452 8.77711,11.131908 5.65975,17.379348 -3.60355,7.22179 -12.7682,9.75369 -19.806507,6.10138 -7.900619,-4.09978 -10.646806,-14.21816 -6.522658,-21.964275 4.54041,-8.527955 15.533745,-11.473523 23.926855,-6.923133 9.1135,4.940954 12.2462,16.746538 7.3044,25.739458 -5.3108,9.6644 -17.8774,12.97396 -27.432095,7.6684 -10.186039,-5.65615 -13.663671,-18.94097 -8.016971,-29.025888 5.981328,-10.682564 19.947976,-14.320654 30.536396,-8.35176 11.15725,6.289546 14.94911,20.906588 8.67417,31.975498 -6.58322,11.6127 -21.82318,15.55243 -33.352449,8.9854 -12.051081,-6.86424 -16.133375,-22.70282 -9.286506,-34.674688 7.134136,-12.474158 23.549655,-16.694254 35.948265,-9.578375 12.88342,7.394125 17.237,24.367093 9.86179,37.178193 -7.64524,13.28014 -25.15801,17.76325 -38.368684,10.13742 C 79.536513,122.96413 74.927474,104.92764 82.796034,91.329154 90.92013,77.289053 109.46562,72.55742 123.44113,80.661507 c 14.40511,8.353201 19.25625,27.394133 10.92324,41.736743 -8.57617,14.76111 -28.10001,19.72891 -42.800533,11.17304 C 76.455083,124.77783 71.373291,104.7827 80.146395,89.732789 89.151902,74.284196 109.60748,69.090906 124.99884,78.076027 c 15.78113,9.212657 21.08359,30.118573 11.89131,45.843963 -9.41524,16.10681 -30.76202,21.51624 -46.814474,12.12134 C 73.649617,126.42779 68.135294,104.64906 77.728546,88.276074 87.536382,71.536852 109.73867,65.91958 126.42603,75.70719 c 17.04664,9.998345 22.76501,32.61629 12.78681,49.61218 C 129.02756,142.668 106.00146,148.48572 88.702523,138.32049 71.057079,127.95164 65.141674,104.52448 75.49057,86.92773 86.039783,68.99037 109.86126,62.978866 127.75086,73.508235 c 18.22461,10.726542 24.3307,34.935915 13.62389,53.113655 -10.90098,18.5074 -35.49215,24.70665 -53.953518,13.82528 C 68.635294,129.37449 62.344273,104.40736 73.39745,85.666659 84.639188,66.606247 109.97671,60.224768 128.99264,71.447132 148.32363,82.855427 154.79431,108.558 143.40526,127.84524 131.83281,147.44308 105.77029,154.00174 86.215514,142.44841 66.354409,130.7141 59.70893,104.29653 71.42424,84.477831 83.318206,64.356902 110.08612,57.62572 130.16527,69.50081 c 20.37744,12.051504 27.19325,39.16524 15.1605,59.5015 -12.20701,20.63077 -39.66221,27.53017 -60.252379,15.34179 C 64.192366,131.98355 57.210377,104.19107 69.552426,83.350093 82.064638,62.221776 110.19035,55.15816 131.27915,67.651992 c 21.37276,12.662054 28.51707,41.117098 15.87327,62.450848 -12.81014,21.61442 -41.59076,28.83853 -63.16667,16.04652 C 62.132327,133.19283 54.829299,104.09028 67.767818,82.274896 80.869114,60.185058 110.29007,52.803949 132.34233,65.887345 c 22.32375,13.24447 29.78212,42.980425 16.55543,65.267035 -13.38611,22.55524 -43.43377,30.09009 -65.952294,16.72164 C 60.161088,134.34975 52.550538,103.99359 66.059257,81.245515 79.72425,58.23428 110.38581,50.548771 133.36114,64.196323 c 23.23588,13.802318 30.99562,44.766267 17.21064,67.966627 -13.9383,23.45837 -45.20171,31.29165 -68.624935,17.37058 C 58.26807,135.46058 50.361942,103.90054 64.417778,80.25655 78.624107,56.359404 110.47801,48.381091 134.34072,62.570414 c 24.11354,14.338468 32.1634,46.483546 17.84183,70.562996 -14.4694,24.32801 -46.90305,32.44877 -71.197301,17.99617 C 56.444641,136.53042 48.253586,103.81076 62.836049,79.303584 77.563821,54.552205 110.56703,46.291452 135.28529,61.002629 c 24.96037,14.855273 33.29024,48.139611 18.45146,73.067171 -14.98169,25.16762 -48.5448,33.56604 -73.679909,18.60075 C 54.683648,137.5635 46.217244,103.72391 61.307985,78.38295 76.539353,52.805844 110.65319,44.271989 136.19834,59.487149 c 25.77941,15.354686 34.38018,49.740571 19.04161,75.488301 -15.47702,25.98013 -50.13282,34.64731 -76.081544,19.18632 C 52.979086,138.56337 44.246005,103.63973 59.828468,77.491565 75.547301,51.114562 110.73673,42.316074 137.08284,58.019063 163.65606,73.857417 172.51947,109.31065 156.69687,135.85322 140.73989,162.62121 105.0248,171.54908 78.287215,155.60777 51.325855,139.53303 42.333999,103.55799 58.393146,76.626807 74.58477,49.473454 110.8179,40.41806 137.94131,56.594184 165.2853,72.901864 174.40379,109.39125 158.11153,136.70553 141.68861,164.23885 104.94476,173.42 77.440931,157.01242 49.719579,140.47508 40.476187,103.47849 56.99828,75.786422 73.649273,47.878305 110.89686,38.573091 138.77591,55.208909 c 28.09364,16.763868 37.46027,54.260791 20.7115,82.325571 -13.25953,22.21809 -40.05992,33.6369 -65.275668,27.89363"
     transform="matrix(1.1728293,0,0,1.1687873,-19.517124,-17.47159)" />
</svg>
