<?xml version="1.0" encoding="UTF-8" standalone="no"?>
<!-- Created with Inkscape (http://www.inkscape.org/) -->

<svg
   xmlns:dc="http://purl.org/dc/elements/1.1/"
   xmlns:cc="http://creativecommons.org/ns#"
   xmlns:rdf="http://www.w3.org/1999/02/22-rdf-syntax-ns#"
   xmlns:svg="http://www.w3.org/2000/svg"
   xmlns="http://www.w3.org/2000/svg"
   xmlns:sodipodi="http://sodipodi.sourceforge.net/DTD/sodipodi-0.dtd"
   xmlns:inkscape="http://www.inkscape.org/namespaces/inkscape"
   width="215mm"
   height="215mm"
   viewBox="0 0 215 215"
   version="1.1"
   id="svg8"
   inkscape:version="0.92.1 r15371"
   sodipodi:docname="homepage-icon-joliet.svg">
  <defs
     id="defs2">
    <filter
       inkscape:menu-tooltip="In and out glow with a possible offset and colorizable flood"
       inkscape:menu="Shadows and Glows"
       inkscape:label="Cutout Glow"
       style="color-interpolation-filters:sRGB;"
       id="filter4513">
      <feOffset
         dy="3"
         dx="3"
         id="feOffset4503" />
      <feGaussianBlur
         stdDeviation="3"
         result="blur"
         id="feGaussianBlur4505" />
      <feFlood
         flood-color="rgb(0,0,0)"
         flood-opacity="1"
         result="flood"
         id="feFlood4507" />
      <feComposite
         in="flood"
         in2="SourceGraphic"
         operator="in"
         result="composite"
         id="feComposite4509" />
      <feBlend
         in="blur"
         in2="composite"
         mode="normal"
         id="feBlend4511" />
    </filter>
  </defs>
  <sodipodi:namedview
     id="base"
     pagecolor="#ffffff"
     bordercolor="#666666"
     borderopacity="1.0"
     inkscape:pageopacity="0.0"
     inkscape:pageshadow="2"
     inkscape:zoom="0.7"
     inkscape:cx="268.18985"
     inkscape:cy="788.57143"
     inkscape:document-units="mm"
     inkscape:current-layer="layer1"
     showgrid="false"
     inkscape:window-width="1920"
     inkscape:window-height="986"
     inkscape:window-x="-11"
     inkscape:window-y="-11"
     inkscape:window-maximized="1" />
  <metadata
     id="metadata5">
    <rdf:RDF>
      <cc:Work
         rdf:about="">
        <dc:format>image/svg+xml</dc:format>
        <dc:type
           rdf:resource="http://purl.org/dc/dcmitype/StillImage" />
        <dc:title />
      </cc:Work>
    </rdf:RDF>
  </metadata>
  <g
     inkscape:label="Layer 1"
     inkscape:groupmode="layer"
     id="layer1"
     style="display:inline"
     transform="translate(0,-82)">
    <g
       transform="matrix(1.3416933,0,0,1.3227187,-44.896796,-28.355797)"
       id="g4501"
       style="font-style:normal;font-variant:normal;font-weight:normal;font-stretch:normal;font-size:10.58333302px;line-height:1.25;font-family:Wingdings;-inkscape-font-specification:Wingdings;letter-spacing:0px;word-spacing:0px;fill:#000000;fill-opacity:1;stroke:none;stroke-width:0.26458332;filter:url(#filter4513)"
       aria-label="SCC">
      <path
         inkscape:connector-curvature="0"
         id="path4495"
         style="fill:#022060;fill-opacity:1"
         d="m 70.619048,136.59365 0.435805,17.90761 H 69.43049 q -1.148939,-6.73516 -5.665459,-10.81588 -4.476901,-4.12033 -9.706556,-4.12033 -4.041097,0 -6.418213,2.17902 -2.337497,2.13941 -2.337497,4.95233 0,1.78283 0.831991,3.16948 1.148939,1.86208 3.684529,3.68453 1.862074,1.30742 8.597236,4.63538 9.429226,4.63537 12.717569,8.75571 3.248725,4.12033 3.248725,9.42922 0,6.73517 -5.269273,11.60825 -5.229655,4.83347 -13.311849,4.83347 -2.53559,0 -4.79385,-0.51504 -2.25826,-0.51504 -5.665459,-1.94131 -1.901693,-0.79237 -3.129869,-0.79237 -1.030084,0 -2.179023,0.79237 -1.148939,0.79237 -1.862074,2.41673 H 36.70553 V 172.4881 h 1.465888 q 1.743218,8.55762 6.695543,13.07414 4.991943,4.4769 10.736639,4.4769 4.437283,0 7.05211,-2.41673 2.654446,-2.41674 2.654446,-5.62584 0,-1.9017 -1.030083,-3.68453 -0.990465,-1.78284 -3.050632,-3.36758 -2.060167,-1.62437 -7.289822,-4.19958 -7.32944,-3.60529 -10.538546,-6.14088 -3.209107,-2.53559 -4.952325,-5.66546 -1.7036,-3.12987 -1.7036,-6.89363 0,-6.41822 4.714613,-10.93474 4.714613,-4.51652 11.885579,-4.51652 2.614828,0 5.071181,0.6339 1.862074,0.47542 4.51652,1.78284 2.694064,1.26779 3.763766,1.26779 1.030084,0 1.624363,-0.63389 0.594279,-0.6339 1.10932,-3.05064 z" />
      <path
         inkscape:connector-curvature="0"
         id="path4497"
         style="fill:#022060;fill-opacity:1"
         d="m 131.82978,136.59365 v 18.62074 h -1.54513 q -1.74321,-7.28982 -6.49745,-11.17244 -4.75423,-3.88262 -10.77625,-3.88262 -5.03157,0 -9.23114,2.89216 -4.199568,2.89215 -6.14088,7.56715 -2.495971,5.98241 -2.495971,13.31185 0,7.21058 1.822455,13.15337 1.822456,5.90317 5.705076,8.9538 3.88262,3.01102 10.06313,3.01102 5.07118,0 9.27075,-2.21865 4.23919,-2.21864 8.91418,-7.64638 v 4.63537 q -4.51652,4.71461 -9.42922,6.85402 -4.87309,2.09978 -11.41016,2.09978 -8.59724,0 -15.292779,-3.44681 -6.655924,-3.44682 -10.300835,-9.90465 -3.605292,-6.45783 -3.605292,-13.74766 0,-7.686 4.001478,-14.57964 4.041097,-6.89364 10.855496,-10.69702 6.854012,-3.80339 14.540022,-3.80339 5.66546,0 11.96482,2.45636 3.64491,1.42627 4.63537,1.42627 1.2678,0 2.17903,-0.91123 0.95084,-0.95085 1.22817,-2.9714 z" />
      <path
         inkscape:connector-curvature="0"
         id="path4499"
         style="fill:#52c73c;fill-opacity:1"
         d="m 190.4653,136.59365 v 18.62074 h -1.54513 q -1.74321,-7.28982 -6.49744,-11.17244 -4.75424,-3.88262 -10.77626,-3.88262 -5.03156,0 -9.23114,2.89216 -4.19957,2.89215 -6.14088,7.56715 -2.49597,5.98241 -2.49597,13.31185 0,7.21058 1.82246,13.15337 1.82245,5.90317 5.70507,8.9538 3.88263,3.01102 10.06313,3.01102 5.07118,0 9.27075,-2.21865 4.23919,-2.21864 8.91418,-7.64638 v 4.63537 q -4.51652,4.71461 -9.42922,6.85402 -4.87309,2.09978 -11.41016,2.09978 -8.59723,0 -15.29278,-3.44681 -6.65592,-3.44682 -10.30083,-9.90465 -3.60529,-6.45783 -3.60529,-13.74766 0,-7.686 4.00147,-14.57964 4.0411,-6.89364 10.8555,-10.69702 6.85402,-3.80339 14.54002,-3.80339 5.66546,0 11.96482,2.45636 3.64491,1.42627 4.63538,1.42627 1.26779,0 2.17902,-0.91123 0.95084,-0.95085 1.22817,-2.9714 z" />
    </g>
    <g
       aria-label="SCC"
       style="font-style:normal;font-variant:normal;font-weight:normal;font-stretch:normal;font-size:10.58333302px;line-height:1.25;font-family:Wingdings;-inkscape-font-specification:Wingdings;letter-spacing:0px;word-spacing:0px;fill:#000000;fill-opacity:1;stroke:none;stroke-width:0.26458332"
       id="text4505"
       transform="matrix(1.3416933,0,0,1.3227187,-44.89679,-28.355798)">
      <path
         d="m 70.619048,136.59365 0.435805,17.90761 H 69.43049 q -1.148939,-6.73516 -5.665459,-10.81588 -4.476901,-4.12033 -9.706556,-4.12033 -4.041097,0 -6.418213,2.17902 -2.337497,2.13941 -2.337497,4.95233 0,1.78283 0.831991,3.16948 1.148939,1.86208 3.684529,3.68453 1.862074,1.30742 8.597236,4.63538 9.429226,4.63537 12.717569,8.75571 3.248725,4.12033 3.248725,9.42922 0,6.73517 -5.269273,11.60825 -5.229655,4.83347 -13.311849,4.83347 -2.53559,0 -4.79385,-0.51504 -2.25826,-0.51504 -5.665459,-1.94131 -1.901693,-0.79237 -3.129869,-0.79237 -1.030084,0 -2.179023,0.79237 -1.148939,0.79237 -1.862074,2.41673 H 36.70553 V 172.4881 h 1.465888 q 1.743218,8.55762 6.695543,13.07414 4.991943,4.4769 10.736639,4.4769 4.437283,0 7.05211,-2.41673 2.654446,-2.41674 2.654446,-5.62584 0,-1.9017 -1.030083,-3.68453 -0.990465,-1.78284 -3.050632,-3.36758 -2.060167,-1.62437 -7.289822,-4.19958 -7.32944,-3.60529 -10.538546,-6.14088 -3.209107,-2.53559 -4.952325,-5.66546 -1.7036,-3.12987 -1.7036,-6.89363 0,-6.41822 4.714613,-10.93474 4.714613,-4.51652 11.885579,-4.51652 2.614828,0 5.071181,0.6339 1.862074,0.47542 4.51652,1.78284 2.694064,1.26779 3.763766,1.26779 1.030084,0 1.624363,-0.63389 0.594279,-0.6339 1.10932,-3.05064 z"
         style="fill:#022060;fill-opacity:1"
         id="path4581"
         inkscape:connector-curvature="0" />
      <path
         d="m 131.82978,136.59365 v 18.62074 h -1.54513 q -1.74321,-7.28982 -6.49745,-11.17244 -4.75423,-3.88262 -10.77625,-3.88262 -5.03157,0 -9.23114,2.89216 -4.199568,2.89215 -6.14088,7.56715 -2.495971,5.98241 -2.495971,13.31185 0,7.21058 1.822455,13.15337 1.822456,5.90317 5.705076,8.9538 3.88262,3.01102 10.06313,3.01102 5.07118,0 9.27075,-2.21865 4.23919,-2.21864 8.91418,-7.64638 v 4.63537 q -4.51652,4.71461 -9.42922,6.85402 -4.87309,2.09978 -11.41016,2.09978 -8.59724,0 -15.292779,-3.44681 -6.655924,-3.44682 -10.300835,-9.90465 -3.605292,-6.45783 -3.605292,-13.74766 0,-7.686 4.001478,-14.57964 4.041097,-6.89364 10.855496,-10.69702 6.854012,-3.80339 14.540022,-3.80339 5.66546,0 11.96482,2.45636 3.64491,1.42627 4.63537,1.42627 1.2678,0 2.17903,-0.91123 0.95084,-0.95085 1.22817,-2.9714 z"
         style="fill:#022060;fill-opacity:1"
         id="path4583"
         inkscape:connector-curvature="0" />
      <path
         d="m 190.4653,136.59365 v 18.62074 h -1.54513 q -1.74321,-7.28982 -6.49744,-11.17244 -4.75424,-3.88262 -10.77626,-3.88262 -5.03156,0 -9.23114,2.89216 -4.19957,2.89215 -6.14088,7.56715 -2.49597,5.98241 -2.49597,13.31185 0,7.21058 1.82246,13.15337 1.82245,5.90317 5.70507,8.9538 3.88263,3.01102 10.06313,3.01102 5.07118,0 9.27075,-2.21865 4.23919,-2.21864 8.91418,-7.64638 v 4.63537 q -4.51652,4.71461 -9.42922,6.85402 -4.87309,2.09978 -11.41016,2.09978 -8.59723,0 -15.29278,-3.44681 -6.65592,-3.44682 -10.30083,-9.90465 -3.60529,-6.45783 -3.60529,-13.74766 0,-7.686 4.00147,-14.57964 4.0411,-6.89364 10.8555,-10.69702 6.85402,-3.80339 14.54002,-3.80339 5.66546,0 11.96482,2.45636 3.64491,1.42627 4.63538,1.42627 1.26779,0 2.17902,-0.91123 0.95084,-0.95085 1.22817,-2.9714 z"
         style="fill:#52c73c;fill-opacity:1"
         id="path4585"
         inkscape:connector-curvature="0" />
    </g>
  </g>
  <g
     inkscape:groupmode="layer"
     id="layer2"
     inkscape:label="Layer 2"
     transform="translate(0,-82)" />
</svg>
