<?xml version="1.0" encoding="UTF-8" standalone="no"?>
<svg
   xmlns:dc="http://purl.org/dc/elements/1.1/"
   xmlns:cc="http://creativecommons.org/ns#"
   xmlns:rdf="http://www.w3.org/1999/02/22-rdf-syntax-ns#"
   xmlns:svg="http://www.w3.org/2000/svg"
   xmlns="http://www.w3.org/2000/svg"
   xmlns:sodipodi="http://sodipodi.sourceforge.net/DTD/sodipodi-0.dtd"
   xmlns:inkscape="http://www.inkscape.org/namespaces/inkscape"
   width="215mm"
   height="215mm"
   viewBox="0 0 215 215"
   version="1.1"
   id="svg8"
   sodipodi:docname="homepage-icon-bodega.svg"
   inkscape:version="0.92.1 r15371">
  <sodipodi:namedview
     pagecolor="#ffffff"
     bordercolor="#666666"
     borderopacity="1"
     objecttolerance="10"
     gridtolerance="10"
     guidetolerance="10"
     inkscape:pageopacity="0"
     inkscape:pageshadow="2"
     inkscape:window-width="1920"
     inkscape:window-height="986"
     id="namedview4498"
     showgrid="false"
     inkscape:zoom="0.93896318"
     inkscape:cx="406.29921"
     inkscape:cy="406.29921"
     inkscape:window-x="-11"
     inkscape:window-y="-11"
     inkscape:window-maximized="1"
     inkscape:current-layer="svg8" />
  <defs
     id="defs2">
    <filter
       inkscape:label="Film Grain"
       style="color-interpolation-filters:sRGB;"
       inkscape:menu-tooltip="Adds a small scale graininess"
       inkscape:menu="Image Effects"
       height="1.2"
       width="1.2"
       y="-0.1"
       x="-0.1"
       id="filter5378">
      <feTurbulence
         seed="50"
         type="fractalNoise"
         baseFrequency="1"
         numOctaves="3"
         result="result1"
         id="feTurbulence5360" />
      <feColorMatrix
         type="luminanceToAlpha"
         in="SourceGraphic"
         result="result0"
         id="feColorMatrix5362" />
      <feColorMatrix
         result="result2"
         values="1 0 0 0 0 0 1 0 0 0 0 0 1 0 0 0 0 0 0.5 0 "
         id="feColorMatrix5364" />
      <feComposite
         result="result3"
         operator="over"
         in="result1"
         in2="result2"
         id="feComposite5366" />
      <feColorMatrix
         result="result91"
         values="1 0 0 0 0 0 1 0 0 0 0 0 1 0 0 0 0 0 5 -3.2"
         id="feColorMatrix5368" />
      <feComposite
         in2="result91"
         operator="arithmetic"
         k1="1.5"
         result="result93"
         id="feComposite5370" />
      <feComposite
         in2="result93"
         in="SourceGraphic"
         operator="out"
         result="result4"
         id="feComposite5372" />
      <feComposite
         in2="result4"
         operator="arithmetic"
         k2="0.5"
         k1="1"
         id="feComposite5374" />
      <feDisplacementMap
         scale="15"
         xChannelSelector="R"
         yChannelSelector="A"
         in2="result1"
         result="fbSourceGraphic"
         id="feDisplacementMap5376" />
      <feColorMatrix
         result="fbSourceGraphicAlpha"
         in="fbSourceGraphic"
         values="0 0 0 -1 0 0 0 0 -1 0 0 0 0 -1 0 0 0 0 1 0"
         id="feColorMatrix5380" />
      <feTurbulence
         id="feTurbulence5382"
         type="fractalNoise"
         numOctaves="3"
         baseFrequency="1"
         seed="0"
         result="result0"
         in="fbSourceGraphic" />
      <feColorMatrix
         id="feColorMatrix5384"
         result="result4"
         values="0"
         type="saturate" />
      <feComposite
         in2="result4"
         id="feComposite5386"
         in="fbSourceGraphic"
         operator="arithmetic"
         k1="1.25"
         k2="0.5"
         k3="0.5"
         result="result2" />
      <feBlend
         in2="fbSourceGraphic"
         id="feBlend5388"
         result="result5"
         mode="normal"
         in="result2" />
      <feComposite
         in2="fbSourceGraphic"
         id="feComposite5390"
         in="result5"
         operator="in"
         result="result3" />
    </filter>
    <filter
       inkscape:label="Linen Canvas"
       style="color-interpolation-filters:sRGB;"
       inkscape:menu-tooltip="Painting canvas emboss effect"
       inkscape:menu="Bumps"
       height="1.2"
       width="1.2"
       y="-0.1"
       x="-0.1"
       id="filter5378-8">
      <feTurbulence
         seed="50"
         type="fractalNoise"
         baseFrequency="1"
         numOctaves="3"
         result="result1"
         id="feTurbulence5360-3" />
      <feColorMatrix
         type="luminanceToAlpha"
         in="SourceGraphic"
         result="result0"
         id="feColorMatrix5362-3" />
      <feColorMatrix
         result="result2"
         values="1 0 0 0 0 0 1 0 0 0 0 0 1 0 0 0 0 0 0.5 0 "
         id="feColorMatrix5364-8" />
      <feComposite
         result="result3"
         operator="over"
         in="result1"
         in2="result2"
         id="feComposite5366-9" />
      <feColorMatrix
         result="result91"
         values="1 0 0 0 0 0 1 0 0 0 0 0 1 0 0 0 0 0 5 -3.2"
         id="feColorMatrix5368-6" />
      <feComposite
         k4="0"
         k3="0"
         k2="0"
         in2="result91"
         operator="arithmetic"
         k1="1.5"
         result="result93"
         id="feComposite5370-5" />
      <feComposite
         in2="result93"
         in="SourceGraphic"
         operator="out"
         result="result4"
         id="feComposite5372-5" />
      <feComposite
         k4="0"
         k3="0"
         in2="result4"
         operator="arithmetic"
         k2="0.5"
         k1="1"
         id="feComposite5374-3" />
      <feDisplacementMap
         scale="15"
         xChannelSelector="R"
         yChannelSelector="A"
         in2="result1"
         result="fbSourceGraphic"
         id="feDisplacementMap5376-3" />
      <feColorMatrix
         result="fbSourceGraphicAlpha"
         in="fbSourceGraphic"
         values="0 0 0 -1 0 0 0 0 -1 0 0 0 0 -1 0 0 0 0 1 0"
         id="feColorMatrix5380-6" />
      <feTurbulence
         id="feTurbulence5382-3"
         type="fractalNoise"
         numOctaves="3"
         baseFrequency="1"
         seed="0"
         result="result0" />
      <feColorMatrix
         id="feColorMatrix5384-6"
         result="result4"
         values="0"
         type="saturate" />
      <feComposite
         k4="0"
         in2="result4"
         id="feComposite5386-0"
         in="fbSourceGraphic"
         operator="arithmetic"
         k1="1.25"
         k2="0.5"
         k3="0.5"
         result="result2" />
      <feBlend
         in2="fbSourceGraphic"
         id="feBlend5388-0"
         result="result5"
         mode="normal"
         in="result2" />
      <feComposite
         in2="fbSourceGraphic"
         id="feComposite5390-2"
         in="result5"
         operator="in"
         result="fbSourceGraphic" />
      <feColorMatrix
         result="fbSourceGraphicAlpha"
         in="fbSourceGraphic"
         values="0 0 0 -1 0 0 0 0 -1 0 0 0 0 -1 0 0 0 0 1 0"
         id="feColorMatrix5521" />
      <feTurbulence
         id="feTurbulence5523"
         numOctaves="5"
         baseFrequency="0.4"
         in="fbSourceGraphic" />
      <feConvolveMatrix
         id="feConvolveMatrix5525"
         order="5 5"
         kernelMatrix="-4 0 0 0 -4 0 -2 0 -2 0 0 0 -10 0 0 0 -2 0 -2 0 -4 0 0 0 -4 "
         targetX="2"
         targetY="2" />
      <feConvolveMatrix
         id="feConvolveMatrix5527"
         order="3 3"
         kernelMatrix="2 0 2 0 -5 0 2 0 2 "
         targetX="1"
         targetY="1" />
      <feColorMatrix
         id="feColorMatrix5529"
         type="saturate"
         result="result1" />
      <feComposite
         in2="fbSourceGraphic"
         id="feComposite5531"
         operator="arithmetic"
         k1="1.5"
         k2="0.5"
         k3="0.5"
         result="result2" />
      <feBlend
         in2="result1"
         id="feBlend5533"
         mode="normal"
         result="result4" />
      <feColorMatrix
         id="feColorMatrix5535"
         type="luminanceToAlpha" />
      <feDiffuseLighting
         id="feDiffuseLighting5537"
         surfaceScale="10"
         diffuseConstant="1"
         result="result3">
        <feDistantLight
           id="feDistantLight5539"
           azimuth="180"
           elevation="35" />
      </feDiffuseLighting>
      <feComposite
         in2="result4"
         id="feComposite5541"
         operator="arithmetic"
         k1="1.5"
         k3="0.5"
         result="result5" />
      <feBlend
         in2="result3"
         id="feBlend5543"
         mode="normal"
         result="result6" />
      <feComposite
         in2="fbSourceGraphic"
         id="feComposite5545"
         operator="in" />
    </filter>
  </defs>
  <metadata
     id="metadata5">
    <rdf:RDF>
      <cc:Work
         rdf:about="">
        <dc:format>image/svg+xml</dc:format>
        <dc:type
           rdf:resource="http://purl.org/dc/dcmitype/StillImage" />
        <dc:title />
      </cc:Work>
    </rdf:RDF>
  </metadata>
  <g
     id="layer2"
     transform="translate(0,-82)">
    <rect
       style="opacity:0;fill:#2f11f4;fill-opacity:1;stroke:#762c00;stroke-width:1.39999998;stroke-linecap:round;stroke-linejoin:round;stroke-miterlimit:4;stroke-dasharray:none;stroke-opacity:1;paint-order:stroke fill markers"
       id="rect5086"
       width="74.839287"
       height="108.47916"
       x="38.55357"
       y="103.09821"
       rx="0.39999971"
       ry="0.79999942" />
  </g>
  <path
     inkscape:connector-curvature="0"
     class="fil0"
     d="m 136.79153,161.63026 c 0.023,0.009 0.0459,0.0121 0.0689,0.0204 -0.22643,0.16487 -3.40401,1.68116 -3.57024,1.6813 l -0.55814,3.1e-4 c 0.10821,-1.09585 0.89052,-2.76168 0.88984,-3.5451 -0.001,-1.29768 -0.98921,-5.81994 -1.79116,-6.06194 -6.1e-4,-0.69446 -1.22947,-2.28198 -1.62309,-2.93564 -0.33671,-0.55924 -1.46975,-2.4726 -2.17655,-2.47218 l -0.11171,7e-5 c -0.25718,1.7e-4 -0.33475,0.0654 -0.33455,0.27996 l 8e-5,0.0935 c 7.8e-4,0.90344 3.01361,2.99515 3.03108,4.64853 0.54861,0.34078 0.73365,1.46904 0.90608,2.04449 0.11374,0.37994 0.31151,1.58212 0.31195,2.07256 l 8e-5,0.0931 c 0.003,3.24114 -1.17554,6.64733 -3.09034,8.23351 -0.48751,0.40403 -1.11759,0.97955 -1.65889,1.31881 -0.7219,0.45236 -1.27135,0.6354 -2.00712,1.02825 -1.11019,0.59275 -3.19396,1.2718 -4.95307,1.27287 -6e-4,0.0559 -0.001,0.11176 -0.002,0.16763 -1.04103,0.069 -2.08205,0.13832 -3.12307,0.20733 -6.46681,0.48276 -10.5428,-3.81173 -13.61323,-6.3424 -0.87846,-0.72403 -1.48327,-1.67906 -2.70337,-2.12468 -1.042577,-0.38077 -2.344029,-1.22719 -3.141527,-1.85136 -1.054202,-0.8252 -1.637031,-1.30457 -2.522931,-2.27588 -0.885252,-0.97049 -1.207636,-1.98976 -1.918179,-2.87515 -3.87e-4,-0.43865 0.04101,-0.71249 -0.335679,-0.83938 l -0.0016,-1.77226 c -0.0013,-1.52447 0.164015,-1.36807 0.7086,-2.67111 0.198652,-0.47531 1.2963,-2.22755 1.2961,-2.46034 l -5.71e-4,-0.65298 c -7.9e-4,-0.90495 -1.165738,-2.82296 -1.634677,-3.48585 -0.143668,-0.20324 -1.155699,-1.08493 -1.383322,-1.26936 -0.284369,-0.23058 -0.942344,-1.4148 -0.922782,-1.77451 0.04101,-0.37587 0.0819,-0.75199 0.122908,-1.1279 0.07973,-0.0898 0.159483,-0.17917 0.239222,-0.26895 -5.51e-4,-0.62931 0.717135,-1.60976 1.084813,-1.98416 0.311515,-0.31751 1.420871,-1.28205 1.925911,-1.28233 l 0.446548,-2.9e-4 c 0.808662,-1.6784 9.038336,-1.8754 10.824116,-2.99224 1.11604,-0.0939 2.23209,-0.18773 3.34826,-0.28119 1.03619,-0.27507 0.8924,-1.79272 1.22606,-2.05281 0.2297,-0.24976 0.93306,-0.19426 1.00462,-0.18936 0.67405,0.058 1.34822,0.11589 2.02238,0.17385 0.10715,0.0665 0.21427,0.13304 0.32157,0.19998 0.68084,-4.1e-4 3.90697,0.38077 3.90721,0.65045 6.4e-4,0.72844 -2.33298,1.50687 -3.10295,1.79157 -0.5697,0.21059 -3.30709,1.28319 -3.70298,1.29078 -0.0715,0.22446 -0.85817,0.74677 -1.00387,0.74685 -0.39992,2.4e-4 -1.20842,0.66494 -1.55576,0.93878 -0.41282,0.32567 -0.79314,0.67955 -1.20758,1.04293 -0.37053,0.32486 -1.92118,1.96707 -1.92079,2.40526 0.002,1.84556 1.58909,-0.63258 2.20361,-1.1439 0.37986,-0.31629 2.10208,-1.59311 2.14686,-1.93695 0.35906,-0.0326 1.54022,-0.98151 2.08301,-1.24446 0.74459,-0.36077 1.52761,-0.78896 2.2676,-1.09047 0.52423,-0.21345 0.57798,-0.34649 1.18427,-0.50317 0.31318,-0.0808 0.92569,-0.35097 1.20225,-0.48806 0.45616,-0.2265 3.5528,-1.53062 4.19696,-1.53099 l 0.22335,-1.7e-4 c 0.36204,0 2.06192,0.65192 2.12121,0.65188 0.92883,-5.7e-4 1.6781,-0.46741 2.67837,-0.46802 l 0.44654,-2.4e-4 c 1.43091,-9e-4 3.87816,0.51675 4.9782,0.87429 2.96767,0.96438 4.86224,2.10207 7.66396,3.10717 0.93223,0.33425 2.40886,1.66306 2.98919,1.79215 -0.48433,-1.73158 -5.46632,-3.98661 -7.08778,-4.61625 -0.5419,-0.21018 -0.72165,-0.29751 -1.19522,-0.49312 -0.966,-0.39873 -1.51462,-0.45994 -2.5366,-0.77084 -0.37737,-0.11468 -5.87632,-1.94495 -4.36714,-1.94584 0.0166,0 1.23691,-0.28324 1.60641,-0.33711 0.65233,-0.0955 1.40026,-0.0408 2.07787,-0.0367 1.26131,0.004 2.68068,-0.18937 4.01678,-0.19018 0.71142,-0.18243 8.42656,-1.46892 9.14934,-3.73672 -0.64547,0.1261 -1.65385,0.88221 -2.24511,1.10925 -1.73515,0.66665 -3.62921,1.44933 -5.55728,1.74423 -0.38762,0.14854 -1.45271,0.32363 -1.90557,0.32404 l -1.78586,10e-4 c -0.3013,2.1e-4 -0.3077,-0.0445 -0.55806,-0.093 0.0205,-0.79798 1.16208,-0.90214 1.80654,-1.15561 0.70716,-0.1857 1.41444,-0.37139 2.12172,-0.557 -0.0637,-0.24364 -2.22107,0.0824 -2.59162,0.1155 -0.33012,0.0555 -2.9632,0.60038 -3.34664,0.66572 -0.51825,0.4195 -1.58817,0.0661 -2.23184,0.46774 -0.67453,4.1e-4 -3.77906,0.84724 -4.18393,1.07586 -1.05735,0.59715 -3.86946,0.13182 -5.21444,0.30935 -0.60042,0.0792 -4.5328,-0.10529 -5.17781,-0.20079 -0.691,-0.10243 -2.03433,-0.0971 -2.51895,-0.22569 -0.59947,-0.15875 -1.60944,-0.47822 -2.10268,-0.57392 0.0415,-1.61283 7.26331,-2.92238 7.47541,-3.36253 0.69918,-4.1e-4 2.85918,-0.64155 3.70882,-0.81989 1.72172,-0.36119 3.30797,-0.71457 4.89755,-0.94413 0.10703,-0.0669 0.21416,-0.13346 0.32132,-0.20039 1.0655,-6.5e-4 1.68148,-0.1563 2.6355,-0.31751 0.41999,-0.071 2.37422,-0.43199 2.60982,-0.43211 1.68614,-0.001 3.22855,-0.54903 5.13077,-0.56528 1.05386,-0.008 3.40077,-0.0612 3.68583,-0.65265 0.64855,-3.7e-4 3.27276,-0.67147 4.01363,-0.8452 0.53723,-0.12611 3.79223,-0.55875 4.35643,-0.55908 0.52156,-0.0122 1.04326,-0.0245 1.56495,-0.0326 1.26422,0.0726 2.52843,0.14528 3.79278,0.21834 l 2.4e-4,0.27996 c 3.8e-4,0.43807 -2.197,0.87638 -2.34292,1.21402 -1.48477,9.3e-4 -2.4384,0.74774 -3.57106,0.74843 l -0.4464,2.9e-4 c -0.3307,0.68596 -2.79168,-0.003 -2.90055,0.89434 1.23197,-0.0122 2.46395,-0.0286 3.69593,-0.0416 0.11284,-0.0457 0.22568,-0.0914 0.33856,-0.13713 1.18466,-0.20855 2.36932,-0.41664 3.55398,-0.6249 1.45087,-0.81321 5.4682,-1.10991 5.46639,-3.1748 -1.6e-4,-0.1914 -0.19049,-0.41366 -0.22384,-0.74611 -0.56436,-0.0408 -0.78118,-0.27915 -1.00476,-0.27915 l -1.11614,7e-4 c -0.47159,2.8e-4 -1.7458,0.45888 -2.22866,0.5636 -0.63369,0.13754 -1.96988,0.18488 -2.79345,0.18569 l -0.33494,2e-4 1.6e-4,0.18651 c -1.3454,8.2e-4 -3.08475,0.15631 -4.36107,0.27548 -0.93612,0.0873 -1.20827,0.0735 -2.04526,0.25058 -0.35086,0.0743 -1.82644,0.41162 -1.964,0.4117 l -0.33494,2.1e-4 1.6e-4,0.18651 -0.4464,2.8e-4 c -0.0361,0 -1.40961,0.56883 -1.672,0.65539 -0.83379,0.27507 -1.48108,0.0906 -2.25838,0.25915 -0.90166,0.19549 -3.52818,0.30241 -4.67648,0.28976 -0.10714,0.0665 -0.21431,0.13346 -0.32132,0.20039 -3.01333,0.002 -12.84676,1.34322 -15.9584,3.0879 -0.8733,5.3e-4 -5.71907,1.82124 -6.77404,2.17683 -0.83792,0.28242 -1.90723,1.23181 -2.67331,1.68396 -1.38963,0.82018 -2.01434,0.15711 -3.83158,0.15834 -0.387672,-0.21671 -2.35468,-0.70747 -3.054365,-0.99082 -0.74439,-0.30119 -2.005829,-1.03579 -2.556738,-1.50088 -1.200196,-1.01305 -2.876531,-2.9453 -2.878215,-4.87213 -3.72e-4,-0.42154 -0.254351,-2.51826 0.221151,-2.51854 -10e-4,-1.19153 0.592987,-1.49501 0.668134,-1.67948 0.268454,-0.23438 0.06604,-0.0715 0.334602,-0.37326 0.18199,-0.75914 3.389823,-3.59233 4.147081,-4.08939 0.872211,-0.57587 1.639878,-1.13632 2.62886,-1.63126 0.16901,-0.0846 3.15151,-1.49615 3.15227,-0.63177 l 2.4e-4,0.2798 c 5.3e-4,0.60394 -0.33397,0.96446 -0.33382,1.11953 7.6e-4,0.27711 0.002,0.55415 0.002,0.83133 0.25976,0.0335 0.5197,0.0673 0.77961,0.10105 0.0691,-0.70235 2.89861,-2.67384 3.63567,-3.21117 0.54448,-0.39705 1.27021,-0.7575 1.70857,-1.09088 0.24552,-0.18663 1.54622,-0.92265 1.80771,-1.00811 0.22686,-0.0742 1.95531,-0.75328 2.02008,-0.83096 0.16712,-0.20062 0.20651,-0.50665 0.50099,-0.79374 0.22159,-0.21609 0.53505,-0.39868 0.81302,-0.53328 0.55971,-0.27103 1.52145,-0.45584 2.4009,-0.50001 1.5551,-0.0779 3.73641,0.30927 5.53647,0.29454 0.1075,0.0635 0.21518,0.12716 0.32283,0.19083 0.44606,0.0339 0.89208,0.0677 1.33826,0.10153 0.96809,0.007 1.93635,0.0135 2.90458,0.02 0.55719,-0.0388 1.11438,-0.0773 1.6717,-0.11603 0.11424,-0.23708 1.25742,-0.61152 1.55249,-0.84826 0.52699,-0.42292 0.85554,-0.63248 1.6077,-0.89566 0.7776,-0.27192 0.74282,-0.45958 1.83962,-0.70191 0.40681,-0.0898 1.75885,-0.3073 1.91769,-0.63673 0.81506,-5e-4 0.81798,-0.18708 1.45077,-0.18749 l 3.23691,-0.002 c 0.69659,-4.3e-4 1.16105,0.28417 2.23211,0.27882 0.8937,-0.004 1.61976,0.011 2.43204,0.11159 0.75093,0.0932 1.53512,0.2651 2.15647,0.34207 1.13369,0.14056 1.02749,0.55265 1.88659,0.56811 0.14772,0.23283 1.55412,1.0199 1.91073,1.29459 0.62947,0.4852 1.43428,0.75217 2.17657,1.16539 1.1734,0.65332 3.11552,1.80331 3.909,2.70273 0.29633,0.33583 0.44548,0.41102 0.76623,0.75884 0.22407,0.24283 0.57528,0.6999 0.75703,0.85992 0.57381,0.50543 0.79821,1.43586 1.22298,1.96363 0.68014,1.26413 2.21544,3.22594 2.21664,4.58563 5.8e-4,0.66968 0.59628,1.24335 0.89455,1.86503 0.22374,0.62172 0.44747,1.24344 0.67136,1.86516 0.11188,0.34199 0.22379,0.68379 0.33583,1.02579 0.004,0.21711 0.007,0.43464 0.0108,0.652 0.29628,2.36318 0.59262,4.72635 0.88892,7.08953 l 0.2232,-1.6e-4 4.9e-4,0.55968 c 0.002,1.78888 0.65696,5.49112 0.987,7.29506 0.22632,1.23687 0.45333,2.4419 0.58172,3.62029 0.11596,1.06403 0.67531,2.60327 0.67613,3.54131 0.002,2.03943 -0.1942,3.6429 -0.55294,5.78353 l 4e-4,0.46635 c -0.23243,0.0788 -1.01493,1.85173 -1.19238,2.17414 -0.46827,0.85062 -0.93142,1.32485 -1.48274,2.02502 -0.9834,1.24862 -2.49862,2.33559 -3.99543,3.19062 -0.40793,0.23304 -2.00249,1.15328 -2.40877,1.25221 -0.71864,0.17509 -0.75389,0.18692 -1.33387,0.47149 -0.43483,0.21344 -1.0486,0.26651 -1.50572,0.4213 -1.16823,0.39588 -4.81417,1.17332 -6.37693,1.20331 -0.12462,-0.25751 -1.31795,-0.52429 -1.65025,-0.76576 -0.51622,-0.37507 -0.98035,-0.54382 -1.92131,-0.53893 -1.9606,0.009 -3.21609,-0.2767 -4.91257,-0.27587 l -1.56265,9.3e-4 c -0.3015,2.1e-4 -0.3078,0.0448 -0.55806,0.0935 l 3.3e-4,0.37301 c 2.3e-4,0.26283 0.35598,0.41529 0.55112,0.55394 0.79883,0.0792 1.85775,0.53604 2.04206,1.11123 -0.0205,-0.0367 -0.041,-0.0698 -0.0612,-0.10486 -0.97782,0.40608 -1.95551,0.81227 -2.93321,1.21843 z M 98.71022,60.653491 c 4.03e-4,0.464636 4.13577,10.768464 4.442,11.192636 0.0483,0.465578 0.0969,0.931158 0.14539,1.396741 1.76746,0.987592 2.96674,3.900796 3.6443,5.911289 0.33997,1.00919 2.72845,6.282329 2.72879,6.677322 l 5.8e-4,0.652956 c 8.8e-4,1.004964 -4.3527,0.3864 -4.35198,1.21527 l 2.4e-4,0.279883 c 0.47208,0.09161 0.94963,0.138266 0.99724,0.518015 -0.55536,0.07616 -1.11085,0.152305 -1.66631,0.228542 l 4.1e-4,0.466464 c 0.4587,0.03142 0.24951,0.09305 0.66982,0.0928 1.77474,-0.0011 2.51458,-0.182304 3.67433,0.658801 0.47305,0.343099 0.78166,0.528198 1.20918,0.948183 0.39582,0.388932 0.61752,1.017132 0.92303,1.187867 4.8e-4,0.548976 0.61535,1.925336 0.67217,2.797886 0.0793,1.221743 0.32464,1.691738 0.0483,3.023082 -0.25674,1.236742 -0.27998,1.719103 -0.80546,2.683362 -0.16983,0.31164 -0.47135,0.8557 -0.71387,1.08207 -0.30175,0.28155 -1.08044,0.48883 -1.20121,0.76858 l -1.22786,7.4e-4 c -1.07686,6.6e-4 -2.80689,-1.00335 -3.55151,-1.41494 -0.55734,-0.30805 -0.92528,-0.68122 -1.39141,-1.075827 -1.66632,-1.410388 -3.993155,-5.289867 -3.994586,-6.924793 -1.9e-4,-0.219849 1.107846,-1.191909 1.365376,-1.377253 0.4632,-0.333511 1.5187,-0.631106 1.53432,-1.236334 -0.13088,-0.02897 -0.30429,-0.09301 -0.3349,-0.09298 -1.2099,7.38e-4 -2.03076,1.027252 -2.454683,1.027514 -1.545478,9.42e-4 -2.797091,-1.907161 -3.485142,-2.777383 -0.550847,-0.69689 -2.100831,-3.029495 -2.206824,-4.004057 -0.481013,-1.461969 -0.962147,-2.92383 -1.443267,-4.385694 -0.155182,-0.504708 -0.310487,-1.009422 -0.46578,-1.514024 0.6774,-0.846692 3.152365,-1.446735 4.465359,-1.866394 0.816223,-0.260949 1.507295,-0.534991 2.515942,-0.696821 0.809387,-0.129867 2.280425,-0.301268 2.279825,-0.987033 -7.1e-4,-0.814707 -0.957186,-0.652368 -1.563224,-0.651997 l -0.78131,4.78e-4 C 98.081548,73.503655 95.24658,73.9007 93.922365,73.901507 c -0.163899,0.339998 -1.451413,0.621339 -1.938809,0.712341 -0.891749,0.166516 -1.418064,0.502325 -2.189961,0.502798 -0.226809,1.39e-4 -0.681967,-0.534191 -0.893502,-0.652409 -8.31e-4,-0.94925 -0.908622,-4.35762 -1.455133,-4.662978 -5.48e-4,-0.627469 -2.423377,-5.119788 -2.772968,-6.080379 -0.621245,-1.706997 -2.147496,-4.699373 -2.149239,-6.695597 -0.002,-2.326642 2.668274,-4.479017 5.353648,-4.480657 l 1.116129,-6.83e-4 c 1.178511,-7.22e-4 2.920942,0.557658 3.685156,0.929723 1.969205,0.958738 1.210796,0.709875 2.540629,1.980958 0.363408,0.347264 1.611416,1.995345 1.875307,2.444384 0.253276,0.430898 1.328086,2.657002 1.616598,2.754223 z m 29.90565,-9.159525 c 0.69334,0.863844 1.1228,7.485555 1.08497,9.27729 -0.24708,0.172138 -0.49429,0.344324 -0.74148,0.516597 l -0.33495,2.03e-4 c -0.2502,1.52e-4 -0.24498,0.07404 -0.44688,0.180183 -0.66944,0.03387 -1.33888,0.06745 -2.00845,0.101203 0.001,1.316601 1.91398,0.878641 2.3461,2.423798 0.6956,0.04795 2.49173,1.164767 2.68503,1.673451 0.41662,1.096496 0.77863,1.790802 0.7794,3.268179 0.001,2.68168 0.48267,4.851889 0.44088,7.555081 0.003,0.948822 0.5961,3.832168 -0.064,5.215037 -0.22007,0.460993 -0.57942,0.755242 -1.14634,0.755589 l -0.55799,3.38e-4 2.4e-4,0.279803 c 4e-4,0.456421 1.92978,1.21716 2.38514,2.017765 0.33568,0.590332 0.96725,2.410389 0.96794,3.203826 0.0283,0.935529 0.0567,1.871147 0.085,2.806775 -0.17526,1.178707 -0.35057,2.357524 -0.52598,3.536338 -0.49597,0.62001 -0.71462,1.095677 -1.50913,1.536937 -0.52958,0.294248 -1.67945,0.703659 -2.50715,0.704166 l -0.78133,4.76e-4 c -3.45701,0.0022 -6.58989,-5.263336 -6.59255,-8.297679 -0.0677,-4.98e-4 -0.13548,-8.9e-4 -0.20333,-0.0013 -0.0444,-0.528102 -0.0886,-1.056216 -0.13297,-1.584199 l -2.4e-4,-0.279879 c -0.001,-1.599615 0.13727,-2.413437 2.12639,-2.607178 0.30121,-0.02939 1.59048,0.05616 1.99376,0.09239 1.15006,0.103497 2.38055,0.458769 3.69121,0.457963 0.18278,-1.08e-4 0.33489,-0.05603 0.33475,-0.186793 -5.7e-4,-0.650477 -1.68439,-1.241817 -2.3678,-1.378747 -2.03227,-0.407255 -3.24688,-0.763175 -5.33562,-0.761897 -0.076,0.157496 -0.58635,0.373422 -0.78101,0.373544 -1.3711,8.39e-4 -0.20769,-1.025896 0.55724,-1.026362 1.00529,-0.0045 2.01046,-0.0086 3.01563,-0.01311 0.85517,0.09648 1.71033,0.192914 2.56537,0.289352 0.25565,0.03265 0.30131,-0.06778 0.66965,-0.0937 l -3.3e-4,-0.373056 c -0.62438,-0.138922 -1.48515,-1.025114 -2.79128,-1.024317 -1.93142,0.0012 -4.46403,0.841182 -4.46566,-1.023405 -2e-4,-0.229768 -1.35777,-2.772094 -1.52256,-3.486278 -0.27085,-1.173358 -1.05013,-2.814395 -1.03488,-3.985553 -0.0799,-0.08946 -0.1598,-0.178917 -0.23971,-0.268416 -0.001,-1.380196 -0.41706,-2.478746 -0.0522,-3.865211 0.54727,-2.079275 1.8664,-2.134283 2.05823,-2.554121 0.44562,-0.03755 0.89118,-0.07485 1.33678,-0.112155 2.11724,-0.206668 4.89762,0.46337 6.7921,0.459081 0.0429,-0.185527 0.0854,-0.371056 0.12805,-0.556604 -1.1826,-0.522009 -1.78436,-0.651865 -3.57228,-0.650772 -0.64596,3.95e-4 -3.90626,0.428474 -3.90656,0.09567 -5.5e-4,-0.630711 3.38947,-0.875734 4.24062,-0.935428 l -2.4e-4,-0.279761 c -4e-4,-0.456108 -1.90755,-0.46531 -2.34426,-0.46504 -0.70434,4.28e-4 -1.47224,0.151736 -1.89778,0.37379 -0.80098,0.418038 -0.74317,0.357752 -1.78484,0.56129 -0.40125,-0.632626 -1.30277,-1.474534 -1.5561,-2.244815 -0.27494,-0.835802 -0.79498,-1.578613 -1.08395,-2.639988 -0.49889,-1.833299 -1.05116,-4.144487 -1.05305,-6.306244 l -3.3e-4,-0.373179 c -0.001,-1.251138 0.28281,-3.031685 0.5587,-4.100962 0.31112,-1.206217 2.22807,-2.273151 2.33743,-2.6167 0.72759,-0.0138 1.47766,-0.747153 2.34334,-0.747679 l 2.67878,-0.0016 c 0.39963,-2.45e-4 1.94896,0.712879 2.25527,0.912993 0.44264,0.28923 1.19776,1.189854 1.48982,1.646755 0.53303,0.833711 1.39442,3.318664 1.39547,4.526204 z m -66.621154,15.151407 0.557998,-3.38e-4 c 1.823433,-0.0011 4.135245,1.287506 5.12944,2.054636 0.519874,0.401134 2.76671,3.026388 3.208862,3.662011 0.277924,0.399584 1.205087,1.575231 1.556681,1.870773 0.226705,0.190548 1.150515,1.648259 1.40888,1.994607 0.475253,0.636791 2.325011,3.707367 2.325699,4.494537 0.552868,0.30882 2.274941,2.732015 2.346997,3.44982 -0.269282,0.0053 -2.62681,0.494738 -2.969399,0.597957 -0.02587,0.0078 -1.207181,0.467343 -1.292775,0.505825 -0.481842,0.216911 -0.848987,0.616976 -1.093838,0.671753 l 2.43e-4,0.279883 c 1.684046,0.116018 2.300661,-0.654347 3.571139,-0.655121 -0.228676,0.823052 -1.450064,1.13683 -1.449509,1.773155 l 2.52e-4,0.279761 0.558111,-3.38e-4 c 1.272936,-7.8e-4 3.208693,-1.401059 4.240216,-1.401689 0.422232,-2.57e-4 3.892123,4.375884 4.434496,4.969766 0.725838,0.794828 3.854572,4.563786 3.938926,5.46148 -0.48111,0.190342 -0.962343,0.380769 -1.443583,0.571234 l 4.88e-4,0.559671 c 0.389868,0.07566 0.37605,0.186344 0.781492,0.186099 l 0.334801,-2.05e-4 c 1.748523,-0.0011 1.970153,-0.908009 2.009864,0.931503 1.817744,0.125245 4.207664,3.915367 5.02911,5.032347 0.666773,0.90685 1.897673,2.32138 1.89891,3.73149 l 3.23e-4,0.37317 c 0.0013,1.48235 -1.806416,3.07929 -3.569146,3.08037 -0.262206,0.01 -0.524402,0.0196 -0.78673,0.0298 -0.630651,-0.0716 -1.261433,-0.14316 -1.892216,-0.21471 -0.158904,-0.32824 -0.552629,-0.21075 -1.007646,-0.46347 -0.372437,-0.20675 -0.602079,-0.34053 -0.961129,-0.5958 -0.351055,-0.24964 -1.674265,-1.04183 -1.716654,-1.36371 -0.66215,-0.0456 -1.867651,-1.07249 -2.347789,-1.3955 -0.05069,-0.0343 -0.818664,-0.74596 -0.959442,-0.87728 -0.235409,-0.21927 -0.490442,-0.88739 -0.490776,-1.26943 l -3.28e-4,-0.37306 c -3.65e-4,-0.4183 0.31835,-0.52077 0.333825,-1.11963 0.664688,-0.14868 0.592371,-1.01352 1.097411,-1.30809 0.04294,-0.40374 0.08544,-0.80741 0.128102,-1.21106 0.335729,-0.4197 1.784657,-1.374922 1.784303,-1.773368 -1.84e-4,-0.214993 -0.07786,-0.279842 -0.335042,-0.27968 l -0.669726,4.09e-4 c -1.262602,7.71e-4 -1.952309,1.083045 -2.922993,1.382419 -1.238499,0.38204 -2.182717,1.69888 -2.655077,1.69917 -0.656956,4e-4 -2.20068,-1.26007 -2.681979,-1.58253 -0.874957,-0.586217 -1.373362,-1.407005 -2.079417,-2.180354 -0.63081,-0.690904 -3.170304,-4.181206 -3.171102,-5.093635 -1.98e-4,-0.23087 1.530476,-1.647303 1.560081,-2.799251 -1.326589,0.09301 -1.664825,1.773292 -2.230704,1.773633 -0.215547,1.35e-4 -0.446642,-0.166102 -0.44674,-0.279597 -0.0011,-1.290468 1.957325,-2.1311 2.229765,-2.986252 -0.136191,-0.06386 -0.11945,-0.09322 -0.335045,-0.0931 -0.439661,2.71e-4 -2.441929,1.143488 -2.56598,1.400774 l -0.334895,2.04e-4 c -0.248002,1.52e-4 -0.460851,0.280047 -1.339053,0.280618 -0.06981,-0.1601 -0.562197,-0.503598 -0.798041,-0.825668 -0.308529,-0.421365 -0.542614,-0.547138 -0.543102,-1.132269 -0.528123,-0.658021 -0.632985,-1.662072 -1.024463,-2.223003 -0.180146,-0.257642 -0.469637,-0.800697 -0.620684,-0.974141 -0.329037,-0.376974 -0.28754,-0.726204 -0.573426,-1.106875 -0.730912,-0.973315 -1.553705,-3.343297 -2.536476,-4.037977 -0.684245,-0.483655 -1.225889,-0.06318 -2.238733,-1.20682 -0.465733,-0.525901 -1.02339,-1.308739 -1.422631,-1.889859 -0.478424,-0.696286 -0.883181,-1.269411 -1.287986,-2.002455 -0.299746,-0.542737 -0.747415,-1.970931 -0.998637,-2.31977 -0.08347,-0.49633 -0.166964,-0.992555 -0.250434,-1.488779 l -9.8e-5,-0.0933 c -9.74e-4,-1.107209 0.487213,-2.401 1.139187,-2.964299 0.639185,-0.551951 1.681321,-1.514795 2.875087,-1.515527 l 0.334897,-2.03e-4 -1.46e-4,-0.18659 1.227843,-7.5e-4 1.95e-4,0.18659 z m -0.940105,73.690377 c 0.488773,0.008 3.264709,1.49275 3.585156,1.76011 0.110319,0.0922 0.332942,0.43692 0.6303,0.68607 0.268014,0.22447 0.490629,0.362 0.79018,0.55206 2.380309,1.50961 0.895336,-0.20324 2.363466,-0.20447 0.687416,-4.4e-4 1.467541,1.01931 1.832316,1.45358 0.289497,0.34485 1.754606,1.0504 2.4113,1.06236 -0.01767,-0.63601 -0.223456,-0.29099 -0.223737,-0.65286 l -1.62e-4,-0.18651 c -1.61e-4,-0.18038 0.19873,-0.37301 0.334456,-0.37342 1.536436,-9.4e-4 2.459887,2.70685 3.228031,2.54736 l 4.792954,-0.59707 c 0.006,0.0327 0.01174,0.0645 0.01715,0.0967 0.07834,-0.0326 0.156753,-0.0616 0.235026,-0.0922 1.893745,0.18488 3.787352,0.36975 5.680967,0.55487 1.309226,0.73155 3.574239,2.74171 3.575752,4.47521 0.393089,0.48977 0.447327,1.06118 0.448012,1.86527 6.33e-4,0.72584 -0.333777,1.17472 -0.333092,1.959 -0.655974,0.36769 -0.08549,0.59988 -0.688638,0.82356 -0.2873,0.10658 -0.973814,0.41219 -1.210966,0.41407 -0.445421,-0.0409 -0.890796,-0.0776 -1.336328,-0.11624 -1.428374,-0.79807 -3.147767,-1.30592 -5.202819,-1.61975 -0.976899,-0.14901 -2.20887,-0.29221 -3.082269,-0.4073 -0.633375,-0.0833 -2.752442,-0.48448 -2.990367,-0.48432 -0.222918,1.4e-4 -0.63503,0.0926 -0.706743,-0.10003 -1.872272,-0.59025 -1.449138,-0.61094 -2.48734,-1.8943 -0.409735,-0.50647 -0.397385,-1.12974 -1.050101,-1.1747 -0.05818,0.20935 -0.111395,0.21467 -0.111213,0.46641 0.0053,0.0286 0.01125,0.0609 0.01664,0.0914 0.181658,1.21316 0.363166,2.42631 0.544649,3.63959 0.05219,0.29425 -0.07927,0.33221 -0.11907,0.63564 -0.108814,0.0367 -0.217696,0.0738 -0.326695,0.11107 -0.745926,-0.14487 -1.597084,-0.51255 -2.678272,-0.44957 -2.418583,0.0899 -4.837115,0.17956 -7.255792,0.26895 -1.355116,8.1e-4 -2.352481,0.18814 -3.906385,0.18895 -1.464858,9e-4 -3.426154,-0.74419 -4.813633,-0.72982 -0.106912,-0.0666 -0.214316,-0.13349 -0.321716,-0.19998 -1.51768,9.3e-4 -4.782583,-1.5836 -5.714438,-2.21838 -1.44196,-0.98209 -2.884166,-2.53091 -2.886071,-4.67886 -0.0024,-2.8323 1.640654,-4.74651 3.769839,-5.80234 1.33871,-0.6638 1.801805,-1.10129 3.584864,-1.48247 1.365707,-0.2918 2.606874,-0.83639 4.469606,-0.83753 0.522312,-0.008 1.044673,-0.0164 1.566888,-0.0245 1.189423,0.22487 2.378744,0.44978 3.568019,0.67473 z m 100.497799,-78.507719 0.002,1.77227 c 0.002,1.788362 -1.60801,2.053032 -3.34672,2.054093 -0.74541,4.57e-4 -2.23269,-0.353792 -2.23205,0.374443 0.35544,0.425657 0.12505,0.313513 1.06889,0.505665 0.76094,0.154926 1.3912,0.239072 2.16866,0.238624 0.25639,-1.55e-4 1.22727,-0.51808 1.22772,-7.47e-4 4.9e-4,0.566138 -0.16724,1.492598 -0.89162,1.493039 -0.44782,2.74e-4 -1.30123,-0.745442 -1.67491,-0.745213 -0.39744,2.43e-4 -0.4463,0.08008 -0.44606,0.373341 3.5e-4,0.400726 0.56304,0.446153 0.94074,0.612859 1.69868,0.749842 1.47193,3.6296 1.74302,5.075499 l 0.001,1.212614 c 0.001,1.65792 -0.65368,4.024052 -1.42313,5.05746 -0.83937,1.126958 -1.76824,3.152903 -3.81565,3.154157 -1.11198,6.77e-4 -1.99538,-0.465147 -2.45599,-0.464866 -2.31686,0.0014 -0.0935,1.212671 0.78239,1.212136 0.71236,-4.36e-4 2.00961,0.630347 2.0102,1.304573 6.8e-4,0.7821 -1.1856,7.098351 -1.42661,7.571231 -0.13323,0.261315 -0.50217,1.361828 -0.58018,1.659684 -0.19133,0.730147 -0.37898,1.048488 -0.68741,1.663526 -0.26533,0.529155 -0.47491,0.896403 -1.16289,1.173264 -0.64199,0.258335 -1.1464,0.527848 -2.0476,0.528398 l -0.4464,2.69e-4 c -0.74568,4.57e-4 -2.6593,-1.203857 -2.9263,-1.658075 -0.51161,-0.870317 -0.98533,-2.113861 -0.98745,-3.3742 -0.002,-1.45848 -0.18297,-2.721197 -0.009,-4.019975 0.0956,-0.712738 0.0858,-1.174121 0.25182,-1.840455 0.34597,-1.387971 0.74475,-2.523516 1.09059,-3.93686 l 0.2232,-1.38e-4 c -8.4e-4,-0.96362 0.62443,-1.43284 0.9873,-1.972422 0.57521,-0.855446 -0.0974,-1.56446 -0.0981,-2.318918 -7.1e-4,-0.806716 0.3079,-2.805828 0.49208,-3.597433 0.28169,-1.211706 0.63019,-2.065066 1.02192,-3.155148 0.36077,-1.003892 0.88529,-1.921611 1.33421,-2.894674 0.24004,-0.520503 0.46168,-0.966379 0.68298,-1.387421 0.32406,-0.61687 0.13571,-1.058175 0.29706,-1.802686 0.2541,-1.171849 0.0791,-2.765415 0.17629,-3.861038 0.1215,-1.370557 0.21523,-2.590785 0.32767,-3.734469 0.20495,-2.084028 2.24371,-4.009797 4.91061,-4.01143 3.88829,-0.0024 4.91502,4.408732 4.91793,7.739047 z m -52.62414,67.472059 8e-5,0.0935 c 3.2e-4,0.362 -0.20625,0.0164 -0.22261,0.65306 -0.54407,0.12163 -0.68427,0.64939 -1.70006,0.91152 -0.76077,0.19631 -1.73492,0.0588 -2.65298,0.11631 -1.84388,0.1159 -2.69708,0.93515 -4.574512,0.9363 l -3.125312,0.002 c -0.546762,3.3e-4 -0.830527,-0.12897 -1.09206,-0.3926 -0.08982,-0.0906 -0.471685,-0.83892 -0.471734,-0.91201 l -3.23e-4,-0.37302 c -2.83e-4,-0.32404 0.223047,-0.14242 0.222765,-0.46651 l -2.44e-4,-0.27997 c 0.449962,-0.0877 0.520178,-0.28037 0.781092,-0.28037 0.798769,-4.9e-4 1.500465,0.3722 1.674584,0.3722 l 0.892923,-5.3e-4 c 1.258872,-7.8e-4 2.188601,-0.73281 3.126921,-0.67355 l 1.57772,0.0951 0.42946,0.29547 c 0.76673,-4.9e-4 0.86041,0.1861 1.33962,0.18569 0.50751,-3.2e-4 1.99205,-0.38852 2.12008,-0.65424 l 1.22786,-7.4e-4 c 0.26132,-1.6e-4 0.44654,0.15467 0.44674,0.37261 v -4e-5 z m 5.01478,-9.14434 -0.002,0.26854 -1.0025,0.10529 -0.44655,2.9e-4 c -1.8919,10e-4 -2.31741,-1.37857 -3.36304,-1.39542 l 0.12576,0.83773 0.0288,0.37506 -0.13884,1.49055 c -0.43884,0.54825 -1.27375,2.61249 -2.1185,2.61298 l -0.3348,2e-4 c -0.25718,1.7e-4 -0.335,-0.0649 -0.33519,-0.27956 l -2.4e-4,-0.27996 c -0.002,-1.70995 2.86096,-3.18357 1.78153,-4.94482 -10e-4,-1.56474 -1.0878,-2.31465 -1.11914,-3.45057 0.114,0.0697 1.06247,1.27676 1.30965,1.51771 0.50133,0.48876 1.01976,0.87512 1.58767,1.28486 0.82809,0.59728 2.59888,1.83137 4.02697,1.85708 h -10e-6 z m 13.16742,-4.20552 -0.34212,2.14153 -0.54814,0.93719 c -0.34915,0.0245 -0.39631,0.0935 -0.78111,0.0939 -0.45582,2.8e-4 -0.67027,-0.61972 -0.67063,-1.02563 l -10e-4,-1.21263 c -3.2e-4,-0.36363 0.5493,-0.94017 0.56085,-1.76904 0.0108,-0.77433 -0.0738,-1.50411 0.10545,-2.14908 0.95292,0.0657 1.85089,1.99347 1.67673,2.98387 z m 12.60954,-3.64544 0.0268,1.49464 -0.13624,1.21043 c -0.57966,0.32494 -0.12059,0.35555 -1.00386,0.74686 -0.6679,-0.12962 -0.89315,-0.24793 -0.89374,-0.9323 l -5.8e-4,-0.65295 c -4e-4,-0.44737 0.38,-1.33119 0.42325,-1.79207 0.0444,-0.47147 -0.31419,-1.13014 -0.31483,-1.84573 -0.60067,-0.20222 -0.0529,-0.98799 1.09336,0.11174 0.2415,0.23156 0.80527,1.23016 0.80565,1.65938 z"
     id="path4748"
     style="fill:#f47f0c;fill-opacity:1;stroke-width:1.18098986;filter:url(#filter5378)"
     transform="matrix(1.0417565,0,0,1.0089816,-7.5527101,-3.6998519)" />
  <path
     inkscape:connector-curvature="0"
     class="fil0"
     d="m 136.79153,161.63026 c 0.023,0.009 0.0459,0.0121 0.0689,0.0204 -0.22643,0.16487 -3.40401,1.68116 -3.57024,1.6813 l -0.55814,3.1e-4 c 0.10821,-1.09585 0.89052,-2.76168 0.88984,-3.5451 -0.001,-1.29768 -0.98921,-5.81994 -1.79116,-6.06194 -6.1e-4,-0.69446 -1.22947,-2.28198 -1.62309,-2.93564 -0.33671,-0.55924 -1.46975,-2.4726 -2.17655,-2.47218 l -0.11171,7e-5 c -0.25718,1.7e-4 -0.33475,0.0654 -0.33455,0.27996 l 8e-5,0.0935 c 7.8e-4,0.90344 3.01361,2.99515 3.03108,4.64853 0.54861,0.34078 0.73365,1.46904 0.90608,2.04449 0.11374,0.37994 0.31151,1.58212 0.31195,2.07256 l 8e-5,0.0931 c 0.003,3.24114 -1.17554,6.64733 -3.09034,8.23351 -0.48751,0.40403 -1.11759,0.97955 -1.65889,1.31881 -0.7219,0.45236 -1.27135,0.6354 -2.00712,1.02825 -1.11019,0.59275 -3.19396,1.2718 -4.95307,1.27287 -6e-4,0.0559 -0.001,0.11176 -0.002,0.16763 -1.04103,0.069 -2.08205,0.13832 -3.12307,0.20733 -6.46681,0.48276 -10.5428,-3.81173 -13.61323,-6.3424 -0.87846,-0.72403 -1.48327,-1.67906 -2.70337,-2.12468 -1.042577,-0.38077 -2.344029,-1.22719 -3.141527,-1.85136 -1.054202,-0.8252 -1.637031,-1.30457 -2.522931,-2.27588 -0.885252,-0.97049 -1.207636,-1.98976 -1.918179,-2.87515 -3.87e-4,-0.43865 0.04101,-0.71249 -0.335679,-0.83938 l -0.0016,-1.77226 c -0.0013,-1.52447 0.164015,-1.36807 0.7086,-2.67111 0.198652,-0.47531 1.2963,-2.22755 1.2961,-2.46034 l -5.71e-4,-0.65298 c -7.9e-4,-0.90495 -1.165738,-2.82296 -1.634677,-3.48585 -0.143668,-0.20324 -1.155699,-1.08493 -1.383322,-1.26936 -0.284369,-0.23058 -0.942344,-1.4148 -0.922782,-1.77451 0.04101,-0.37587 0.0819,-0.75199 0.122908,-1.1279 0.07973,-0.0898 0.159483,-0.17917 0.239222,-0.26895 -5.51e-4,-0.62931 0.717135,-1.60976 1.084813,-1.98416 0.311515,-0.31751 1.420871,-1.28205 1.925911,-1.28233 l 0.446548,-2.9e-4 c 0.808662,-1.6784 9.038336,-1.8754 10.824116,-2.99224 1.11604,-0.0939 2.23209,-0.18773 3.34826,-0.28119 1.03619,-0.27507 0.8924,-1.79272 1.22606,-2.05281 0.2297,-0.24976 0.93306,-0.19426 1.00462,-0.18936 0.67405,0.058 1.34822,0.11589 2.02238,0.17385 0.10715,0.0665 0.21427,0.13304 0.32157,0.19998 0.68084,-4.1e-4 3.90697,0.38077 3.90721,0.65045 6.4e-4,0.72844 -2.33298,1.50687 -3.10295,1.79157 -0.5697,0.21059 -3.30709,1.28319 -3.70298,1.29078 -0.0715,0.22446 -0.85817,0.74677 -1.00387,0.74685 -0.39992,2.4e-4 -1.20842,0.66494 -1.55576,0.93878 -0.41282,0.32567 -0.79314,0.67955 -1.20758,1.04293 -0.37053,0.32486 -1.92118,1.96707 -1.92079,2.40526 0.002,1.84556 1.58909,-0.63258 2.20361,-1.1439 0.37986,-0.31629 2.10208,-1.59311 2.14686,-1.93695 0.35906,-0.0326 1.54022,-0.98151 2.08301,-1.24446 0.74459,-0.36077 1.52761,-0.78896 2.2676,-1.09047 0.52423,-0.21345 0.57798,-0.34649 1.18427,-0.50317 0.31318,-0.0808 0.92569,-0.35097 1.20225,-0.48806 0.45616,-0.2265 3.5528,-1.53062 4.19696,-1.53099 l 0.22335,-1.7e-4 c 0.36204,0 2.06192,0.65192 2.12121,0.65188 0.92883,-5.7e-4 1.6781,-0.46741 2.67837,-0.46802 l 0.44654,-2.4e-4 c 1.43091,-9e-4 3.87816,0.51675 4.9782,0.87429 2.96767,0.96438 4.86224,2.10207 7.66396,3.10717 0.93223,0.33425 2.40886,1.66306 2.98919,1.79215 -0.48433,-1.73158 -5.46632,-3.98661 -7.08778,-4.61625 -0.5419,-0.21018 -0.72165,-0.29751 -1.19522,-0.49312 -0.966,-0.39873 -1.51462,-0.45994 -2.5366,-0.77084 -0.37737,-0.11468 -5.87632,-1.94495 -4.36714,-1.94584 0.0166,0 1.23691,-0.28324 1.60641,-0.33711 0.65233,-0.0955 1.40026,-0.0408 2.07787,-0.0367 1.26131,0.004 2.68068,-0.18937 4.01678,-0.19018 0.71142,-0.18243 8.42656,-1.46892 9.14934,-3.73672 -0.64547,0.1261 -1.65385,0.88221 -2.24511,1.10925 -1.73515,0.66665 -3.62921,1.44933 -5.55728,1.74423 -0.38762,0.14854 -1.45271,0.32363 -1.90557,0.32404 l -1.78586,10e-4 c -0.3013,2.1e-4 -0.3077,-0.0445 -0.55806,-0.093 0.0205,-0.79798 1.16208,-0.90214 1.80654,-1.15561 0.70716,-0.1857 1.41444,-0.37139 2.12172,-0.557 -0.0637,-0.24364 -2.22107,0.0824 -2.59162,0.1155 -0.33012,0.0555 -2.9632,0.60038 -3.34664,0.66572 -0.51825,0.4195 -1.58817,0.0661 -2.23184,0.46774 -0.67453,4.1e-4 -3.77906,0.84724 -4.18393,1.07586 -1.05735,0.59715 -3.86946,0.13182 -5.21444,0.30935 -0.60042,0.0792 -4.5328,-0.10529 -5.17781,-0.20079 -0.691,-0.10243 -2.03433,-0.0971 -2.51895,-0.22569 -0.59947,-0.15875 -1.60944,-0.47822 -2.10268,-0.57392 0.0415,-1.61283 7.26331,-2.92238 7.47541,-3.36253 0.69918,-4.1e-4 2.85918,-0.64155 3.70882,-0.81989 1.72172,-0.36119 3.30797,-0.71457 4.89755,-0.94413 0.10703,-0.0669 0.21416,-0.13346 0.32132,-0.20039 1.0655,-6.5e-4 1.68148,-0.1563 2.6355,-0.31751 0.41999,-0.071 2.37422,-0.43199 2.60982,-0.43211 1.68614,-0.001 3.22855,-0.54903 5.13077,-0.56528 1.05386,-0.008 3.40077,-0.0612 3.68583,-0.65265 0.64855,-3.7e-4 3.27276,-0.67147 4.01363,-0.8452 0.53723,-0.12611 3.79223,-0.55875 4.35643,-0.55908 0.52156,-0.0122 1.04326,-0.0245 1.56495,-0.0326 1.26422,0.0726 2.52843,0.14528 3.79278,0.21834 l 2.4e-4,0.27996 c 3.8e-4,0.43807 -2.197,0.87638 -2.34292,1.21402 -1.48477,9.3e-4 -2.4384,0.74774 -3.57106,0.74843 l -0.4464,2.9e-4 c -0.3307,0.68596 -2.79168,-0.003 -2.90055,0.89434 1.23197,-0.0122 2.46395,-0.0286 3.69593,-0.0416 0.11284,-0.0457 0.22568,-0.0914 0.33856,-0.13713 1.18466,-0.20855 2.36932,-0.41664 3.55398,-0.6249 1.45087,-0.81321 5.4682,-1.10991 5.46639,-3.1748 -1.6e-4,-0.1914 -0.19049,-0.41366 -0.22384,-0.74611 -0.56436,-0.0408 -0.78118,-0.27915 -1.00476,-0.27915 l -1.11614,7e-4 c -0.47159,2.8e-4 -1.7458,0.45888 -2.22866,0.5636 -0.63369,0.13754 -1.96988,0.18488 -2.79345,0.18569 l -0.33494,2e-4 1.6e-4,0.18651 c -1.3454,8.2e-4 -3.08475,0.15631 -4.36107,0.27548 -0.93612,0.0873 -1.20827,0.0735 -2.04526,0.25058 -0.35086,0.0743 -1.82644,0.41162 -1.964,0.4117 l -0.33494,2.1e-4 1.6e-4,0.18651 -0.4464,2.8e-4 c -0.0361,0 -1.40961,0.56883 -1.672,0.65539 -0.83379,0.27507 -1.48108,0.0906 -2.25838,0.25915 -0.90166,0.19549 -3.52818,0.30241 -4.67648,0.28976 -0.10714,0.0665 -0.21431,0.13346 -0.32132,0.20039 -3.01333,0.002 -12.84676,1.34322 -15.9584,3.0879 -0.8733,5.3e-4 -5.71907,1.82124 -6.77404,2.17683 -0.83792,0.28242 -1.90723,1.23181 -2.67331,1.68396 -1.38963,0.82018 -2.01434,0.15711 -3.83158,0.15834 -0.387672,-0.21671 -2.35468,-0.70747 -3.054365,-0.99082 -0.74439,-0.30119 -2.005829,-1.03579 -2.556738,-1.50088 -1.200196,-1.01305 -2.876531,-2.9453 -2.878215,-4.87213 -3.72e-4,-0.42154 -0.254351,-2.51826 0.221151,-2.51854 -10e-4,-1.19153 0.592987,-1.49501 0.668134,-1.67948 0.268454,-0.23438 0.06604,-0.0715 0.334602,-0.37326 0.18199,-0.75914 3.389823,-3.59233 4.147081,-4.08939 0.872211,-0.57587 1.639878,-1.13632 2.62886,-1.63126 0.16901,-0.0846 3.15151,-1.49615 3.15227,-0.63177 l 2.4e-4,0.2798 c 5.3e-4,0.60394 -0.33397,0.96446 -0.33382,1.11953 7.6e-4,0.27711 0.002,0.55415 0.002,0.83133 0.25976,0.0335 0.5197,0.0673 0.77961,0.10105 0.0691,-0.70235 2.89861,-2.67384 3.63567,-3.21117 0.54448,-0.39705 1.27021,-0.7575 1.70857,-1.09088 0.24552,-0.18663 1.54622,-0.92265 1.80771,-1.00811 0.22686,-0.0742 1.95531,-0.75328 2.02008,-0.83096 0.16712,-0.20062 0.20651,-0.50665 0.50099,-0.79374 0.22159,-0.21609 0.53505,-0.39868 0.81302,-0.53328 0.55971,-0.27103 1.52145,-0.45584 2.4009,-0.50001 1.5551,-0.0779 3.73641,0.30927 5.53647,0.29454 0.1075,0.0635 0.21518,0.12716 0.32283,0.19083 0.44606,0.0339 0.89208,0.0677 1.33826,0.10153 0.96809,0.007 1.93635,0.0135 2.90458,0.02 0.55719,-0.0388 1.11438,-0.0773 1.6717,-0.11603 0.11424,-0.23708 1.25742,-0.61152 1.55249,-0.84826 0.52699,-0.42292 0.85554,-0.63248 1.6077,-0.89566 0.7776,-0.27192 0.74282,-0.45958 1.83962,-0.70191 0.40681,-0.0898 1.75885,-0.3073 1.91769,-0.63673 0.81506,-5e-4 0.81798,-0.18708 1.45077,-0.18749 l 3.23691,-0.002 c 0.69659,-4.3e-4 1.16105,0.28417 2.23211,0.27882 0.8937,-0.004 1.61976,0.011 2.43204,0.11159 0.75093,0.0932 1.53512,0.2651 2.15647,0.34207 1.13369,0.14056 1.02749,0.55265 1.88659,0.56811 0.14772,0.23283 1.55412,1.0199 1.91073,1.29459 0.62947,0.4852 1.43428,0.75217 2.17657,1.16539 1.1734,0.65332 3.11552,1.80331 3.909,2.70273 0.29633,0.33583 0.44548,0.41102 0.76623,0.75884 0.22407,0.24283 0.57528,0.6999 0.75703,0.85992 0.57381,0.50543 0.79821,1.43586 1.22298,1.96363 0.68014,1.26413 2.21544,3.22594 2.21664,4.58563 5.8e-4,0.66968 0.59628,1.24335 0.89455,1.86503 0.22374,0.62172 0.44747,1.24344 0.67136,1.86516 0.11188,0.34199 0.22379,0.68379 0.33583,1.02579 0.004,0.21711 0.007,0.43464 0.0108,0.652 0.29628,2.36318 0.59262,4.72635 0.88892,7.08953 l 0.2232,-1.6e-4 4.9e-4,0.55968 c 0.002,1.78888 0.65696,5.49112 0.987,7.29506 0.22632,1.23687 0.45333,2.4419 0.58172,3.62029 0.11596,1.06403 0.67531,2.60327 0.67613,3.54131 0.002,2.03943 -0.1942,3.6429 -0.55294,5.78353 l 4e-4,0.46635 c -0.23243,0.0788 -1.01493,1.85173 -1.19238,2.17414 -0.46827,0.85062 -0.93142,1.32485 -1.48274,2.02502 -0.9834,1.24862 -2.49862,2.33559 -3.99543,3.19062 -0.40793,0.23304 -2.00249,1.15328 -2.40877,1.25221 -0.71864,0.17509 -0.75389,0.18692 -1.33387,0.47149 -0.43483,0.21344 -1.0486,0.26651 -1.50572,0.4213 -1.16823,0.39588 -4.81417,1.17332 -6.37693,1.20331 -0.12462,-0.25751 -1.31795,-0.52429 -1.65025,-0.76576 -0.51622,-0.37507 -0.98035,-0.54382 -1.92131,-0.53893 -1.9606,0.009 -3.21609,-0.2767 -4.91257,-0.27587 l -1.56265,9.3e-4 c -0.3015,2.1e-4 -0.3078,0.0448 -0.55806,0.0935 l 3.3e-4,0.37301 c 2.3e-4,0.26283 0.35598,0.41529 0.55112,0.55394 0.79883,0.0792 1.85775,0.53604 2.04206,1.11123 -0.0205,-0.0367 -0.041,-0.0698 -0.0612,-0.10486 -0.97782,0.40608 -1.95551,0.81227 -2.93321,1.21843 z M 98.71022,60.653491 c 4.03e-4,0.464636 4.13577,10.768464 4.442,11.192636 0.0483,0.465578 0.0969,0.931158 0.14539,1.396741 1.76746,0.987592 2.96674,3.900796 3.6443,5.911289 0.33997,1.00919 2.72845,6.282329 2.72879,6.677322 l 5.8e-4,0.652956 c 8.8e-4,1.004964 -4.3527,0.3864 -4.35198,1.21527 l 2.4e-4,0.279883 c 0.47208,0.09161 0.94963,0.138266 0.99724,0.518015 -0.55536,0.07616 -1.11085,0.152305 -1.66631,0.228542 l 4.1e-4,0.466464 c 0.4587,0.03142 0.24951,0.09305 0.66982,0.0928 1.77474,-0.0011 2.51458,-0.182304 3.67433,0.658801 0.47305,0.343099 0.78166,0.528198 1.20918,0.948183 0.39582,0.388932 0.61752,1.017132 0.92303,1.187867 4.8e-4,0.548976 0.61535,1.925336 0.67217,2.797886 0.0793,1.221743 0.32464,1.691738 0.0483,3.023082 -0.25674,1.236742 -0.27998,1.719103 -0.80546,2.683362 -0.16983,0.31164 -0.47135,0.8557 -0.71387,1.08207 -0.30175,0.28155 -1.08044,0.48883 -1.20121,0.76858 l -1.22786,7.4e-4 c -1.07686,6.6e-4 -2.80689,-1.00335 -3.55151,-1.41494 -0.55734,-0.30805 -0.92528,-0.68122 -1.39141,-1.075827 -1.66632,-1.410388 -3.993155,-5.289867 -3.994586,-6.924793 -1.9e-4,-0.219849 1.107846,-1.191909 1.365376,-1.377253 0.4632,-0.333511 1.5187,-0.631106 1.53432,-1.236334 -0.13088,-0.02897 -0.30429,-0.09301 -0.3349,-0.09298 -1.2099,7.38e-4 -2.03076,1.027252 -2.454683,1.027514 -1.545478,9.42e-4 -2.797091,-1.907161 -3.485142,-2.777383 -0.550847,-0.69689 -2.100831,-3.029495 -2.206824,-4.004057 -0.481013,-1.461969 -0.962147,-2.92383 -1.443267,-4.385694 -0.155182,-0.504708 -0.310487,-1.009422 -0.46578,-1.514024 0.6774,-0.846692 3.152365,-1.446735 4.465359,-1.866394 0.816223,-0.260949 1.507295,-0.534991 2.515942,-0.696821 0.809387,-0.129867 2.280425,-0.301268 2.279825,-0.987033 -7.1e-4,-0.814707 -0.957186,-0.652368 -1.563224,-0.651997 l -0.78131,4.78e-4 C 98.081548,73.503655 95.24658,73.9007 93.922365,73.901507 c -0.163899,0.339998 -1.451413,0.621339 -1.938809,0.712341 -0.891749,0.166516 -1.418064,0.502325 -2.189961,0.502798 -0.226809,1.39e-4 -0.681967,-0.534191 -0.893502,-0.652409 -8.31e-4,-0.94925 -0.908622,-4.35762 -1.455133,-4.662978 -5.48e-4,-0.627469 -2.423377,-5.119788 -2.772968,-6.080379 -0.621245,-1.706997 -2.147496,-4.699373 -2.149239,-6.695597 -0.002,-2.326642 2.668274,-4.479017 5.353648,-4.480657 l 1.116129,-6.83e-4 c 1.178511,-7.22e-4 2.920942,0.557658 3.685156,0.929723 1.969205,0.958738 1.210796,0.709875 2.540629,1.980958 0.363408,0.347264 1.611416,1.995345 1.875307,2.444384 0.253276,0.430898 1.328086,2.657002 1.616598,2.754223 z m 29.90565,-9.159525 c 0.69334,0.863844 1.1228,7.485555 1.08497,9.27729 -0.24708,0.172138 -0.49429,0.344324 -0.74148,0.516597 l -0.33495,2.03e-4 c -0.2502,1.52e-4 -0.24498,0.07404 -0.44688,0.180183 -0.66944,0.03387 -1.33888,0.06745 -2.00845,0.101203 0.001,1.316601 1.91398,0.878641 2.3461,2.423798 0.6956,0.04795 2.49173,1.164767 2.68503,1.673451 0.41662,1.096496 0.77863,1.790802 0.7794,3.268179 0.001,2.68168 0.48267,4.851889 0.44088,7.555081 0.003,0.948822 0.5961,3.832168 -0.064,5.215037 -0.22007,0.460993 -0.57942,0.755242 -1.14634,0.755589 l -0.55799,3.38e-4 2.4e-4,0.279803 c 4e-4,0.456421 1.92978,1.21716 2.38514,2.017765 0.33568,0.590332 0.96725,2.410389 0.96794,3.203826 0.0283,0.935529 0.0567,1.871147 0.085,2.806775 -0.17526,1.178707 -0.35057,2.357524 -0.52598,3.536338 -0.49597,0.62001 -0.71462,1.095677 -1.50913,1.536937 -0.52958,0.294248 -1.67945,0.703659 -2.50715,0.704166 l -0.78133,4.76e-4 c -3.45701,0.0022 -6.58989,-5.263336 -6.59255,-8.297679 -0.0677,-4.98e-4 -0.13548,-8.9e-4 -0.20333,-0.0013 -0.0444,-0.528102 -0.0886,-1.056216 -0.13297,-1.584199 l -2.4e-4,-0.279879 c -0.001,-1.599615 0.13727,-2.413437 2.12639,-2.607178 0.30121,-0.02939 1.59048,0.05616 1.99376,0.09239 1.15006,0.103497 2.38055,0.458769 3.69121,0.457963 0.18278,-1.08e-4 0.33489,-0.05603 0.33475,-0.186793 -5.7e-4,-0.650477 -1.68439,-1.241817 -2.3678,-1.378747 -2.03227,-0.407255 -3.24688,-0.763175 -5.33562,-0.761897 -0.076,0.157496 -0.58635,0.373422 -0.78101,0.373544 -1.3711,8.39e-4 -0.20769,-1.025896 0.55724,-1.026362 1.00529,-0.0045 2.01046,-0.0086 3.01563,-0.01311 0.85517,0.09648 1.71033,0.192914 2.56537,0.289352 0.25565,0.03265 0.30131,-0.06778 0.66965,-0.0937 l -3.3e-4,-0.373056 c -0.62438,-0.138922 -1.48515,-1.025114 -2.79128,-1.024317 -1.93142,0.0012 -4.46403,0.841182 -4.46566,-1.023405 -2e-4,-0.229768 -1.35777,-2.772094 -1.52256,-3.486278 -0.27085,-1.173358 -1.05013,-2.814395 -1.03488,-3.985553 -0.0799,-0.08946 -0.1598,-0.178917 -0.23971,-0.268416 -0.001,-1.380196 -0.41706,-2.478746 -0.0522,-3.865211 0.54727,-2.079275 1.8664,-2.134283 2.05823,-2.554121 0.44562,-0.03755 0.89118,-0.07485 1.33678,-0.112155 2.11724,-0.206668 4.89762,0.46337 6.7921,0.459081 0.0429,-0.185527 0.0854,-0.371056 0.12805,-0.556604 -1.1826,-0.522009 -1.78436,-0.651865 -3.57228,-0.650772 -0.64596,3.95e-4 -3.90626,0.428474 -3.90656,0.09567 -5.5e-4,-0.630711 3.38947,-0.875734 4.24062,-0.935428 l -2.4e-4,-0.279761 c -4e-4,-0.456108 -1.90755,-0.46531 -2.34426,-0.46504 -0.70434,4.28e-4 -1.47224,0.151736 -1.89778,0.37379 -0.80098,0.418038 -0.74317,0.357752 -1.78484,0.56129 -0.40125,-0.632626 -1.30277,-1.474534 -1.5561,-2.244815 -0.27494,-0.835802 -0.79498,-1.578613 -1.08395,-2.639988 -0.49889,-1.833299 -1.05116,-4.144487 -1.05305,-6.306244 l -3.3e-4,-0.373179 c -0.001,-1.251138 0.28281,-3.031685 0.5587,-4.100962 0.31112,-1.206217 2.22807,-2.273151 2.33743,-2.6167 0.72759,-0.0138 1.47766,-0.747153 2.34334,-0.747679 l 2.67878,-0.0016 c 0.39963,-2.45e-4 1.94896,0.712879 2.25527,0.912993 0.44264,0.28923 1.19776,1.189854 1.48982,1.646755 0.53303,0.833711 1.39442,3.318664 1.39547,4.526204 z m -66.621154,15.151407 0.557998,-3.38e-4 c 1.823433,-0.0011 4.135245,1.287506 5.12944,2.054636 0.519874,0.401134 2.76671,3.026388 3.208862,3.662011 0.277924,0.399584 1.205087,1.575231 1.556681,1.870773 0.226705,0.190548 1.150515,1.648259 1.40888,1.994607 0.475253,0.636791 2.325011,3.707367 2.325699,4.494537 0.552868,0.30882 2.274941,2.732015 2.346997,3.44982 -0.269282,0.0053 -2.62681,0.494738 -2.969399,0.597957 -0.02587,0.0078 -1.207181,0.467343 -1.292775,0.505825 -0.481842,0.216911 -0.848987,0.616976 -1.093838,0.671753 l 2.43e-4,0.279883 c 1.684046,0.116018 2.300661,-0.654347 3.571139,-0.655121 -0.228676,0.823052 -1.450064,1.13683 -1.449509,1.773155 l 2.52e-4,0.279761 0.558111,-3.38e-4 c 1.272936,-7.8e-4 3.208693,-1.401059 4.240216,-1.401689 0.422232,-2.57e-4 3.892123,4.375884 4.434496,4.969766 0.725838,0.794828 3.854572,4.563786 3.938926,5.46148 -0.48111,0.190342 -0.962343,0.380769 -1.443583,0.571234 l 4.88e-4,0.559671 c 0.389868,0.07566 0.37605,0.186344 0.781492,0.186099 l 0.334801,-2.05e-4 c 1.748523,-0.0011 1.970153,-0.908009 2.009864,0.931503 1.817744,0.125245 4.207664,3.915367 5.02911,5.032347 0.666773,0.90685 1.897673,2.32138 1.89891,3.73149 l 3.23e-4,0.37317 c 0.0013,1.48235 -1.806416,3.07929 -3.569146,3.08037 -0.262206,0.01 -0.524402,0.0196 -0.78673,0.0298 -0.630651,-0.0716 -1.261433,-0.14316 -1.892216,-0.21471 -0.158904,-0.32824 -0.552629,-0.21075 -1.007646,-0.46347 -0.372437,-0.20675 -0.602079,-0.34053 -0.961129,-0.5958 -0.351055,-0.24964 -1.674265,-1.04183 -1.716654,-1.36371 -0.66215,-0.0456 -1.867651,-1.07249 -2.347789,-1.3955 -0.05069,-0.0343 -0.818664,-0.74596 -0.959442,-0.87728 -0.235409,-0.21927 -0.490442,-0.88739 -0.490776,-1.26943 l -3.28e-4,-0.37306 c -3.65e-4,-0.4183 0.31835,-0.52077 0.333825,-1.11963 0.664688,-0.14868 0.592371,-1.01352 1.097411,-1.30809 0.04294,-0.40374 0.08544,-0.80741 0.128102,-1.21106 0.335729,-0.4197 1.784657,-1.374922 1.784303,-1.773368 -1.84e-4,-0.214993 -0.07786,-0.279842 -0.335042,-0.27968 l -0.669726,4.09e-4 c -1.262602,7.71e-4 -1.952309,1.083045 -2.922993,1.382419 -1.238499,0.38204 -2.182717,1.69888 -2.655077,1.69917 -0.656956,4e-4 -2.20068,-1.26007 -2.681979,-1.58253 -0.874957,-0.586217 -1.373362,-1.407005 -2.079417,-2.180354 -0.63081,-0.690904 -3.170304,-4.181206 -3.171102,-5.093635 -1.98e-4,-0.23087 1.530476,-1.647303 1.560081,-2.799251 -1.326589,0.09301 -1.664825,1.773292 -2.230704,1.773633 -0.215547,1.35e-4 -0.446642,-0.166102 -0.44674,-0.279597 -0.0011,-1.290468 1.957325,-2.1311 2.229765,-2.986252 -0.136191,-0.06386 -0.11945,-0.09322 -0.335045,-0.0931 -0.439661,2.71e-4 -2.441929,1.143488 -2.56598,1.400774 l -0.334895,2.04e-4 c -0.248002,1.52e-4 -0.460851,0.280047 -1.339053,0.280618 -0.06981,-0.1601 -0.562197,-0.503598 -0.798041,-0.825668 -0.308529,-0.421365 -0.542614,-0.547138 -0.543102,-1.132269 -0.528123,-0.658021 -0.632985,-1.662072 -1.024463,-2.223003 -0.180146,-0.257642 -0.469637,-0.800697 -0.620684,-0.974141 -0.329037,-0.376974 -0.28754,-0.726204 -0.573426,-1.106875 -0.730912,-0.973315 -1.553705,-3.343297 -2.536476,-4.037977 -0.684245,-0.483655 -1.225889,-0.06318 -2.238733,-1.20682 -0.465733,-0.525901 -1.02339,-1.308739 -1.422631,-1.889859 -0.478424,-0.696286 -0.883181,-1.269411 -1.287986,-2.002455 -0.299746,-0.542737 -0.747415,-1.970931 -0.998637,-2.31977 -0.08347,-0.49633 -0.166964,-0.992555 -0.250434,-1.488779 l -9.8e-5,-0.0933 c -9.74e-4,-1.107209 0.487213,-2.401 1.139187,-2.964299 0.639185,-0.551951 1.681321,-1.514795 2.875087,-1.515527 l 0.334897,-2.03e-4 -1.46e-4,-0.18659 1.227843,-7.5e-4 1.95e-4,0.18659 z m -0.940105,73.690377 c 0.488773,0.008 3.264709,1.49275 3.585156,1.76011 0.110319,0.0922 0.332942,0.43692 0.6303,0.68607 0.268014,0.22447 0.490629,0.362 0.79018,0.55206 2.380309,1.50961 0.895336,-0.20324 2.363466,-0.20447 0.687416,-4.4e-4 1.467541,1.01931 1.832316,1.45358 0.289497,0.34485 1.754606,1.0504 2.4113,1.06236 -0.01767,-0.63601 -0.223456,-0.29099 -0.223737,-0.65286 l -1.62e-4,-0.18651 c -1.61e-4,-0.18038 0.19873,-0.37301 0.334456,-0.37342 1.536436,-9.4e-4 2.459887,2.70685 3.228031,2.54736 l 4.792954,-0.59707 c 0.006,0.0327 0.01174,0.0645 0.01715,0.0967 0.07834,-0.0326 0.156753,-0.0616 0.235026,-0.0922 1.893745,0.18488 3.787352,0.36975 5.680967,0.55487 1.309226,0.73155 3.574239,2.74171 3.575752,4.47521 0.393089,0.48977 0.447327,1.06118 0.448012,1.86527 6.33e-4,0.72584 -0.333777,1.17472 -0.333092,1.959 -0.655974,0.36769 -0.08549,0.59988 -0.688638,0.82356 -0.2873,0.10658 -0.973814,0.41219 -1.210966,0.41407 -0.445421,-0.0409 -0.890796,-0.0776 -1.336328,-0.11624 -1.428374,-0.79807 -3.147767,-1.30592 -5.202819,-1.61975 -0.976899,-0.14901 -2.20887,-0.29221 -3.082269,-0.4073 -0.633375,-0.0833 -2.752442,-0.48448 -2.990367,-0.48432 -0.222918,1.4e-4 -0.63503,0.0926 -0.706743,-0.10003 -1.872272,-0.59025 -1.449138,-0.61094 -2.48734,-1.8943 -0.409735,-0.50647 -0.397385,-1.12974 -1.050101,-1.1747 -0.05818,0.20935 -0.111395,0.21467 -0.111213,0.46641 0.0053,0.0286 0.01125,0.0609 0.01664,0.0914 0.181658,1.21316 0.363166,2.42631 0.544649,3.63959 0.05219,0.29425 -0.07927,0.33221 -0.11907,0.63564 -0.108814,0.0367 -0.217696,0.0738 -0.326695,0.11107 -0.745926,-0.14487 -1.597084,-0.51255 -2.678272,-0.44957 -2.418583,0.0899 -4.837115,0.17956 -7.255792,0.26895 -1.355116,8.1e-4 -2.352481,0.18814 -3.906385,0.18895 -1.464858,9e-4 -3.426154,-0.74419 -4.813633,-0.72982 -0.106912,-0.0666 -0.214316,-0.13349 -0.321716,-0.19998 -1.51768,9.3e-4 -4.782583,-1.5836 -5.714438,-2.21838 -1.44196,-0.98209 -2.884166,-2.53091 -2.886071,-4.67886 -0.0024,-2.8323 1.640654,-4.74651 3.769839,-5.80234 1.33871,-0.6638 1.801805,-1.10129 3.584864,-1.48247 1.365707,-0.2918 2.606874,-0.83639 4.469606,-0.83753 0.522312,-0.008 1.044673,-0.0164 1.566888,-0.0245 1.189423,0.22487 2.378744,0.44978 3.568019,0.67473 z m 100.497799,-78.507719 0.002,1.77227 c 0.002,1.788362 -1.60801,2.053032 -3.34672,2.054093 -0.74541,4.57e-4 -2.23269,-0.353792 -2.23205,0.374443 0.35544,0.425657 0.12505,0.313513 1.06889,0.505665 0.76094,0.154926 1.3912,0.239072 2.16866,0.238624 0.25639,-1.55e-4 1.22727,-0.51808 1.22772,-7.47e-4 4.9e-4,0.566138 -0.16724,1.492598 -0.89162,1.493039 -0.44782,2.74e-4 -1.30123,-0.745442 -1.67491,-0.745213 -0.39744,2.43e-4 -0.4463,0.08008 -0.44606,0.373341 3.5e-4,0.400726 0.56304,0.446153 0.94074,0.612859 1.69868,0.749842 1.47193,3.6296 1.74302,5.075499 l 0.001,1.212614 c 0.001,1.65792 -0.65368,4.024052 -1.42313,5.05746 -0.83937,1.126958 -1.76824,3.152903 -3.81565,3.154157 -1.11198,6.77e-4 -1.99538,-0.465147 -2.45599,-0.464866 -2.31686,0.0014 -0.0935,1.212671 0.78239,1.212136 0.71236,-4.36e-4 2.00961,0.630347 2.0102,1.304573 6.8e-4,0.7821 -1.1856,7.098351 -1.42661,7.571231 -0.13323,0.261315 -0.50217,1.361828 -0.58018,1.659684 -0.19133,0.730147 -0.37898,1.048488 -0.68741,1.663526 -0.26533,0.529155 -0.47491,0.896403 -1.16289,1.173264 -0.64199,0.258335 -1.1464,0.527848 -2.0476,0.528398 l -0.4464,2.69e-4 c -0.74568,4.57e-4 -2.6593,-1.203857 -2.9263,-1.658075 -0.51161,-0.870317 -0.98533,-2.113861 -0.98745,-3.3742 -0.002,-1.45848 -0.18297,-2.721197 -0.009,-4.019975 0.0956,-0.712738 0.0858,-1.174121 0.25182,-1.840455 0.34597,-1.387971 0.74475,-2.523516 1.09059,-3.93686 l 0.2232,-1.38e-4 c -8.4e-4,-0.96362 0.62443,-1.43284 0.9873,-1.972422 0.57521,-0.855446 -0.0974,-1.56446 -0.0981,-2.318918 -7.1e-4,-0.806716 0.3079,-2.805828 0.49208,-3.597433 0.28169,-1.211706 0.63019,-2.065066 1.02192,-3.155148 0.36077,-1.003892 0.88529,-1.921611 1.33421,-2.894674 0.24004,-0.520503 0.46168,-0.966379 0.68298,-1.387421 0.32406,-0.61687 0.13571,-1.058175 0.29706,-1.802686 0.2541,-1.171849 0.0791,-2.765415 0.17629,-3.861038 0.1215,-1.370557 0.21523,-2.590785 0.32767,-3.734469 0.20495,-2.084028 2.24371,-4.009797 4.91061,-4.01143 3.88829,-0.0024 4.91502,4.408732 4.91793,7.739047 z m -52.62414,67.472059 8e-5,0.0935 c 3.2e-4,0.362 -0.20625,0.0164 -0.22261,0.65306 -0.54407,0.12163 -0.68427,0.64939 -1.70006,0.91152 -0.76077,0.19631 -1.73492,0.0588 -2.65298,0.11631 -1.84388,0.1159 -2.69708,0.93515 -4.574512,0.9363 l -3.125312,0.002 c -0.546762,3.3e-4 -0.830527,-0.12897 -1.09206,-0.3926 -0.08982,-0.0906 -0.471685,-0.83892 -0.471734,-0.91201 l -3.23e-4,-0.37302 c -2.83e-4,-0.32404 0.223047,-0.14242 0.222765,-0.46651 l -2.44e-4,-0.27997 c 0.449962,-0.0877 0.520178,-0.28037 0.781092,-0.28037 0.798769,-4.9e-4 1.500465,0.3722 1.674584,0.3722 l 0.892923,-5.3e-4 c 1.258872,-7.8e-4 2.188601,-0.73281 3.126921,-0.67355 l 1.57772,0.0951 0.42946,0.29547 c 0.76673,-4.9e-4 0.86041,0.1861 1.33962,0.18569 0.50751,-3.2e-4 1.99205,-0.38852 2.12008,-0.65424 l 1.22786,-7.4e-4 c 0.26132,-1.6e-4 0.44654,0.15467 0.44674,0.37261 v -4e-5 z m 5.01478,-9.14434 -0.002,0.26854 -1.0025,0.10529 -0.44655,2.9e-4 c -1.8919,10e-4 -2.31741,-1.37857 -3.36304,-1.39542 l 0.12576,0.83773 0.0288,0.37506 -0.13884,1.49055 c -0.43884,0.54825 -1.27375,2.61249 -2.1185,2.61298 l -0.3348,2e-4 c -0.25718,1.7e-4 -0.335,-0.0649 -0.33519,-0.27956 l -2.4e-4,-0.27996 c -0.002,-1.70995 2.86096,-3.18357 1.78153,-4.94482 -10e-4,-1.56474 -1.0878,-2.31465 -1.11914,-3.45057 0.114,0.0697 1.06247,1.27676 1.30965,1.51771 0.50133,0.48876 1.01976,0.87512 1.58767,1.28486 0.82809,0.59728 2.59888,1.83137 4.02697,1.85708 h -10e-6 z m 13.16742,-4.20552 -0.34212,2.14153 -0.54814,0.93719 c -0.34915,0.0245 -0.39631,0.0935 -0.78111,0.0939 -0.45582,2.8e-4 -0.67027,-0.61972 -0.67063,-1.02563 l -10e-4,-1.21263 c -3.2e-4,-0.36363 0.5493,-0.94017 0.56085,-1.76904 0.0108,-0.77433 -0.0738,-1.50411 0.10545,-2.14908 0.95292,0.0657 1.85089,1.99347 1.67673,2.98387 z m 12.60954,-3.64544 0.0268,1.49464 -0.13624,1.21043 c -0.57966,0.32494 -0.12059,0.35555 -1.00386,0.74686 -0.6679,-0.12962 -0.89315,-0.24793 -0.89374,-0.9323 l -5.8e-4,-0.65295 c -4e-4,-0.44737 0.38,-1.33119 0.42325,-1.79207 0.0444,-0.47147 -0.31419,-1.13014 -0.31483,-1.84573 -0.60067,-0.20222 -0.0529,-0.98799 1.09336,0.11174 0.2415,0.23156 0.80527,1.23016 0.80565,1.65938 z"
     id="path4748-2"
     style="opacity:0.177;fill:#dc2c0c;fill-opacity:1;stroke-width:1.76641891;filter:url(#filter5378-8);stroke:#fb002b;stroke-opacity:0.98823529;stroke-miterlimit:4;stroke-dasharray:none"
     transform="matrix(1.0417565,0,0,1.0089816,-7.5526788,-3.6997409)" />
</svg>
